<?xml version="1.0" encoding="UTF-8" standalone="no"?><svg xmlns="http://www.w3.org/2000/svg" xmlns:xlink="http://www.w3.org/1999/xlink" contentScriptType="application/ecmascript" contentStyleType="text/css" height="377px" preserveAspectRatio="none" style="width:3445px;height:377px;" version="1.1" viewBox="0 0 3445 377" width="3445px" zoomAndPan="magnify"><defs><filter height="300%" id="f1j8yzzsmzdmk8" width="300%" x="-1" y="-1"><feGaussianBlur result="blurOut" stdDeviation="2.0"/><feColorMatrix in="blurOut" result="blurOut2" type="matrix" values="0 0 0 0 0 0 0 0 0 0 0 0 0 0 0 0 0 0 .4 0"/><feOffset dx="4.0" dy="4.0" in="blurOut2" result="blurOut3"/><feBlend in="SourceGraphic" in2="blurOut3" mode="normal"/></filter></defs><g><!--cluster Ui--><polygon fill="#FFFFFF" filter="url(#f1j8yzzsmzdmk8)" points="861,292,882,292,889,314.2969,3345,314.2969,3345,365,861,365,861,292" style="stroke: #000000; stroke-width: 2.0;"/><line style="stroke: #000000; stroke-width: 2.0;" x1="861" x2="889" y1="314.2969" y2="314.2969"/><text fill="#000000" font-family="sans-serif" font-size="14" font-weight="bold" lengthAdjust="spacingAndGlyphs" textLength="15" x="865" y="306.9951">Ui</text><!--cluster QtNodes--><polygon fill="#FFFFFF" filter="url(#f1j8yzzsmzdmk8)" points="1611,16,1685,16,1692,38.2969,1759,38.2969,1759,83,1611,83,1611,16" style="stroke: #000000; stroke-width: 2.0;"/><line style="stroke: #000000; stroke-width: 2.0;" x1="1611" x2="1692" y1="38.2969" y2="38.2969"/><text fill="#000000" font-family="sans-serif" font-size="14" font-weight="bold" lengthAdjust="spacingAndGlyphs" textLength="68" x="1615" y="30.9951">QtNodes</text><!--class Ui.ClampNode--><a target="_top" xlink:actuate="onRequest" xlink:href="classUi_1_1ClampNode.html" xlink:show="new" xlink:title="classUi_1_1ClampNode.html" xlink:type="simple"><rect fill="#FEFECE" filter="url(#f1j8yzzsmzdmk8)" height="37.9375" id="Ui.ClampNode" style="stroke: #A80036; stroke-width: 1.5;" width="103" x="978.5" y="319"/><ellipse cx="993.5" cy="337.9688" fill="#27940B" rx="11" ry="11" style="stroke: #A80036; stroke-width: 1.0;"/><path d="M989.375,339.8906 L989.375,332.0781 L991.8281,332.0781 L991.8281,340.5156 Q991.8281,341.4375 992.2969,341.9688 Q992.7813,342.5 993.6094,342.5 Q994.4531,342.5 994.9219,341.9688 Q995.3906,341.4375 995.3906,340.5156 L995.3906,332.0781 L997.8438,332.0781 L997.8438,339.8906 Q997.8438,342.4219 996.8438,343.5625 Q995.8438,344.7031 993.6094,344.7031 Q991.3906,344.7031 990.375,343.5625 Q989.375,342.4219 989.375,339.8906 Z "/><text fill="#000000" font-family="sans-serif" font-size="12" font-style="italic" lengthAdjust="spacingAndGlyphs" textLength="27" x="1029.5" y="335.1387">«UI»</text><text fill="#000000" font-family="sans-serif" font-size="12" lengthAdjust="spacingAndGlyphs" textLength="71" x="1007.5" y="349.1074">ClampNode</text></a><!--class Ui.ColorCombineNode--><a target="_top" xlink:actuate="onRequest" xlink:href="classUi_1_1ColorCombineNode.html" xlink:show="new" xlink:title="classUi_1_1ColorCombineNode.html" xlink:type="simple"><rect fill="#FEFECE" filter="url(#f1j8yzzsmzdmk8)" height="37.9375" id="Ui.ColorCombineNode" style="stroke: #A80036; stroke-width: 1.5;" width="151" x="1116.5" y="319"/><ellipse cx="1131.5" cy="337.9688" fill="#27940B" rx="11" ry="11" style="stroke: #A80036; stroke-width: 1.0;"/><path d="M1127.375,339.8906 L1127.375,332.0781 L1129.8281,332.0781 L1129.8281,340.5156 Q1129.8281,341.4375 1130.2969,341.9688 Q1130.7813,342.5 1131.6094,342.5 Q1132.4531,342.5 1132.9219,341.9688 Q1133.3906,341.4375 1133.3906,340.5156 L1133.3906,332.0781 L1135.8438,332.0781 L1135.8438,339.8906 Q1135.8438,342.4219 1134.8438,343.5625 Q1133.8438,344.7031 1131.6094,344.7031 Q1129.3906,344.7031 1128.375,343.5625 Q1127.375,342.4219 1127.375,339.8906 Z "/><text fill="#000000" font-family="sans-serif" font-size="12" font-style="italic" lengthAdjust="spacingAndGlyphs" textLength="27" x="1191.5" y="335.1387">«UI»</text><text fill="#000000" font-family="sans-serif" font-size="12" lengthAdjust="spacingAndGlyphs" textLength="119" x="1145.5" y="349.1074">ColorCombineNode</text></a><!--class Ui.ConstantValue--><a target="_top" xlink:actuate="onRequest" xlink:href="classUi_1_1ConstantValue.html" xlink:show="new" xlink:title="classUi_1_1ConstantValue.html" xlink:type="simple"><rect fill="#FEFECE" filter="url(#f1j8yzzsmzdmk8)" height="37.9375" id="Ui.ConstantValue" style="stroke: #A80036; stroke-width: 1.5;" width="124" x="3048" y="319"/><ellipse cx="3063" cy="337.9688" fill="#27940B" rx="11" ry="11" style="stroke: #A80036; stroke-width: 1.0;"/><path d="M3058.875,339.8906 L3058.875,332.0781 L3061.3281,332.0781 L3061.3281,340.5156 Q3061.3281,341.4375 3061.7969,341.9688 Q3062.2813,342.5 3063.1094,342.5 Q3063.9531,342.5 3064.4219,341.9688 Q3064.8906,341.4375 3064.8906,340.5156 L3064.8906,332.0781 L3067.3438,332.0781 L3067.3438,339.8906 Q3067.3438,342.4219 3066.3438,343.5625 Q3065.3438,344.7031 3063.1094,344.7031 Q3060.8906,344.7031 3059.875,343.5625 Q3058.875,342.4219 3058.875,339.8906 Z "/><text fill="#000000" font-family="sans-serif" font-size="12" font-style="italic" lengthAdjust="spacingAndGlyphs" textLength="27" x="3109.5" y="335.1387">«UI»</text><text fill="#000000" font-family="sans-serif" font-size="12" lengthAdjust="spacingAndGlyphs" textLength="92" x="3077" y="349.1074">ConstantValue</text></a><!--class Ui.ConstantVector--><a target="_top" xlink:actuate="onRequest" xlink:href="classUi_1_1ConstantVector.html" xlink:show="new" xlink:title="classUi_1_1ConstantVector.html" xlink:type="simple"><rect fill="#FEFECE" filter="url(#f1j8yzzsmzdmk8)" height="37.9375" id="Ui.ConstantVector" style="stroke: #A80036; stroke-width: 1.5;" width="130" x="3207" y="319"/><ellipse cx="3222" cy="337.9688" fill="#27940B" rx="11" ry="11" style="stroke: #A80036; stroke-width: 1.0;"/><path d="M3217.875,339.8906 L3217.875,332.0781 L3220.3281,332.0781 L3220.3281,340.5156 Q3220.3281,341.4375 3220.7969,341.9688 Q3221.2813,342.5 3222.1094,342.5 Q3222.9531,342.5 3223.4219,341.9688 Q3223.8906,341.4375 3223.8906,340.5156 L3223.8906,332.0781 L3226.3438,332.0781 L3226.3438,339.8906 Q3226.3438,342.4219 3225.3438,343.5625 Q3224.3438,344.7031 3222.1094,344.7031 Q3219.8906,344.7031 3218.875,343.5625 Q3217.875,342.4219 3217.875,339.8906 Z "/><text fill="#000000" font-family="sans-serif" font-size="12" font-style="italic" lengthAdjust="spacingAndGlyphs" textLength="27" x="3271.5" y="335.1387">«UI»</text><text fill="#000000" font-family="sans-serif" font-size="12" lengthAdjust="spacingAndGlyphs" textLength="98" x="3236" y="349.1074">ConstantVector</text></a><!--class Ui.Erosion_Scroll--><a target="_top" xlink:actuate="onRequest" xlink:href="classUi_1_1Erosion_Scroll.html" xlink:show="new" xlink:title="classUi_1_1Erosion_Scroll.html" xlink:type="simple"><rect fill="#FEFECE" filter="url(#f1j8yzzsmzdmk8)" height="37.9375" id="Ui.Erosion_Scroll" style="stroke: #A80036; stroke-width: 1.5;" width="119" x="1302.5" y="319"/><ellipse cx="1317.5" cy="337.9688" fill="#27940B" rx="11" ry="11" style="stroke: #A80036; stroke-width: 1.0;"/><path d="M1313.375,339.8906 L1313.375,332.0781 L1315.8281,332.0781 L1315.8281,340.5156 Q1315.8281,341.4375 1316.2969,341.9688 Q1316.7813,342.5 1317.6094,342.5 Q1318.4531,342.5 1318.9219,341.9688 Q1319.3906,341.4375 1319.3906,340.5156 L1319.3906,332.0781 L1321.8438,332.0781 L1321.8438,339.8906 Q1321.8438,342.4219 1320.8438,343.5625 Q1319.8438,344.7031 1317.6094,344.7031 Q1315.3906,344.7031 1314.375,343.5625 Q1313.375,342.4219 1313.375,339.8906 Z "/><text fill="#000000" font-family="sans-serif" font-size="12" font-style="italic" lengthAdjust="spacingAndGlyphs" textLength="27" x="1361.5" y="335.1387">«UI»</text><text fill="#000000" font-family="sans-serif" font-size="12" lengthAdjust="spacingAndGlyphs" textLength="87" x="1331.5" y="349.1074">Erosion_Scroll</text></a><!--class Ui.Erosion--><a target="_top" xlink:actuate="onRequest" xlink:href="classUi_1_1Erosion.html" xlink:show="new" xlink:title="classUi_1_1Erosion.html" xlink:type="simple"><rect fill="#FEFECE" filter="url(#f1j8yzzsmzdmk8)" height="37.9375" id="Ui.Erosion" style="stroke: #A80036; stroke-width: 1.5;" width="79" x="1456.5" y="319"/><ellipse cx="1471.5" cy="337.9688" fill="#27940B" rx="11" ry="11" style="stroke: #A80036; stroke-width: 1.0;"/><path d="M1467.375,339.8906 L1467.375,332.0781 L1469.8281,332.0781 L1469.8281,340.5156 Q1469.8281,341.4375 1470.2969,341.9688 Q1470.7813,342.5 1471.6094,342.5 Q1472.4531,342.5 1472.9219,341.9688 Q1473.3906,341.4375 1473.3906,340.5156 L1473.3906,332.0781 L1475.8438,332.0781 L1475.8438,339.8906 Q1475.8438,342.4219 1474.8438,343.5625 Q1473.8438,344.7031 1471.6094,344.7031 Q1469.3906,344.7031 1468.375,343.5625 Q1467.375,342.4219 1467.375,339.8906 Z "/><text fill="#000000" font-family="sans-serif" font-size="12" font-style="italic" lengthAdjust="spacingAndGlyphs" textLength="27" x="1495.5" y="335.1387">«UI»</text><text fill="#000000" font-family="sans-serif" font-size="12" lengthAdjust="spacingAndGlyphs" textLength="47" x="1485.5" y="349.1074">Erosion</text></a><!--class Ui.InputTextureNode--><a target="_top" xlink:actuate="onRequest" xlink:href="classUi_1_1InputTextureNode.html" xlink:show="new" xlink:title="classUi_1_1InputTextureNode.html" xlink:type="simple"><rect fill="#FEFECE" filter="url(#f1j8yzzsmzdmk8)" height="37.9375" id="Ui.InputTextureNode" style="stroke: #A80036; stroke-width: 1.5;" width="144" x="2674" y="319"/><ellipse cx="2689" cy="337.9688" fill="#27940B" rx="11" ry="11" style="stroke: #A80036; stroke-width: 1.0;"/><path d="M2684.875,339.8906 L2684.875,332.0781 L2687.3281,332.0781 L2687.3281,340.5156 Q2687.3281,341.4375 2687.7969,341.9688 Q2688.2813,342.5 2689.1094,342.5 Q2689.9531,342.5 2690.4219,341.9688 Q2690.8906,341.4375 2690.8906,340.5156 L2690.8906,332.0781 L2693.3438,332.0781 L2693.3438,339.8906 Q2693.3438,342.4219 2692.3438,343.5625 Q2691.3438,344.7031 2689.1094,344.7031 Q2686.8906,344.7031 2685.875,343.5625 Q2684.875,342.4219 2684.875,339.8906 Z "/><text fill="#000000" font-family="sans-serif" font-size="12" font-style="italic" lengthAdjust="spacingAndGlyphs" textLength="27" x="2745.5" y="335.1387">«UI»</text><text fill="#000000" font-family="sans-serif" font-size="12" lengthAdjust="spacingAndGlyphs" textLength="112" x="2703" y="349.1074">InputTextureNode</text></a><!--class Ui.MathNode--><a target="_top" xlink:actuate="onRequest" xlink:href="classUi_1_1MathNode.html" xlink:show="new" xlink:title="classUi_1_1MathNode.html" xlink:type="simple"><rect fill="#FEFECE" filter="url(#f1j8yzzsmzdmk8)" height="37.9375" id="Ui.MathNode" style="stroke: #A80036; stroke-width: 1.5;" width="96" x="1571" y="319"/><ellipse cx="1586" cy="337.9688" fill="#27940B" rx="11" ry="11" style="stroke: #A80036; stroke-width: 1.0;"/><path d="M1581.875,339.8906 L1581.875,332.0781 L1584.3281,332.0781 L1584.3281,340.5156 Q1584.3281,341.4375 1584.7969,341.9688 Q1585.2813,342.5 1586.1094,342.5 Q1586.9531,342.5 1587.4219,341.9688 Q1587.8906,341.4375 1587.8906,340.5156 L1587.8906,332.0781 L1590.3438,332.0781 L1590.3438,339.8906 Q1590.3438,342.4219 1589.3438,343.5625 Q1588.3438,344.7031 1586.1094,344.7031 Q1583.8906,344.7031 1582.875,343.5625 Q1581.875,342.4219 1581.875,339.8906 Z "/><text fill="#000000" font-family="sans-serif" font-size="12" font-style="italic" lengthAdjust="spacingAndGlyphs" textLength="27" x="1618.5" y="335.1387">«UI»</text><text fill="#000000" font-family="sans-serif" font-size="12" lengthAdjust="spacingAndGlyphs" textLength="64" x="1600" y="349.1074">MathNode</text></a><!--class Ui.NewTextureDialogue--><a target="_top" xlink:actuate="onRequest" xlink:href="classUi_1_1NewTextureDialogue.html" xlink:show="new" xlink:title="classUi_1_1NewTextureDialogue.html" xlink:type="simple"><rect fill="#FEFECE" filter="url(#f1j8yzzsmzdmk8)" height="37.9375" id="Ui.NewTextureDialogue" style="stroke: #A80036; stroke-width: 1.5;" width="160" x="2853" y="319"/><ellipse cx="2868" cy="337.9688" fill="#27940B" rx="11" ry="11" style="stroke: #A80036; stroke-width: 1.0;"/><path d="M2863.875,339.8906 L2863.875,332.0781 L2866.3281,332.0781 L2866.3281,340.5156 Q2866.3281,341.4375 2866.7969,341.9688 Q2867.2813,342.5 2868.1094,342.5 Q2868.9531,342.5 2869.4219,341.9688 Q2869.8906,341.4375 2869.8906,340.5156 L2869.8906,332.0781 L2872.3438,332.0781 L2872.3438,339.8906 Q2872.3438,342.4219 2871.3438,343.5625 Q2870.3438,344.7031 2868.1094,344.7031 Q2865.8906,344.7031 2864.875,343.5625 Q2863.875,342.4219 2863.875,339.8906 Z "/><text fill="#000000" font-family="sans-serif" font-size="12" font-style="italic" lengthAdjust="spacingAndGlyphs" textLength="27" x="2932.5" y="335.1387">«UI»</text><text fill="#000000" font-family="sans-serif" font-size="12" lengthAdjust="spacingAndGlyphs" textLength="128" x="2882" y="349.1074">NewTextureDialogue</text></a><!--class Ui.Output--><a target="_top" xlink:actuate="onRequest" xlink:href="classUi_1_1Output.html" xlink:show="new" xlink:title="classUi_1_1Output.html" xlink:type="simple"><rect fill="#FEFECE" filter="url(#f1j8yzzsmzdmk8)" height="37.9375" id="Ui.Output" style="stroke: #A80036; stroke-width: 1.5;" width="75" x="868.5" y="319"/><ellipse cx="883.5" cy="337.9688" fill="#27940B" rx="11" ry="11" style="stroke: #A80036; stroke-width: 1.0;"/><path d="M879.375,339.8906 L879.375,332.0781 L881.8281,332.0781 L881.8281,340.5156 Q881.8281,341.4375 882.2969,341.9688 Q882.7813,342.5 883.6094,342.5 Q884.4531,342.5 884.9219,341.9688 Q885.3906,341.4375 885.3906,340.5156 L885.3906,332.0781 L887.8438,332.0781 L887.8438,339.8906 Q887.8438,342.4219 886.8438,343.5625 Q885.8438,344.7031 883.6094,344.7031 Q881.3906,344.7031 880.375,343.5625 Q879.375,342.4219 879.375,339.8906 Z "/><text fill="#000000" font-family="sans-serif" font-size="12" font-style="italic" lengthAdjust="spacingAndGlyphs" textLength="27" x="905.5" y="335.1387">«UI»</text><text fill="#000000" font-family="sans-serif" font-size="12" lengthAdjust="spacingAndGlyphs" textLength="43" x="897.5" y="349.1074">Output</text></a><!--class Ui.SimplexNoiseNode_no_scroll--><a target="_top" xlink:actuate="onRequest" xlink:href="classUi_1_1SimplexNoiseNode_no_scroll.html" xlink:show="new" xlink:title="classUi_1_1SimplexNoiseNode_no_scroll.html" xlink:type="simple"><rect fill="#FEFECE" filter="url(#f1j8yzzsmzdmk8)" height="37.9375" id="Ui.SimplexNoiseNode_no_scroll" style="stroke: #A80036; stroke-width: 1.5;" width="208" x="2248" y="319"/><ellipse cx="2263" cy="337.9688" fill="#27940B" rx="11" ry="11" style="stroke: #A80036; stroke-width: 1.0;"/><path d="M2258.875,339.8906 L2258.875,332.0781 L2261.3281,332.0781 L2261.3281,340.5156 Q2261.3281,341.4375 2261.7969,341.9688 Q2262.2813,342.5 2263.1094,342.5 Q2263.9531,342.5 2264.4219,341.9688 Q2264.8906,341.4375 2264.8906,340.5156 L2264.8906,332.0781 L2267.3438,332.0781 L2267.3438,339.8906 Q2267.3438,342.4219 2266.3438,343.5625 Q2265.3438,344.7031 2263.1094,344.7031 Q2260.8906,344.7031 2259.875,343.5625 Q2258.875,342.4219 2258.875,339.8906 Z "/><text fill="#000000" font-family="sans-serif" font-size="12" font-style="italic" lengthAdjust="spacingAndGlyphs" textLength="27" x="2351.5" y="335.1387">«UI»</text><text fill="#000000" font-family="sans-serif" font-size="12" lengthAdjust="spacingAndGlyphs" textLength="176" x="2277" y="349.1074">SimplexNoiseNode_no_scroll</text></a><!--class Ui.SimplexNoiseNode--><a target="_top" xlink:actuate="onRequest" xlink:href="classUi_1_1SimplexNoiseNode.html" xlink:show="new" xlink:title="classUi_1_1SimplexNoiseNode.html" xlink:type="simple"><rect fill="#FEFECE" filter="url(#f1j8yzzsmzdmk8)" height="37.9375" id="Ui.SimplexNoiseNode" style="stroke: #A80036; stroke-width: 1.5;" width="147" x="2491.5" y="319"/><ellipse cx="2506.5" cy="337.9688" fill="#27940B" rx="11" ry="11" style="stroke: #A80036; stroke-width: 1.0;"/><path d="M2502.375,339.8906 L2502.375,332.0781 L2504.8281,332.0781 L2504.8281,340.5156 Q2504.8281,341.4375 2505.2969,341.9688 Q2505.7813,342.5 2506.6094,342.5 Q2507.4531,342.5 2507.9219,341.9688 Q2508.3906,341.4375 2508.3906,340.5156 L2508.3906,332.0781 L2510.8438,332.0781 L2510.8438,339.8906 Q2510.8438,342.4219 2509.8438,343.5625 Q2508.8438,344.7031 2506.6094,344.7031 Q2504.3906,344.7031 2503.375,343.5625 Q2502.375,342.4219 2502.375,339.8906 Z "/><text fill="#000000" font-family="sans-serif" font-size="12" font-style="italic" lengthAdjust="spacingAndGlyphs" textLength="27" x="2564.5" y="335.1387">«UI»</text><text fill="#000000" font-family="sans-serif" font-size="12" lengthAdjust="spacingAndGlyphs" textLength="115" x="2520.5" y="349.1074">SimplexNoiseNode</text></a><!--class Ui.VectorDotProduct--><a target="_top" xlink:actuate="onRequest" xlink:href="classUi_1_1VectorDotProduct.html" xlink:show="new" xlink:title="classUi_1_1VectorDotProduct.html" xlink:type="simple"><rect fill="#FEFECE" filter="url(#f1j8yzzsmzdmk8)" height="37.9375" id="Ui.VectorDotProduct" style="stroke: #A80036; stroke-width: 1.5;" width="144" x="1702" y="319"/><ellipse cx="1717" cy="337.9688" fill="#27940B" rx="11" ry="11" style="stroke: #A80036; stroke-width: 1.0;"/><path d="M1712.875,339.8906 L1712.875,332.0781 L1715.3281,332.0781 L1715.3281,340.5156 Q1715.3281,341.4375 1715.7969,341.9688 Q1716.2813,342.5 1717.1094,342.5 Q1717.9531,342.5 1718.4219,341.9688 Q1718.8906,341.4375 1718.8906,340.5156 L1718.8906,332.0781 L1721.3438,332.0781 L1721.3438,339.8906 Q1721.3438,342.4219 1720.3438,343.5625 Q1719.3438,344.7031 1717.1094,344.7031 Q1714.8906,344.7031 1713.875,343.5625 Q1712.875,342.4219 1712.875,339.8906 Z "/><text fill="#000000" font-family="sans-serif" font-size="12" font-style="italic" lengthAdjust="spacingAndGlyphs" textLength="27" x="1773.5" y="335.1387">«UI»</text><text fill="#000000" font-family="sans-serif" font-size="12" lengthAdjust="spacingAndGlyphs" textLength="112" x="1731" y="349.1074">VectorDotProduct</text></a><!--class Ui.VectorIntensityNode--><a target="_top" xlink:actuate="onRequest" xlink:href="classUi_1_1VectorIntensityNode.html" xlink:show="new" xlink:title="classUi_1_1VectorIntensityNode.html" xlink:type="simple"><rect fill="#FEFECE" filter="url(#f1j8yzzsmzdmk8)" height="37.9375" id="Ui.VectorIntensityNode" style="stroke: #A80036; stroke-width: 1.5;" width="159" x="1881.5" y="319"/><ellipse cx="1896.5" cy="337.9688" fill="#27940B" rx="11" ry="11" style="stroke: #A80036; stroke-width: 1.0;"/><path d="M1892.375,339.8906 L1892.375,332.0781 L1894.8281,332.0781 L1894.8281,340.5156 Q1894.8281,341.4375 1895.2969,341.9688 Q1895.7813,342.5 1896.6094,342.5 Q1897.4531,342.5 1897.9219,341.9688 Q1898.3906,341.4375 1898.3906,340.5156 L1898.3906,332.0781 L1900.8438,332.0781 L1900.8438,339.8906 Q1900.8438,342.4219 1899.8438,343.5625 Q1898.8438,344.7031 1896.6094,344.7031 Q1894.3906,344.7031 1893.375,343.5625 Q1892.375,342.4219 1892.375,339.8906 Z "/><text fill="#000000" font-family="sans-serif" font-size="12" font-style="italic" lengthAdjust="spacingAndGlyphs" textLength="27" x="1960.5" y="335.1387">«UI»</text><text fill="#000000" font-family="sans-serif" font-size="12" lengthAdjust="spacingAndGlyphs" textLength="127" x="1910.5" y="349.1074">VectorIntensityNode</text></a><!--class Ui.VectorMathNode--><a target="_top" xlink:actuate="onRequest" xlink:href="classUi_1_1VectorMathNode.html" xlink:show="new" xlink:title="classUi_1_1VectorMathNode.html" xlink:type="simple"><rect fill="#FEFECE" filter="url(#f1j8yzzsmzdmk8)" height="37.9375" id="Ui.VectorMathNode" style="stroke: #A80036; stroke-width: 1.5;" width="137" x="2075.5" y="319"/><ellipse cx="2090.5" cy="337.9688" fill="#27940B" rx="11" ry="11" style="stroke: #A80036; stroke-width: 1.0;"/><path d="M2086.375,339.8906 L2086.375,332.0781 L2088.8281,332.0781 L2088.8281,340.5156 Q2088.8281,341.4375 2089.2969,341.9688 Q2089.7813,342.5 2090.6094,342.5 Q2091.4531,342.5 2091.9219,341.9688 Q2092.3906,341.4375 2092.3906,340.5156 L2092.3906,332.0781 L2094.8438,332.0781 L2094.8438,339.8906 Q2094.8438,342.4219 2093.8438,343.5625 Q2092.8438,344.7031 2090.6094,344.7031 Q2088.3906,344.7031 2087.375,343.5625 Q2086.375,342.4219 2086.375,339.8906 Z "/><text fill="#000000" font-family="sans-serif" font-size="12" font-style="italic" lengthAdjust="spacingAndGlyphs" textLength="27" x="2143.5" y="335.1387">«UI»</text><text fill="#000000" font-family="sans-serif" font-size="12" lengthAdjust="spacingAndGlyphs" textLength="105" x="2104.5" y="349.1074">VectorMathNode</text></a><!--class QtNodes.NodeDataModel--><a target="_top" xlink:actuate="onRequest" xlink:href="https://github.com/paceholder/nodeeditor/blob/master/include/nodes/internal/NodeDataModel.hpp" xlink:show="new" xlink:title="https://github.com/paceholder/nodeeditor/blob/master/include/nodes/internal/NodeDataModel.hpp" xlink:type="simple"><rect fill="#FEFECE" filter="url(#f1j8yzzsmzdmk8)" height="32" id="QtNodes.NodeDataModel" style="stroke: #A80036; stroke-width: 1.5;" width="132" x="1619" y="43"/><ellipse cx="1634" cy="59" fill="#ADD1B2" rx="11" ry="11" style="stroke: #A80036; stroke-width: 1.0;"/><path d="M1636.9688,64.6406 Q1636.3906,64.9375 1635.75,65.0781 Q1635.1094,65.2344 1634.4063,65.2344 Q1631.9063,65.2344 1630.5781,63.5938 Q1629.2656,61.9375 1629.2656,58.8125 Q1629.2656,55.6875 1630.5781,54.0313 Q1631.9063,52.375 1634.4063,52.375 Q1635.1094,52.375 1635.75,52.5313 Q1636.4063,52.6875 1636.9688,52.9844 L1636.9688,55.7031 Q1636.3438,55.125 1635.75,54.8594 Q1635.1563,54.5781 1634.5313,54.5781 Q1633.1875,54.5781 1632.5,55.6563 Q1631.8125,56.7188 1631.8125,58.8125 Q1631.8125,60.9063 1632.5,61.9844 Q1633.1875,63.0469 1634.5313,63.0469 Q1635.1563,63.0469 1635.75,62.7813 Q1636.3438,62.5 1636.9688,61.9219 L1636.9688,64.6406 Z "/><text fill="#000000" font-family="sans-serif" font-size="12" lengthAdjust="spacingAndGlyphs" textLength="100" x="1648" y="63.1543">NodeDataModel</text></a><!--class Node--><a target="_top" xlink:actuate="onRequest" xlink:href="classNode.html" xlink:show="new" xlink:title="classNode.html" xlink:type="simple"><rect fill="#FEFECE" filter="url(#f1j8yzzsmzdmk8)" height="32" id="Node" style="stroke: #A80036; stroke-width: 1.5;" width="65" x="1652.5" y="135"/><ellipse cx="1667.5" cy="151" fill="#ADD1B2" rx="11" ry="11" style="stroke: #A80036; stroke-width: 1.0;"/><path d="M1670.4688,156.6406 Q1669.8906,156.9375 1669.25,157.0781 Q1668.6094,157.2344 1667.9063,157.2344 Q1665.4063,157.2344 1664.0781,155.5938 Q1662.7656,153.9375 1662.7656,150.8125 Q1662.7656,147.6875 1664.0781,146.0313 Q1665.4063,144.375 1667.9063,144.375 Q1668.6094,144.375 1669.25,144.5313 Q1669.9063,144.6875 1670.4688,144.9844 L1670.4688,147.7031 Q1669.8438,147.125 1669.25,146.8594 Q1668.6563,146.5781 1668.0313,146.5781 Q1666.6875,146.5781 1666,147.6563 Q1665.3125,148.7188 1665.3125,150.8125 Q1665.3125,152.9063 1666,153.9844 Q1666.6875,155.0469 1668.0313,155.0469 Q1668.6563,155.0469 1669.25,154.7813 Q1669.8438,154.5 1670.4688,153.9219 L1670.4688,156.6406 Z "/><text fill="#000000" font-family="sans-serif" font-size="12" lengthAdjust="spacingAndGlyphs" textLength="33" x="1681.5" y="155.1543">Node</text></a><!--class OutputNode--><a target="_top" xlink:actuate="onRequest" xlink:href="classOutputNode.html" xlink:show="new" xlink:title="classOutputNode.html" xlink:type="simple"><rect fill="#FEFECE" filter="url(#f1j8yzzsmzdmk8)" height="32" id="OutputNode" style="stroke: #A80036; stroke-width: 1.5;" width="108" x="6" y="227"/><ellipse cx="21" cy="243" fill="#ADD1B2" rx="11" ry="11" style="stroke: #A80036; stroke-width: 1.0;"/><path d="M23.9688,248.6406 Q23.3906,248.9375 22.75,249.0781 Q22.1094,249.2344 21.4063,249.2344 Q18.9063,249.2344 17.5781,247.5938 Q16.2656,245.9375 16.2656,242.8125 Q16.2656,239.6875 17.5781,238.0313 Q18.9063,236.375 21.4063,236.375 Q22.1094,236.375 22.75,236.5313 Q23.4063,236.6875 23.9688,236.9844 L23.9688,239.7031 Q23.3438,239.125 22.75,238.8594 Q22.1563,238.5781 21.5313,238.5781 Q20.1875,238.5781 19.5,239.6563 Q18.8125,240.7188 18.8125,242.8125 Q18.8125,244.9063 19.5,245.9844 Q20.1875,247.0469 21.5313,247.0469 Q22.1563,247.0469 22.75,246.7813 Q23.3438,246.5 23.9688,245.9219 L23.9688,248.6406 Z "/><text fill="#000000" font-family="sans-serif" font-size="12" lengthAdjust="spacingAndGlyphs" textLength="76" x="35" y="247.1543">OutputNode</text></a><!--class ConverterBezierCurveNode--><a target="_top" xlink:actuate="onRequest" xlink:href="classConverterBezierCurveNode.html" xlink:show="new" xlink:title="classConverterBezierCurveNode.html" xlink:type="simple"><rect fill="#FEFECE" filter="url(#f1j8yzzsmzdmk8)" height="32" id="ConverterBezierCurveNode" style="stroke: #A80036; stroke-width: 1.5;" width="198" x="149" y="227"/><ellipse cx="164" cy="243" fill="#ADD1B2" rx="11" ry="11" style="stroke: #A80036; stroke-width: 1.0;"/><path d="M166.9688,248.6406 Q166.3906,248.9375 165.75,249.0781 Q165.1094,249.2344 164.4063,249.2344 Q161.9063,249.2344 160.5781,247.5938 Q159.2656,245.9375 159.2656,242.8125 Q159.2656,239.6875 160.5781,238.0313 Q161.9063,236.375 164.4063,236.375 Q165.1094,236.375 165.75,236.5313 Q166.4063,236.6875 166.9688,236.9844 L166.9688,239.7031 Q166.3438,239.125 165.75,238.8594 Q165.1563,238.5781 164.5313,238.5781 Q163.1875,238.5781 162.5,239.6563 Q161.8125,240.7188 161.8125,242.8125 Q161.8125,244.9063 162.5,245.9844 Q163.1875,247.0469 164.5313,247.0469 Q165.1563,247.0469 165.75,246.7813 Q166.3438,246.5 166.9688,245.9219 L166.9688,248.6406 Z "/><text fill="#000000" font-family="sans-serif" font-size="12" lengthAdjust="spacingAndGlyphs" textLength="166" x="178" y="247.1543">ConverterBezierCurveNode</text></a><!--class ConverterClampNode--><a target="_top" xlink:actuate="onRequest" xlink:href="classConverterClampNode.html" xlink:show="new" xlink:title="classConverterClampNode.html" xlink:type="simple"><rect fill="#FEFECE" filter="url(#f1j8yzzsmzdmk8)" height="32" id="ConverterClampNode" style="stroke: #A80036; stroke-width: 1.5;" width="164" x="382" y="227"/><ellipse cx="397" cy="243" fill="#ADD1B2" rx="11" ry="11" style="stroke: #A80036; stroke-width: 1.0;"/><path d="M399.9688,248.6406 Q399.3906,248.9375 398.75,249.0781 Q398.1094,249.2344 397.4063,249.2344 Q394.9063,249.2344 393.5781,247.5938 Q392.2656,245.9375 392.2656,242.8125 Q392.2656,239.6875 393.5781,238.0313 Q394.9063,236.375 397.4063,236.375 Q398.1094,236.375 398.75,236.5313 Q399.4063,236.6875 399.9688,236.9844 L399.9688,239.7031 Q399.3438,239.125 398.75,238.8594 Q398.1563,238.5781 397.5313,238.5781 Q396.1875,238.5781 395.5,239.6563 Q394.8125,240.7188 394.8125,242.8125 Q394.8125,244.9063 395.5,245.9844 Q396.1875,247.0469 397.5313,247.0469 Q398.1563,247.0469 398.75,246.7813 Q399.3438,246.5 399.9688,245.9219 L399.9688,248.6406 Z "/><text fill="#000000" font-family="sans-serif" font-size="12" lengthAdjust="spacingAndGlyphs" textLength="132" x="411" y="247.1543">ConverterClampNode</text></a><!--class ConverterColorCombineNode--><a target="_top" xlink:actuate="onRequest" xlink:href="classConverterColorCombineNode.html" xlink:show="new" xlink:title="classConverterColorCombineNode.html" xlink:type="simple"><rect fill="#FEFECE" filter="url(#f1j8yzzsmzdmk8)" height="32" id="ConverterColorCombineNode" style="stroke: #A80036; stroke-width: 1.5;" width="212" x="581" y="227"/><ellipse cx="596" cy="243" fill="#ADD1B2" rx="11" ry="11" style="stroke: #A80036; stroke-width: 1.0;"/><path d="M598.9688,248.6406 Q598.3906,248.9375 597.75,249.0781 Q597.1094,249.2344 596.4063,249.2344 Q593.9063,249.2344 592.5781,247.5938 Q591.2656,245.9375 591.2656,242.8125 Q591.2656,239.6875 592.5781,238.0313 Q593.9063,236.375 596.4063,236.375 Q597.1094,236.375 597.75,236.5313 Q598.4063,236.6875 598.9688,236.9844 L598.9688,239.7031 Q598.3438,239.125 597.75,238.8594 Q597.1563,238.5781 596.5313,238.5781 Q595.1875,238.5781 594.5,239.6563 Q593.8125,240.7188 593.8125,242.8125 Q593.8125,244.9063 594.5,245.9844 Q595.1875,247.0469 596.5313,247.0469 Q597.1563,247.0469 597.75,246.7813 Q598.3438,246.5 598.9688,245.9219 L598.9688,248.6406 Z "/><text fill="#000000" font-family="sans-serif" font-size="12" lengthAdjust="spacingAndGlyphs" textLength="180" x="610" y="247.1543">ConverterColorCombineNode</text></a><!--class ConverterColorSplitNode--><a target="_top" xlink:actuate="onRequest" xlink:href="classConverterColorSplitNode.html" xlink:show="new" xlink:title="classConverterColorSplitNode.html" xlink:type="simple"><rect fill="#FEFECE" filter="url(#f1j8yzzsmzdmk8)" height="32" id="ConverterColorSplitNode" style="stroke: #A80036; stroke-width: 1.5;" width="185" x="828.5" y="227"/><ellipse cx="843.5" cy="243" fill="#ADD1B2" rx="11" ry="11" style="stroke: #A80036; stroke-width: 1.0;"/><path d="M846.4688,248.6406 Q845.8906,248.9375 845.25,249.0781 Q844.6094,249.2344 843.9063,249.2344 Q841.4063,249.2344 840.0781,247.5938 Q838.7656,245.9375 838.7656,242.8125 Q838.7656,239.6875 840.0781,238.0313 Q841.4063,236.375 843.9063,236.375 Q844.6094,236.375 845.25,236.5313 Q845.9063,236.6875 846.4688,236.9844 L846.4688,239.7031 Q845.8438,239.125 845.25,238.8594 Q844.6563,238.5781 844.0313,238.5781 Q842.6875,238.5781 842,239.6563 Q841.3125,240.7188 841.3125,242.8125 Q841.3125,244.9063 842,245.9844 Q842.6875,247.0469 844.0313,247.0469 Q844.6563,247.0469 845.25,246.7813 Q845.8438,246.5 846.4688,245.9219 L846.4688,248.6406 Z "/><text fill="#000000" font-family="sans-serif" font-size="12" lengthAdjust="spacingAndGlyphs" textLength="153" x="857.5" y="247.1543">ConverterColorSplitNode</text></a><!--class ConverterErosionNode--><a target="_top" xlink:actuate="onRequest" xlink:href="classConverterErosionNode.html" xlink:show="new" xlink:title="classConverterErosionNode.html" xlink:type="simple"><rect fill="#FEFECE" filter="url(#f1j8yzzsmzdmk8)" height="32" id="ConverterErosionNode" style="stroke: #A80036; stroke-width: 1.5;" width="173" x="1048.5" y="227"/><ellipse cx="1063.5" cy="243" fill="#ADD1B2" rx="11" ry="11" style="stroke: #A80036; stroke-width: 1.0;"/><path d="M1066.4688,248.6406 Q1065.8906,248.9375 1065.25,249.0781 Q1064.6094,249.2344 1063.9063,249.2344 Q1061.4063,249.2344 1060.0781,247.5938 Q1058.7656,245.9375 1058.7656,242.8125 Q1058.7656,239.6875 1060.0781,238.0313 Q1061.4063,236.375 1063.9063,236.375 Q1064.6094,236.375 1065.25,236.5313 Q1065.9063,236.6875 1066.4688,236.9844 L1066.4688,239.7031 Q1065.8438,239.125 1065.25,238.8594 Q1064.6563,238.5781 1064.0313,238.5781 Q1062.6875,238.5781 1062,239.6563 Q1061.3125,240.7188 1061.3125,242.8125 Q1061.3125,244.9063 1062,245.9844 Q1062.6875,247.0469 1064.0313,247.0469 Q1064.6563,247.0469 1065.25,246.7813 Q1065.8438,246.5 1066.4688,245.9219 L1066.4688,248.6406 Z "/><text fill="#000000" font-family="sans-serif" font-size="12" lengthAdjust="spacingAndGlyphs" textLength="141" x="1077.5" y="247.1543">ConverterErosionNode</text></a><!--class ConverterInvertIntensityNode--><a target="_top" xlink:actuate="onRequest" xlink:href="classConverterInvertIntensityNode.html" xlink:show="new" xlink:title="classConverterInvertIntensityNode.html" xlink:type="simple"><rect fill="#FEFECE" filter="url(#f1j8yzzsmzdmk8)" height="32" id="ConverterInvertIntensityNode" style="stroke: #A80036; stroke-width: 1.5;" width="214" x="1257" y="227"/><ellipse cx="1272" cy="243" fill="#ADD1B2" rx="11" ry="11" style="stroke: #A80036; stroke-width: 1.0;"/><path d="M1274.9688,248.6406 Q1274.3906,248.9375 1273.75,249.0781 Q1273.1094,249.2344 1272.4063,249.2344 Q1269.9063,249.2344 1268.5781,247.5938 Q1267.2656,245.9375 1267.2656,242.8125 Q1267.2656,239.6875 1268.5781,238.0313 Q1269.9063,236.375 1272.4063,236.375 Q1273.1094,236.375 1273.75,236.5313 Q1274.4063,236.6875 1274.9688,236.9844 L1274.9688,239.7031 Q1274.3438,239.125 1273.75,238.8594 Q1273.1563,238.5781 1272.5313,238.5781 Q1271.1875,238.5781 1270.5,239.6563 Q1269.8125,240.7188 1269.8125,242.8125 Q1269.8125,244.9063 1270.5,245.9844 Q1271.1875,247.0469 1272.5313,247.0469 Q1273.1563,247.0469 1273.75,246.7813 Q1274.3438,246.5 1274.9688,245.9219 L1274.9688,248.6406 Z "/><text fill="#000000" font-family="sans-serif" font-size="12" lengthAdjust="spacingAndGlyphs" textLength="182" x="1286" y="247.1543">ConverterInvertIntensityNode</text></a><!--class ConverterMathNode--><a target="_top" xlink:actuate="onRequest" xlink:href="classConverterMathNode.html" xlink:show="new" xlink:title="classConverterMathNode.html" xlink:type="simple"><rect fill="#FEFECE" filter="url(#f1j8yzzsmzdmk8)" height="32" id="ConverterMathNode" style="stroke: #A80036; stroke-width: 1.5;" width="157" x="1506.5" y="227"/><ellipse cx="1521.5" cy="243" fill="#ADD1B2" rx="11" ry="11" style="stroke: #A80036; stroke-width: 1.0;"/><path d="M1524.4688,248.6406 Q1523.8906,248.9375 1523.25,249.0781 Q1522.6094,249.2344 1521.9063,249.2344 Q1519.4063,249.2344 1518.0781,247.5938 Q1516.7656,245.9375 1516.7656,242.8125 Q1516.7656,239.6875 1518.0781,238.0313 Q1519.4063,236.375 1521.9063,236.375 Q1522.6094,236.375 1523.25,236.5313 Q1523.9063,236.6875 1524.4688,236.9844 L1524.4688,239.7031 Q1523.8438,239.125 1523.25,238.8594 Q1522.6563,238.5781 1522.0313,238.5781 Q1520.6875,238.5781 1520,239.6563 Q1519.3125,240.7188 1519.3125,242.8125 Q1519.3125,244.9063 1520,245.9844 Q1520.6875,247.0469 1522.0313,247.0469 Q1522.6563,247.0469 1523.25,246.7813 Q1523.8438,246.5 1524.4688,245.9219 L1524.4688,248.6406 Z "/><text fill="#000000" font-family="sans-serif" font-size="12" lengthAdjust="spacingAndGlyphs" textLength="125" x="1535.5" y="247.1543">ConverterMathNode</text></a><!--class ConverterSmoothNode--><a target="_top" xlink:actuate="onRequest" xlink:href="classConverterSmoothNode.html" xlink:show="new" xlink:title="classConverterSmoothNode.html" xlink:type="simple"><rect fill="#FEFECE" filter="url(#f1j8yzzsmzdmk8)" height="32" id="ConverterSmoothNode" style="stroke: #A80036; stroke-width: 1.5;" width="174" x="1699" y="227"/><ellipse cx="1714" cy="243" fill="#ADD1B2" rx="11" ry="11" style="stroke: #A80036; stroke-width: 1.0;"/><path d="M1716.9688,248.6406 Q1716.3906,248.9375 1715.75,249.0781 Q1715.1094,249.2344 1714.4063,249.2344 Q1711.9063,249.2344 1710.5781,247.5938 Q1709.2656,245.9375 1709.2656,242.8125 Q1709.2656,239.6875 1710.5781,238.0313 Q1711.9063,236.375 1714.4063,236.375 Q1715.1094,236.375 1715.75,236.5313 Q1716.4063,236.6875 1716.9688,236.9844 L1716.9688,239.7031 Q1716.3438,239.125 1715.75,238.8594 Q1715.1563,238.5781 1714.5313,238.5781 Q1713.1875,238.5781 1712.5,239.6563 Q1711.8125,240.7188 1711.8125,242.8125 Q1711.8125,244.9063 1712.5,245.9844 Q1713.1875,247.0469 1714.5313,247.0469 Q1715.1563,247.0469 1715.75,246.7813 Q1716.3438,246.5 1716.9688,245.9219 L1716.9688,248.6406 Z "/><text fill="#000000" font-family="sans-serif" font-size="12" lengthAdjust="spacingAndGlyphs" textLength="142" x="1728" y="247.1543">ConverterSmoothNode</text></a><!--class ConverterVectorDotNode--><a target="_top" xlink:actuate="onRequest" xlink:href="classConverterVectorDotNode.html" xlink:show="new" xlink:title="classConverterVectorDotNode.html" xlink:type="simple"><rect fill="#FEFECE" filter="url(#f1j8yzzsmzdmk8)" height="32" id="ConverterVectorDotNode" style="stroke: #A80036; stroke-width: 1.5;" width="189" x="1908.5" y="227"/><ellipse cx="1923.5" cy="243" fill="#ADD1B2" rx="11" ry="11" style="stroke: #A80036; stroke-width: 1.0;"/><path d="M1926.4688,248.6406 Q1925.8906,248.9375 1925.25,249.0781 Q1924.6094,249.2344 1923.9063,249.2344 Q1921.4063,249.2344 1920.0781,247.5938 Q1918.7656,245.9375 1918.7656,242.8125 Q1918.7656,239.6875 1920.0781,238.0313 Q1921.4063,236.375 1923.9063,236.375 Q1924.6094,236.375 1925.25,236.5313 Q1925.9063,236.6875 1926.4688,236.9844 L1926.4688,239.7031 Q1925.8438,239.125 1925.25,238.8594 Q1924.6563,238.5781 1924.0313,238.5781 Q1922.6875,238.5781 1922,239.6563 Q1921.3125,240.7188 1921.3125,242.8125 Q1921.3125,244.9063 1922,245.9844 Q1922.6875,247.0469 1924.0313,247.0469 Q1924.6563,247.0469 1925.25,246.7813 Q1925.8438,246.5 1926.4688,245.9219 L1926.4688,248.6406 Z "/><text fill="#000000" font-family="sans-serif" font-size="12" lengthAdjust="spacingAndGlyphs" textLength="157" x="1937.5" y="247.1543">ConverterVectorDotNode</text></a><!--class ConverterVectorIntensityNode--><a target="_top" xlink:actuate="onRequest" xlink:href="classConverterVectorIntensityNode.html" xlink:show="new" xlink:title="classConverterVectorIntensityNode.html" xlink:type="simple"><rect fill="#FEFECE" filter="url(#f1j8yzzsmzdmk8)" height="32" id="ConverterVectorIntensityNode" style="stroke: #A80036; stroke-width: 1.5;" width="220" x="2133" y="227"/><ellipse cx="2148" cy="243" fill="#ADD1B2" rx="11" ry="11" style="stroke: #A80036; stroke-width: 1.0;"/><path d="M2150.9688,248.6406 Q2150.3906,248.9375 2149.75,249.0781 Q2149.1094,249.2344 2148.4063,249.2344 Q2145.9063,249.2344 2144.5781,247.5938 Q2143.2656,245.9375 2143.2656,242.8125 Q2143.2656,239.6875 2144.5781,238.0313 Q2145.9063,236.375 2148.4063,236.375 Q2149.1094,236.375 2149.75,236.5313 Q2150.4063,236.6875 2150.9688,236.9844 L2150.9688,239.7031 Q2150.3438,239.125 2149.75,238.8594 Q2149.1563,238.5781 2148.5313,238.5781 Q2147.1875,238.5781 2146.5,239.6563 Q2145.8125,240.7188 2145.8125,242.8125 Q2145.8125,244.9063 2146.5,245.9844 Q2147.1875,247.0469 2148.5313,247.0469 Q2149.1563,247.0469 2149.75,246.7813 Q2150.3438,246.5 2150.9688,245.9219 L2150.9688,248.6406 Z "/><text fill="#000000" font-family="sans-serif" font-size="12" lengthAdjust="spacingAndGlyphs" textLength="188" x="2162" y="247.1543">ConverterVectorIntensityNode</text></a><!--class ConverterVectorMathNode--><a target="_top" xlink:actuate="onRequest" xlink:href="classConverterVectorMathNode.html" xlink:show="new" xlink:title="classConverterVectorMathNode.html" xlink:type="simple"><rect fill="#FEFECE" filter="url(#f1j8yzzsmzdmk8)" height="32" id="ConverterVectorMathNode" style="stroke: #A80036; stroke-width: 1.5;" width="198" x="2388" y="227"/><ellipse cx="2403" cy="243" fill="#ADD1B2" rx="11" ry="11" style="stroke: #A80036; stroke-width: 1.0;"/><path d="M2405.9688,248.6406 Q2405.3906,248.9375 2404.75,249.0781 Q2404.1094,249.2344 2403.4063,249.2344 Q2400.9063,249.2344 2399.5781,247.5938 Q2398.2656,245.9375 2398.2656,242.8125 Q2398.2656,239.6875 2399.5781,238.0313 Q2400.9063,236.375 2403.4063,236.375 Q2404.1094,236.375 2404.75,236.5313 Q2405.4063,236.6875 2405.9688,236.9844 L2405.9688,239.7031 Q2405.3438,239.125 2404.75,238.8594 Q2404.1563,238.5781 2403.5313,238.5781 Q2402.1875,238.5781 2401.5,239.6563 Q2400.8125,240.7188 2400.8125,242.8125 Q2400.8125,244.9063 2401.5,245.9844 Q2402.1875,247.0469 2403.5313,247.0469 Q2404.1563,247.0469 2404.75,246.7813 Q2405.3438,246.5 2405.9688,245.9219 L2405.9688,248.6406 Z "/><text fill="#000000" font-family="sans-serif" font-size="12" lengthAdjust="spacingAndGlyphs" textLength="166" x="2417" y="247.1543">ConverterVectorMathNode</text></a><!--class InputSimplexNoiseNode--><a target="_top" xlink:actuate="onRequest" xlink:href="classInputSimplexNoiseNode.html" xlink:show="new" xlink:title="classInputSimplexNoiseNode.html" xlink:type="simple"><rect fill="#FEFECE" filter="url(#f1j8yzzsmzdmk8)" height="32" id="InputSimplexNoiseNode" style="stroke: #A80036; stroke-width: 1.5;" width="179" x="2621.5" y="227"/><ellipse cx="2636.5" cy="243" fill="#ADD1B2" rx="11" ry="11" style="stroke: #A80036; stroke-width: 1.0;"/><path d="M2639.4688,248.6406 Q2638.8906,248.9375 2638.25,249.0781 Q2637.6094,249.2344 2636.9063,249.2344 Q2634.4063,249.2344 2633.0781,247.5938 Q2631.7656,245.9375 2631.7656,242.8125 Q2631.7656,239.6875 2633.0781,238.0313 Q2634.4063,236.375 2636.9063,236.375 Q2637.6094,236.375 2638.25,236.5313 Q2638.9063,236.6875 2639.4688,236.9844 L2639.4688,239.7031 Q2638.8438,239.125 2638.25,238.8594 Q2637.6563,238.5781 2637.0313,238.5781 Q2635.6875,238.5781 2635,239.6563 Q2634.3125,240.7188 2634.3125,242.8125 Q2634.3125,244.9063 2635,245.9844 Q2635.6875,247.0469 2637.0313,247.0469 Q2637.6563,247.0469 2638.25,246.7813 Q2638.8438,246.5 2639.4688,245.9219 L2639.4688,248.6406 Z "/><text fill="#000000" font-family="sans-serif" font-size="12" lengthAdjust="spacingAndGlyphs" textLength="147" x="2650.5" y="247.1543">InputSimplexNoiseNode</text></a><!--class InputTextureNode--><a target="_top" xlink:actuate="onRequest" xlink:href="classInputTextureNode.html" xlink:show="new" xlink:title="classInputTextureNode.html" xlink:type="simple"><rect fill="#FEFECE" filter="url(#f1j8yzzsmzdmk8)" height="32" id="InputTextureNode" style="stroke: #A80036; stroke-width: 1.5;" width="144" x="2836" y="227"/><ellipse cx="2851" cy="243" fill="#ADD1B2" rx="11" ry="11" style="stroke: #A80036; stroke-width: 1.0;"/><path d="M2853.9688,248.6406 Q2853.3906,248.9375 2852.75,249.0781 Q2852.1094,249.2344 2851.4063,249.2344 Q2848.9063,249.2344 2847.5781,247.5938 Q2846.2656,245.9375 2846.2656,242.8125 Q2846.2656,239.6875 2847.5781,238.0313 Q2848.9063,236.375 2851.4063,236.375 Q2852.1094,236.375 2852.75,236.5313 Q2853.4063,236.6875 2853.9688,236.9844 L2853.9688,239.7031 Q2853.3438,239.125 2852.75,238.8594 Q2852.1563,238.5781 2851.5313,238.5781 Q2850.1875,238.5781 2849.5,239.6563 Q2848.8125,240.7188 2848.8125,242.8125 Q2848.8125,244.9063 2849.5,245.9844 Q2850.1875,247.0469 2851.5313,247.0469 Q2852.1563,247.0469 2852.75,246.7813 Q2853.3438,246.5 2853.9688,245.9219 L2853.9688,248.6406 Z "/><text fill="#000000" font-family="sans-serif" font-size="12" lengthAdjust="spacingAndGlyphs" textLength="112" x="2865" y="247.1543">InputTextureNode</text></a><!--class InputConstantValueNode--><a target="_top" xlink:actuate="onRequest" xlink:href="classInputConstantValueNode.html" xlink:show="new" xlink:title="classInputConstantValueNode.html" xlink:type="simple"><rect fill="#FEFECE" filter="url(#f1j8yzzsmzdmk8)" height="32" id="InputConstantValueNode" style="stroke: #A80036; stroke-width: 1.5;" width="189" x="3015.5" y="227"/><ellipse cx="3030.5" cy="243" fill="#ADD1B2" rx="11" ry="11" style="stroke: #A80036; stroke-width: 1.0;"/><path d="M3033.4688,248.6406 Q3032.8906,248.9375 3032.25,249.0781 Q3031.6094,249.2344 3030.9063,249.2344 Q3028.4063,249.2344 3027.0781,247.5938 Q3025.7656,245.9375 3025.7656,242.8125 Q3025.7656,239.6875 3027.0781,238.0313 Q3028.4063,236.375 3030.9063,236.375 Q3031.6094,236.375 3032.25,236.5313 Q3032.9063,236.6875 3033.4688,236.9844 L3033.4688,239.7031 Q3032.8438,239.125 3032.25,238.8594 Q3031.6563,238.5781 3031.0313,238.5781 Q3029.6875,238.5781 3029,239.6563 Q3028.3125,240.7188 3028.3125,242.8125 Q3028.3125,244.9063 3029,245.9844 Q3029.6875,247.0469 3031.0313,247.0469 Q3031.6563,247.0469 3032.25,246.7813 Q3032.8438,246.5 3033.4688,245.9219 L3033.4688,248.6406 Z "/><text fill="#000000" font-family="sans-serif" font-size="12" lengthAdjust="spacingAndGlyphs" textLength="157" x="3044.5" y="247.1543">InputConstantValueNode</text></a><!--class InputConstantVectorNode--><a target="_top" xlink:actuate="onRequest" xlink:href="classInputConstantVectorNode.html" xlink:show="new" xlink:title="classInputConstantVectorNode.html" xlink:type="simple"><rect fill="#FEFECE" filter="url(#f1j8yzzsmzdmk8)" height="32" id="InputConstantVectorNode" style="stroke: #A80036; stroke-width: 1.5;" width="195" x="3239.5" y="227"/><ellipse cx="3254.5" cy="243" fill="#ADD1B2" rx="11" ry="11" style="stroke: #A80036; stroke-width: 1.0;"/><path d="M3257.4688,248.6406 Q3256.8906,248.9375 3256.25,249.0781 Q3255.6094,249.2344 3254.9063,249.2344 Q3252.4063,249.2344 3251.0781,247.5938 Q3249.7656,245.9375 3249.7656,242.8125 Q3249.7656,239.6875 3251.0781,238.0313 Q3252.4063,236.375 3254.9063,236.375 Q3255.6094,236.375 3256.25,236.5313 Q3256.9063,236.6875 3257.4688,236.9844 L3257.4688,239.7031 Q3256.8438,239.125 3256.25,238.8594 Q3255.6563,238.5781 3255.0313,238.5781 Q3253.6875,238.5781 3253,239.6563 Q3252.3125,240.7188 3252.3125,242.8125 Q3252.3125,244.9063 3253,245.9844 Q3253.6875,247.0469 3255.0313,247.0469 Q3255.6563,247.0469 3256.25,246.7813 Q3256.8438,246.5 3257.4688,245.9219 L3257.4688,248.6406 Z "/><text fill="#000000" font-family="sans-serif" font-size="12" lengthAdjust="spacingAndGlyphs" textLength="163" x="3268.5" y="247.1543">InputConstantVectorNode</text></a><!--link QtNodes.NodeDataModel to Node--><path d="M1685,95.0252 C1685,95.0252 1685,134.8498 1685,134.8498 " fill="none" id="QtNodes.NodeDataModel-Node" style="stroke: #A80036; stroke-width: 1.0;"/><polygon fill="none" points="1678.0001,95.0252,1685,75.0252,1692.0001,95.0251,1678.0001,95.0252" style="stroke: #A80036; stroke-width: 1.0;"/><!--link Node to OutputNode--><path d="M1632.1728,139 C1632.1728,139 60,139 60,139 C60,139 60,197.5 60,226.75 " fill="none" id="Node-OutputNode" style="stroke: #A80036; stroke-width: 1.0;"/><polygon fill="none" points="1632.1728,131.9999,1652.1728,139,1632.1728,145.9999,1632.1728,131.9999" style="stroke: #A80036; stroke-width: 1.0;"/><!--link Node to ConverterBezierCurveNode--><path d="M1632.2863,143 C1632.2863,143 248,143 248,143 C248,143 248,198.6656 248,226.9333 " fill="none" id="Node-ConverterBezierCurveNode" style="stroke: #A80036; stroke-width: 1.0;"/><polygon fill="none" points="1632.2863,135.9999,1652.2863,143,1632.2863,149.9999,1632.2863,135.9999" style="stroke: #A80036; stroke-width: 1.0;"/><!--link Node to ConverterClampNode--><path d="M1632.3412,147 C1632.3412,147 464,147 464,147 C464,147 464,199.3257 464,226.7149 " fill="none" id="Node-ConverterClampNode" style="stroke: #A80036; stroke-width: 1.0;"/><polygon fill="none" points="1632.3412,139.9999,1652.3412,147,1632.3412,153.9999,1632.3412,139.9999" style="stroke: #A80036; stroke-width: 1.0;"/><!--link Node to ConverterColorCombineNode--><path d="M1632.3622,151 C1632.3622,151 687,151 687,151 C687,151 687,200.6162 687,226.9748 " fill="none" id="Node-ConverterColorCombineNode" style="stroke: #A80036; stroke-width: 1.0;"/><polygon fill="none" points="1632.3622,143.9999,1652.3622,151,1632.3621,157.9999,1632.3622,143.9999" style="stroke: #A80036; stroke-width: 1.0;"/><!--link Node to ConverterColorSplitNode--><path d="M1632.1719,155 C1632.1719,155 921,155 921,155 C921,155 921,201.4546 921,226.8594 " fill="none" id="Node-ConverterColorSplitNode" style="stroke: #A80036; stroke-width: 1.0;"/><polygon fill="none" points="1632.1719,147.9999,1652.1719,155,1632.1718,161.9999,1632.1719,147.9999" style="stroke: #A80036; stroke-width: 1.0;"/><!--link Node to ConverterErosionNode--><path d="M1632.2421,159 C1632.2421,159 1135,159 1135,159 C1135,159 1135,202.3945 1135,226.804 " fill="none" id="Node-ConverterErosionNode" style="stroke: #A80036; stroke-width: 1.0;"/><polygon fill="none" points="1632.2421,151.9999,1652.2421,159,1632.2421,165.9999,1632.2421,151.9999" style="stroke: #A80036; stroke-width: 1.0;"/><!--link Node to ConverterInvertIntensityNode--><path d="M1632.4543,163 C1632.4543,163 1364,163 1364,163 C1364,163 1364,203.4346 1364,226.8108 " fill="none" id="Node-ConverterInvertIntensityNode" style="stroke: #A80036; stroke-width: 1.0;"/><polygon fill="none" points="1632.4543,155.9999,1652.4543,163,1632.4543,169.9999,1632.4543,155.9999" style="stroke: #A80036; stroke-width: 1.0;"/><!--link Node to ConverterMathNode--><path d="M1658,187.0252 C1658,187.0252 1658,226.8498 1658,226.8498 " fill="none" id="Node-ConverterMathNode" style="stroke: #A80036; stroke-width: 1.0;"/><polygon fill="none" points="1651.0001,187.0252,1658,167.0252,1665.0001,187.0251,1651.0001,187.0252" style="stroke: #A80036; stroke-width: 1.0;"/><!--link Node to ConverterSmoothNode--><path d="M1708.25,187.0252 C1708.25,187.0252 1708.25,226.8498 1708.25,226.8498 " fill="none" id="Node-ConverterSmoothNode" style="stroke: #A80036; stroke-width: 1.0;"/><polygon fill="none" points="1701.2501,187.0252,1708.25,167.0252,1715.2501,187.0251,1701.2501,187.0252" style="stroke: #A80036; stroke-width: 1.0;"/><!--link Node to ConverterVectorDotNode--><path d="M1737.5371,163 C1737.5371,163 2003,163 2003,163 C2003,163 2003,203.4346 2003,226.8108 " fill="none" id="Node-ConverterVectorDotNode" style="stroke: #A80036; stroke-width: 1.0;"/><polygon fill="none" points="1737.5372,169.9999,1717.5371,163,1737.5371,155.9999,1737.5372,169.9999" style="stroke: #A80036; stroke-width: 1.0;"/><!--link Node to ConverterVectorIntensityNode--><path d="M1737.8222,159 C1737.8222,159 2243,159 2243,159 C2243,159 2243,202.3945 2243,226.804 " fill="none" id="Node-ConverterVectorIntensityNode" style="stroke: #A80036; stroke-width: 1.0;"/><polygon fill="none" points="1737.8223,165.9999,1717.8222,159,1737.8222,151.9999,1737.8223,165.9999" style="stroke: #A80036; stroke-width: 1.0;"/><!--link Node to ConverterVectorMathNode--><path d="M1737.6832,155 C1737.6832,155 2487,155 2487,155 C2487,155 2487,201.4546 2487,226.8594 " fill="none" id="Node-ConverterVectorMathNode" style="stroke: #A80036; stroke-width: 1.0;"/><polygon fill="none" points="1737.6832,161.9999,1717.6832,155,1737.6831,147.9999,1737.6832,161.9999" style="stroke: #A80036; stroke-width: 1.0;"/><!--link Node to InputSimplexNoiseNode--><path d="M1737.6872,151 C1737.6872,151 2711,151 2711,151 C2711,151 2711,200.6162 2711,226.9748 " fill="none" id="Node-InputSimplexNoiseNode" style="stroke: #A80036; stroke-width: 1.0;"/><polygon fill="none" points="1737.6872,157.9999,1717.6872,151,1737.6871,143.9999,1737.6872,157.9999" style="stroke: #A80036; stroke-width: 1.0;"/><!--link Node to InputTextureNode--><path d="M1737.7123,147 C1737.7123,147 2908,147 2908,147 C2908,147 2908,199.3257 2908,226.7149 " fill="none" id="Node-InputTextureNode" style="stroke: #A80036; stroke-width: 1.0;"/><polygon fill="none" points="1737.7123,153.9999,1717.7123,147,1737.7123,139.9999,1737.7123,153.9999" style="stroke: #A80036; stroke-width: 1.0;"/><!--link Node to InputConstantValueNode--><path d="M1737.7827,143 C1737.7827,143 3110,143 3110,143 C3110,143 3110,198.6656 3110,226.9333 " fill="none" id="Node-InputConstantValueNode" style="stroke: #A80036; stroke-width: 1.0;"/><polygon fill="none" points="1737.7828,149.9999,1717.7827,143,1737.7827,135.9999,1737.7828,149.9999" style="stroke: #A80036; stroke-width: 1.0;"/><!--link Node to InputConstantVectorNode--><path d="M1737.628,139 C1737.628,139 3337,139 3337,139 C3337,139 3337,197.5 3337,226.75 " fill="none" id="Node-InputConstantVectorNode" style="stroke: #A80036; stroke-width: 1.0;"/><polygon fill="none" points="1737.628,145.9999,1717.628,139,1737.6279,131.9999,1737.628,145.9999" style="stroke: #A80036; stroke-width: 1.0;"/><!--link OutputNode to Ui.Output--><path d="M60,259.1155 C60,286.2194 60,338 60,338 C60,338 863.2817,338 863.2817,338 " fill="none" id="OutputNode-Ui.Output" style="stroke: #A80036; stroke-width: 1.0; stroke-dasharray: 7.0,7.0;"/><polygon fill="#A80036" points="868.2817,338,859.2817,334,863.2817,338,859.2817,342,868.2817,338" style="stroke: #A80036; stroke-width: 1.0;"/><!--link ConverterClampNode to Ui.ClampNode--><path d="M464,259.0034 C464,279.3867 464,312 464,312 C464,312 996,312 996,312 C996,312 996,313.8312 996,313.8312 " fill="none" id="ConverterClampNode-Ui.ClampNode" style="stroke: #A80036; stroke-width: 1.0; stroke-dasharray: 7.0,7.0;"/><polygon fill="#A80036" points="996,318.8312,1000,309.8312,996,313.8312,992,309.8312,996,318.8312" style="stroke: #A80036; stroke-width: 1.0;"/><!--link ConverterColorCombineNode to Ui.ColorCombineNode--><path d="M687,259.027 C687,277.1003 687,304 687,304 C687,304 1142.75,304 1142.75,304 C1142.75,304 1142.75,313.6164 1142.75,313.6164 " fill="none" id="ConverterColorCombineNode-Ui.ColorCombineNode" style="stroke: #A80036; stroke-width: 1.0; stroke-dasharray: 7.0,7.0;"/><polygon fill="#A80036" points="1142.75,318.6164,1146.75,309.6164,1142.75,313.6164,1138.75,309.6164,1142.75,318.6164" style="stroke: #A80036; stroke-width: 1.0;"/><!--link ConverterErosionNode to Ui.Erosion_Scroll--><path d="M1169,259.2018 C1169,275.1078 1169,297 1169,297 C1169,297 1362,297 1362,297 C1362,297 1362,313.9404 1362,313.9404 " fill="none" id="ConverterErosionNode-Ui.Erosion_Scroll" style="stroke: #A80036; stroke-width: 1.0; stroke-dasharray: 7.0,7.0;"/><polygon fill="#A80036" points="1362,318.9404,1366,309.9404,1362,313.9404,1358,309.9404,1362,318.9404" style="stroke: #A80036; stroke-width: 1.0;"/><!--link ConverterErosionNode to Ui.Erosion--><path d="M1195.25,259.1415 C1195.25,263.4829 1195.25,267 1195.25,267 C1195.25,267 1463.75,267 1463.75,267 C1463.75,267 1463.75,313.9733 1463.75,313.9733 " fill="none" id="ConverterErosionNode-Ui.Erosion" style="stroke: #A80036; stroke-width: 1.0; stroke-dasharray: 7.0,7.0;"/><polygon fill="#A80036" points="1463.75,318.9733,1467.75,309.9733,1463.75,313.9733,1459.75,309.9733,1463.75,318.9733" style="stroke: #A80036; stroke-width: 1.0;"/><!--link ConverterMathNode to Ui.MathNode--><path d="M1617.25,259.1155 C1617.25,259.1155 1617.25,313.8539 1617.25,313.8539 " fill="none" id="ConverterMathNode-Ui.MathNode" style="stroke: #A80036; stroke-width: 1.0; stroke-dasharray: 7.0,7.0;"/><polygon fill="#A80036" points="1617.25,318.8539,1621.25,309.8539,1617.25,313.8539,1613.25,309.8539,1617.25,318.8539" style="stroke: #A80036; stroke-width: 1.0;"/><!--link ConverterVectorIntensityNode to Ui.VectorIntensityNode--><path d="M2159.5,259.2263 C2159.5,266.7268 2159.5,274 2159.5,274 C2159.5,274 1974.5,274 1974.5,274 C1974.5,274 1974.5,313.7979 1974.5,313.7979 " fill="none" id="ConverterVectorIntensityNode-Ui.VectorIntensityNode" style="stroke: #A80036; stroke-width: 1.0; stroke-dasharray: 7.0,7.0;"/><polygon fill="#A80036" points="1974.5,318.7979,1978.5,309.7979,1974.5,313.7979,1970.5,309.7979,1974.5,318.7979" style="stroke: #A80036; stroke-width: 1.0;"/><!--link ConverterVectorDotNode to Ui.VectorDotProduct--><path d="M1908.3343,243 C1890.4686,243 1877.25,243 1877.25,243 C1877.25,243 1877.25,338 1877.25,338 C1877.25,338 1851.2716,338 1851.2716,338 " fill="none" id="ConverterVectorDotNode-Ui.VectorDotProduct" style="stroke: #A80036; stroke-width: 1.0; stroke-dasharray: 7.0,7.0;"/><polygon fill="#A80036" points="1846.2716,338,1855.2716,342,1851.2716,338,1855.2716,334,1846.2716,338" style="stroke: #A80036; stroke-width: 1.0;"/><!--link ConverterVectorMathNode to Ui.VectorMathNode--><path d="M2410.6667,259.3135 C2410.6667,270.0005 2410.6667,282 2410.6667,282 C2410.6667,282 2186,282 2186,282 C2186,282 2186,313.728 2186,313.728 " fill="none" id="ConverterVectorMathNode-Ui.VectorMathNode" style="stroke: #A80036; stroke-width: 1.0; stroke-dasharray: 7.0,7.0;"/><polygon fill="#A80036" points="2186,318.728,2190,309.728,2186,313.728,2182,309.728,2186,318.728" style="stroke: #A80036; stroke-width: 1.0;"/><!--link InputSimplexNoiseNode to Ui.SimplexNoiseNode--><path d="M2632.8333,259.1155 C2632.8333,259.1155 2632.8333,313.8539 2632.8333,313.8539 " fill="none" id="InputSimplexNoiseNode-Ui.SimplexNoiseNode" style="stroke: #A80036; stroke-width: 1.0; stroke-dasharray: 7.0,7.0;"/><polygon fill="#A80036" points="2632.8333,318.8539,2636.8333,309.8539,2632.8333,313.8539,2628.8333,309.8539,2632.8333,318.8539" style="stroke: #A80036; stroke-width: 1.0;"/><!--link InputSimplexNoiseNode to Ui.SimplexNoiseNode_no_scroll--><path d="M2627.1667,259.0886 C2627.1667,272.3536 2627.1667,289 2627.1667,289 C2627.1667,289 2433.3333,289 2433.3333,289 C2433.3333,289 2433.3333,313.915 2433.3333,313.915 " fill="none" id="InputSimplexNoiseNode-Ui.SimplexNoiseNode_no_scroll" style="stroke: #A80036; stroke-width: 1.0; stroke-dasharray: 7.0,7.0;"/><polygon fill="#A80036" points="2433.3333,318.915,2437.3333,309.915,2433.3333,313.915,2429.3333,309.915,2433.3333,318.915" style="stroke: #A80036; stroke-width: 1.0;"/><!--link InputConstantValueNode to Ui.ConstantValue--><path d="M3110,259.1155 C3110,259.1155 3110,313.8539 3110,313.8539 " fill="none" id="InputConstantValueNode-Ui.ConstantValue" style="stroke: #A80036; stroke-width: 1.0; stroke-dasharray: 7.0,7.0;"/><polygon fill="#A80036" points="3110,318.8539,3114,309.8539,3110,313.8539,3106,309.8539,3110,318.8539" style="stroke: #A80036; stroke-width: 1.0;"/><!--link InputConstantVectorNode to Ui.ConstantVector--><path d="M3288.25,259.1155 C3288.25,259.1155 3288.25,313.8539 3288.25,313.8539 " fill="none" id="InputConstantVectorNode-Ui.ConstantVector" style="stroke: #A80036; stroke-width: 1.0; stroke-dasharray: 7.0,7.0;"/><polygon fill="#A80036" points="3288.25,318.8539,3292.25,309.8539,3288.25,313.8539,3284.25,309.8539,3288.25,318.8539" style="stroke: #A80036; stroke-width: 1.0;"/><!--link InputTextureNode to Ui.InputTextureNode--><path d="M2835.9732,243 C2820.7865,243 2809.25,243 2809.25,243 C2809.25,243 2809.25,313.7753 2809.25,313.7753 " fill="none" id="InputTextureNode-Ui.InputTextureNode" style="stroke: #A80036; stroke-width: 1.0; stroke-dasharray: 7.0,7.0;"/><polygon fill="#A80036" points="2809.25,318.7753,2813.25,309.7753,2809.25,313.7753,2805.25,309.7753,2809.25,318.7753" style="stroke: #A80036; stroke-width: 1.0;"/><!--link InputTextureNode to Ui.NewTextureDialogue--><path d="M2916.5,259.1155 C2916.5,259.1155 2916.5,313.8539 2916.5,313.8539 " fill="none" id="InputTextureNode-Ui.NewTextureDialogue" style="stroke: #A80036; stroke-width: 1.0; stroke-dasharray: 7.0,7.0;"/><polygon fill="#A80036" points="2916.5,318.8539,2920.5,309.8539,2916.5,313.8539,2912.5,309.8539,2916.5,318.8539" style="stroke: #A80036; stroke-width: 1.0;"/><!--
@startuml
skinparam linetype ortho

namespace Ui {
    class ClampNode << (U,#27940B) UI >> [[classUi_1_1ClampNode.html]]
    class ColorCombineNode << (U,#27940B) UI >> [[classUi_1_1ColorCombineNode.html]]
    class ConstantValue << (U,#27940B) UI >> [[classUi_1_1ConstantValue.html]]
    class ConstantVector << (U,#27940B) UI >> [[classUi_1_1ConstantVector.html]]
    class Erosion_Scroll << (U,#27940B) UI >> [[classUi_1_1Erosion_Scroll.html]]
    class Erosion << (U,#27940B) UI >> [[classUi_1_1Erosion.html]]
    class InputTextureNode << (U,#27940B) UI >> [[classUi_1_1InputTextureNode.html]]
    class MathNode << (U,#27940B) UI >> [[classUi_1_1MathNode.html]]
    class NewTextureDialogue << (U,#27940B) UI >> [[classUi_1_1NewTextureDialogue.html]]
    class Output << (U,#27940B) UI >> [[classUi_1_1Output.html]]
    class SimplexNoiseNode_no_scroll << (U,#27940B) UI >> [[classUi_1_1SimplexNoiseNode_no_scroll.html]]
    class SimplexNoiseNode << (U,#27940B) UI >> [[classUi_1_1SimplexNoiseNode.html]]
    class VectorDotProduct << (U,#27940B) UI >> [[classUi_1_1VectorDotProduct.html]]
    class VectorIntensityNode << (U,#27940B) UI >> [[classUi_1_1VectorIntensityNode.html]]
    class VectorMathNode << (U,#27940B) UI >> [[classUi_1_1VectorMathNode.html]]
}

namespace QtNodes {
    class NodeDataModel [[https://github.com/paceholder/nodeeditor/blob/master/include/nodes/internal/NodeDataModel.hpp]]
}

class Node [[classNode.html]]

class OutputNode [[classOutputNode.html]]

class ConverterBezierCurveNode [[classConverterBezierCurveNode.html]]
class ConverterClampNode [[classConverterClampNode.html]]
class ConverterColorCombineNode [[classConverterColorCombineNode.html]]
class ConverterColorSplitNode [[classConverterColorSplitNode.html]]
class ConverterErosionNode [[classConverterErosionNode.html]]
class ConverterInvertIntensityNode [[classConverterInvertIntensityNode.html]]
class ConverterMathNode [[classConverterMathNode.html]]
class ConverterSmoothNode [[classConverterSmoothNode.html]]
class ConverterVectorDotNode [[classConverterVectorDotNode.html]]
class ConverterVectorIntensityNode [[classConverterVectorIntensityNode.html]]
class ConverterVectorMathNode [[classConverterVectorMathNode.html]]

class InputSimplexNoiseNode [[classInputSimplexNoiseNode.html]]
class InputTextureNode [[classInputTextureNode.html]]
class InputConstantValueNode [[classInputConstantValueNode.html]]
class InputConstantVectorNode [[classInputConstantVectorNode.html]]

QtNodes.NodeDataModel <|- - Node

Node <|- - OutputNode

Node <|- - ConverterBezierCurveNode
Node <|- - ConverterClampNode
Node <|- - ConverterColorCombineNode
Node <|- - ConverterColorSplitNode
Node <|- - ConverterErosionNode
Node <|- - ConverterInvertIntensityNode
Node <|- - ConverterMathNode
Node <|- - ConverterSmoothNode
Node <|- - ConverterVectorDotNode
Node <|- - ConverterVectorIntensityNode
Node <|- - ConverterVectorMathNode

Node <|- - InputSimplexNoiseNode
Node <|- - InputTextureNode
Node <|- - InputConstantValueNode
Node <|- - InputConstantVectorNode

OutputNode ..> Ui.Output

ConverterClampNode ..> Ui.ClampNode
ConverterColorCombineNode ..> Ui.ColorCombineNode
ConverterErosionNode ..> Ui.Erosion_Scroll
ConverterErosionNode ..> Ui.Erosion
ConverterMathNode ..> Ui.MathNode
ConverterVectorIntensityNode ..> Ui.VectorIntensityNode
ConverterVectorDotNode ..> Ui.VectorDotProduct
ConverterVectorMathNode ..> Ui.VectorMathNode

InputSimplexNoiseNode ..> Ui.SimplexNoiseNode
InputSimplexNoiseNode ..> Ui.SimplexNoiseNode_no_scroll
InputConstantValueNode ..> Ui.ConstantValue
InputConstantVectorNode ..> Ui.ConstantVector
InputTextureNode ..> Ui.InputTextureNode
InputTextureNode ..> Ui.NewTextureDialogue

hide members
@enduml

PlantUML version 1.2017.15(Mon Jul 03 16:45:34 UTC 2017)
(GPL source distribution)
Java Runtime: OpenJDK Runtime Environment
JVM: OpenJDK 64-Bit Server VM
Java Version: 1.8.0_252-b09
Operating System: Linux
OS Version: 5.3.0-1031-azure
Default Encoding: UTF-8
Language: en
Country: null
--></g></svg>