<?xml version="1.0" encoding="UTF-8" standalone="no"?><svg xmlns="http://www.w3.org/2000/svg" xmlns:xlink="http://www.w3.org/1999/xlink" contentScriptType="application/ecmascript" contentStyleType="text/css" height="925px" preserveAspectRatio="none" style="width:2390px;height:925px;" version="1.1" viewBox="0 0 2390 925" width="2390px" zoomAndPan="magnify"><defs><filter height="300%" id="ffjhnyp3rrbj1" width="300%" x="-1" y="-1"><feGaussianBlur result="blurOut" stdDeviation="2.0"/><feColorMatrix in="blurOut" result="blurOut2" type="matrix" values="0 0 0 0 0 0 0 0 0 0 0 0 0 0 0 0 0 0 .4 0"/><feOffset dx="4.0" dy="4.0" in="blurOut2" result="blurOut3"/><feBlend in="SourceGraphic" in2="blurOut3" mode="normal"/></filter></defs><g><!--cluster Ui--><polygon fill="#FFFFFF" filter="url(#ffjhnyp3rrbj1)" points="1085,306,1106,306,1113,328.2969,2064,328.2969,2064,379,1085,379,1085,306" style="stroke: #000000; stroke-width: 2.0;"/><line style="stroke: #000000; stroke-width: 2.0;" x1="1085" x2="1113" y1="328.2969" y2="328.2969"/><text fill="#000000" font-family="sans-serif" font-size="14" font-weight="bold" lengthAdjust="spacingAndGlyphs" textLength="15" x="1089" y="320.9951">Ui</text><!--cluster QtNodes--><polygon fill="#FFFFFF" filter="url(#ffjhnyp3rrbj1)" points="14,309,88,309,95,331.2969,401,331.2969,401,736,14,736,14,309" style="stroke: #000000; stroke-width: 2.0;"/><line style="stroke: #000000; stroke-width: 2.0;" x1="14" x2="95" y1="331.2969" y2="331.2969"/><text fill="#000000" font-family="sans-serif" font-size="14" font-weight="bold" lengthAdjust="spacingAndGlyphs" textLength="68" x="18" y="323.9951">QtNodes</text><!--cluster Qt--><polygon fill="#FFFFFF" filter="url(#ffjhnyp3rrbj1)" points="734,16,758,16,765,38.2969,1482,38.2969,1482,83,734,83,734,16" style="stroke: #000000; stroke-width: 2.0;"/><line style="stroke: #000000; stroke-width: 2.0;" x1="734" x2="765" y1="38.2969" y2="38.2969"/><text fill="#000000" font-family="sans-serif" font-size="14" font-weight="bold" lengthAdjust="spacingAndGlyphs" textLength="18" x="738" y="30.9951">Qt</text><!--class Ui.MainWindow--><rect fill="#FEFECE" filter="url(#ffjhnyp3rrbj1)" height="37.9375" id="Ui.MainWindow" style="stroke: #A80036; stroke-width: 1.5;" width="108" x="1519" y="333"/><ellipse cx="1534" cy="351.9688" fill="#27940B" rx="11" ry="11" style="stroke: #A80036; stroke-width: 1.0;"/><path d="M1529.875,353.8906 L1529.875,346.0781 L1532.3281,346.0781 L1532.3281,354.5156 Q1532.3281,355.4375 1532.7969,355.9688 Q1533.2813,356.5 1534.1094,356.5 Q1534.9531,356.5 1535.4219,355.9688 Q1535.8906,355.4375 1535.8906,354.5156 L1535.8906,346.0781 L1538.3438,346.0781 L1538.3438,353.8906 Q1538.3438,356.4219 1537.3438,357.5625 Q1536.3438,358.7031 1534.1094,358.7031 Q1531.8906,358.7031 1530.875,357.5625 Q1529.875,356.4219 1529.875,353.8906 Z "/><text fill="#000000" font-family="sans-serif" font-size="12" font-style="italic" lengthAdjust="spacingAndGlyphs" textLength="27" x="1572.5" y="349.1387">«UI»</text><text fill="#000000" font-family="sans-serif" font-size="12" lengthAdjust="spacingAndGlyphs" textLength="76" x="1548" y="363.1074">MainWindow</text><!--class Ui.SaveAsDialogue--><rect fill="#FEFECE" filter="url(#ffjhnyp3rrbj1)" height="37.9375" id="Ui.SaveAsDialogue" style="stroke: #A80036; stroke-width: 1.5;" width="132" x="1757" y="333"/><ellipse cx="1772" cy="351.9688" fill="#27940B" rx="11" ry="11" style="stroke: #A80036; stroke-width: 1.0;"/><path d="M1767.875,353.8906 L1767.875,346.0781 L1770.3281,346.0781 L1770.3281,354.5156 Q1770.3281,355.4375 1770.7969,355.9688 Q1771.2813,356.5 1772.1094,356.5 Q1772.9531,356.5 1773.4219,355.9688 Q1773.8906,355.4375 1773.8906,354.5156 L1773.8906,346.0781 L1776.3438,346.0781 L1776.3438,353.8906 Q1776.3438,356.4219 1775.3438,357.5625 Q1774.3438,358.7031 1772.1094,358.7031 Q1769.8906,358.7031 1768.875,357.5625 Q1767.875,356.4219 1767.875,353.8906 Z "/><text fill="#000000" font-family="sans-serif" font-size="12" font-style="italic" lengthAdjust="spacingAndGlyphs" textLength="27" x="1822.5" y="349.1387">«UI»</text><text fill="#000000" font-family="sans-serif" font-size="12" lengthAdjust="spacingAndGlyphs" textLength="100" x="1786" y="363.1074">SaveAsDialogue</text><!--class Ui.Help--><rect fill="#FEFECE" filter="url(#ffjhnyp3rrbj1)" height="37.9375" id="Ui.Help" style="stroke: #A80036; stroke-width: 1.5;" width="60" x="1662" y="333"/><ellipse cx="1677" cy="351.9688" fill="#27940B" rx="11" ry="11" style="stroke: #A80036; stroke-width: 1.0;"/><path d="M1672.875,353.8906 L1672.875,346.0781 L1675.3281,346.0781 L1675.3281,354.5156 Q1675.3281,355.4375 1675.7969,355.9688 Q1676.2813,356.5 1677.1094,356.5 Q1677.9531,356.5 1678.4219,355.9688 Q1678.8906,355.4375 1678.8906,354.5156 L1678.8906,346.0781 L1681.3438,346.0781 L1681.3438,353.8906 Q1681.3438,356.4219 1680.3438,357.5625 Q1679.3438,358.7031 1677.1094,358.7031 Q1674.8906,358.7031 1673.875,357.5625 Q1672.875,356.4219 1672.875,353.8906 Z "/><text fill="#000000" font-family="sans-serif" font-size="12" font-style="italic" lengthAdjust="spacingAndGlyphs" textLength="27" x="1691.5" y="349.1387">«UI»</text><text fill="#000000" font-family="sans-serif" font-size="12" lengthAdjust="spacingAndGlyphs" textLength="28" x="1691" y="363.1074">Help</text><!--class Ui.OpenGLControls--><rect fill="#FEFECE" filter="url(#ffjhnyp3rrbj1)" height="37.9375" id="Ui.OpenGLControls" style="stroke: #A80036; stroke-width: 1.5;" width="132" x="1924" y="333"/><ellipse cx="1939" cy="351.9688" fill="#27940B" rx="11" ry="11" style="stroke: #A80036; stroke-width: 1.0;"/><path d="M1934.875,353.8906 L1934.875,346.0781 L1937.3281,346.0781 L1937.3281,354.5156 Q1937.3281,355.4375 1937.7969,355.9688 Q1938.2813,356.5 1939.1094,356.5 Q1939.9531,356.5 1940.4219,355.9688 Q1940.8906,355.4375 1940.8906,354.5156 L1940.8906,346.0781 L1943.3438,346.0781 L1943.3438,353.8906 Q1943.3438,356.4219 1942.3438,357.5625 Q1941.3438,358.7031 1939.1094,358.7031 Q1936.8906,358.7031 1935.875,357.5625 Q1934.875,356.4219 1934.875,353.8906 Z "/><text fill="#000000" font-family="sans-serif" font-size="12" font-style="italic" lengthAdjust="spacingAndGlyphs" textLength="27" x="1989.5" y="349.1387">«UI»</text><text fill="#000000" font-family="sans-serif" font-size="12" lengthAdjust="spacingAndGlyphs" textLength="100" x="1953" y="363.1074">OpenGLControls</text><!--class Ui.TextureDrawing--><rect fill="#FEFECE" filter="url(#ffjhnyp3rrbj1)" height="37.9375" id="Ui.TextureDrawing" style="stroke: #A80036; stroke-width: 1.5;" width="129" x="1093.5" y="333"/><ellipse cx="1108.5" cy="351.9688" fill="#27940B" rx="11" ry="11" style="stroke: #A80036; stroke-width: 1.0;"/><path d="M1104.375,353.8906 L1104.375,346.0781 L1106.8281,346.0781 L1106.8281,354.5156 Q1106.8281,355.4375 1107.2969,355.9688 Q1107.7813,356.5 1108.6094,356.5 Q1109.4531,356.5 1109.9219,355.9688 Q1110.3906,355.4375 1110.3906,354.5156 L1110.3906,346.0781 L1112.8438,346.0781 L1112.8438,353.8906 Q1112.8438,356.4219 1111.8438,357.5625 Q1110.8438,358.7031 1108.6094,358.7031 Q1106.3906,358.7031 1105.375,357.5625 Q1104.375,356.4219 1104.375,353.8906 Z "/><text fill="#000000" font-family="sans-serif" font-size="12" font-style="italic" lengthAdjust="spacingAndGlyphs" textLength="27" x="1157.5" y="349.1387">«UI»</text><text fill="#000000" font-family="sans-serif" font-size="12" lengthAdjust="spacingAndGlyphs" textLength="97" x="1122.5" y="363.1074">TextureDrawing</text><!--class Ui.TextureDrawingCancelDialogue--><rect fill="#FEFECE" filter="url(#ffjhnyp3rrbj1)" height="37.9375" id="Ui.TextureDrawingCancelDialogue" style="stroke: #A80036; stroke-width: 1.5;" width="226" x="1258" y="333"/><ellipse cx="1273" cy="351.9688" fill="#27940B" rx="11" ry="11" style="stroke: #A80036; stroke-width: 1.0;"/><path d="M1268.875,353.8906 L1268.875,346.0781 L1271.3281,346.0781 L1271.3281,354.5156 Q1271.3281,355.4375 1271.7969,355.9688 Q1272.2813,356.5 1273.1094,356.5 Q1273.9531,356.5 1274.4219,355.9688 Q1274.8906,355.4375 1274.8906,354.5156 L1274.8906,346.0781 L1277.3438,346.0781 L1277.3438,353.8906 Q1277.3438,356.4219 1276.3438,357.5625 Q1275.3438,358.7031 1273.1094,358.7031 Q1270.8906,358.7031 1269.875,357.5625 Q1268.875,356.4219 1268.875,353.8906 Z "/><text fill="#000000" font-family="sans-serif" font-size="12" font-style="italic" lengthAdjust="spacingAndGlyphs" textLength="27" x="1370.5" y="349.1387">«UI»</text><text fill="#000000" font-family="sans-serif" font-size="12" lengthAdjust="spacingAndGlyphs" textLength="194" x="1287" y="363.1074">TextureDrawingCancelDialogue</text><!--class QtNodes.FlowView--><a target="_top" xlink:actuate="onRequest" xlink:href="https://github.com/paceholder/nodeeditor/blob/master/include/nodes/internal/FlowView.hpp" xlink:show="new" xlink:title="https://github.com/paceholder/nodeeditor/blob/master/include/nodes/internal/FlowView.hpp" xlink:type="simple"><rect fill="#FEFECE" filter="url(#ffjhnyp3rrbj1)" height="32" id="QtNodes.FlowView" style="stroke: #A80036; stroke-width: 1.5;" width="87" x="22.5" y="336"/><ellipse cx="37.5" cy="352" fill="#ADD1B2" rx="11" ry="11" style="stroke: #A80036; stroke-width: 1.0;"/><path d="M40.4688,357.6406 Q39.8906,357.9375 39.25,358.0781 Q38.6094,358.2344 37.9063,358.2344 Q35.4063,358.2344 34.0781,356.5938 Q32.7656,354.9375 32.7656,351.8125 Q32.7656,348.6875 34.0781,347.0313 Q35.4063,345.375 37.9063,345.375 Q38.6094,345.375 39.25,345.5313 Q39.9063,345.6875 40.4688,345.9844 L40.4688,348.7031 Q39.8438,348.125 39.25,347.8594 Q38.6563,347.5781 38.0313,347.5781 Q36.6875,347.5781 36,348.6563 Q35.3125,349.7188 35.3125,351.8125 Q35.3125,353.9063 36,354.9844 Q36.6875,356.0469 38.0313,356.0469 Q38.6563,356.0469 39.25,355.7813 Q39.8438,355.5 40.4688,354.9219 L40.4688,357.6406 Z "/><text fill="#000000" font-family="sans-serif" font-size="12" lengthAdjust="spacingAndGlyphs" textLength="55" x="51.5" y="356.1543">FlowView</text></a><!--class QtNodes.FlowScene--><a target="_top" xlink:actuate="onRequest" xlink:href="https://github.com/paceholder/nodeeditor/blob/master/include/nodes/internal/FlowScene.hpp" xlink:show="new" xlink:title="https://github.com/paceholder/nodeeditor/blob/master/include/nodes/internal/FlowScene.hpp" xlink:type="simple"><rect fill="#FEFECE" filter="url(#ffjhnyp3rrbj1)" height="32" id="QtNodes.FlowScene" style="stroke: #A80036; stroke-width: 1.5;" width="98" x="22" y="525"/><ellipse cx="37" cy="541" fill="#ADD1B2" rx="11" ry="11" style="stroke: #A80036; stroke-width: 1.0;"/><path d="M39.9688,546.6406 Q39.3906,546.9375 38.75,547.0781 Q38.1094,547.2344 37.4063,547.2344 Q34.9063,547.2344 33.5781,545.5938 Q32.2656,543.9375 32.2656,540.8125 Q32.2656,537.6875 33.5781,536.0313 Q34.9063,534.375 37.4063,534.375 Q38.1094,534.375 38.75,534.5313 Q39.4063,534.6875 39.9688,534.9844 L39.9688,537.7031 Q39.3438,537.125 38.75,536.8594 Q38.1563,536.5781 37.5313,536.5781 Q36.1875,536.5781 35.5,537.6563 Q34.8125,538.7188 34.8125,540.8125 Q34.8125,542.9063 35.5,543.9844 Q36.1875,545.0469 37.5313,545.0469 Q38.1563,545.0469 38.75,544.7813 Q39.3438,544.5 39.9688,543.9219 L39.9688,546.6406 Z "/><text fill="#000000" font-family="sans-serif" font-size="12" lengthAdjust="spacingAndGlyphs" textLength="66" x="51" y="545.1543">FlowScene</text></a><!--class QtNodes.Node--><a target="_top" xlink:actuate="onRequest" xlink:href="https://github.com/paceholder/nodeeditor/blob/master/include/nodes/internal/Node.hpp" xlink:show="new" xlink:title="https://github.com/paceholder/nodeeditor/blob/master/include/nodes/internal/Node.hpp" xlink:type="simple"><rect fill="#FEFECE" filter="url(#ffjhnyp3rrbj1)" height="32" id="QtNodes.Node" style="stroke: #A80036; stroke-width: 1.5;" width="65" x="144.5" y="336"/><ellipse cx="159.5" cy="352" fill="#ADD1B2" rx="11" ry="11" style="stroke: #A80036; stroke-width: 1.0;"/><path d="M162.4688,357.6406 Q161.8906,357.9375 161.25,358.0781 Q160.6094,358.2344 159.9063,358.2344 Q157.4063,358.2344 156.0781,356.5938 Q154.7656,354.9375 154.7656,351.8125 Q154.7656,348.6875 156.0781,347.0313 Q157.4063,345.375 159.9063,345.375 Q160.6094,345.375 161.25,345.5313 Q161.9063,345.6875 162.4688,345.9844 L162.4688,348.7031 Q161.8438,348.125 161.25,347.8594 Q160.6563,347.5781 160.0313,347.5781 Q158.6875,347.5781 158,348.6563 Q157.3125,349.7188 157.3125,351.8125 Q157.3125,353.9063 158,354.9844 Q158.6875,356.0469 160.0313,356.0469 Q160.6563,356.0469 161.25,355.7813 Q161.8438,355.5 162.4688,354.9219 L162.4688,357.6406 Z "/><text fill="#000000" font-family="sans-serif" font-size="12" lengthAdjust="spacingAndGlyphs" textLength="33" x="173.5" y="356.1543">Node</text></a><!--class QtNodes.DataModelRegistry--><a target="_top" xlink:actuate="onRequest" xlink:href="https://github.com/paceholder/nodeeditor/blob/master/include/nodes/internal/DataModelRegistry.hpp" xlink:show="new" xlink:title="https://github.com/paceholder/nodeeditor/blob/master/include/nodes/internal/DataModelRegistry.hpp" xlink:type="simple"><rect fill="#FEFECE" filter="url(#ffjhnyp3rrbj1)" height="32" id="QtNodes.DataModelRegistry" style="stroke: #A80036; stroke-width: 1.5;" width="149" x="244.5" y="336"/><ellipse cx="259.5" cy="352" fill="#ADD1B2" rx="11" ry="11" style="stroke: #A80036; stroke-width: 1.0;"/><path d="M262.4688,357.6406 Q261.8906,357.9375 261.25,358.0781 Q260.6094,358.2344 259.9063,358.2344 Q257.4063,358.2344 256.0781,356.5938 Q254.7656,354.9375 254.7656,351.8125 Q254.7656,348.6875 256.0781,347.0313 Q257.4063,345.375 259.9063,345.375 Q260.6094,345.375 261.25,345.5313 Q261.9063,345.6875 262.4688,345.9844 L262.4688,348.7031 Q261.8438,348.125 261.25,347.8594 Q260.6563,347.5781 260.0313,347.5781 Q258.6875,347.5781 258,348.6563 Q257.3125,349.7188 257.3125,351.8125 Q257.3125,353.9063 258,354.9844 Q258.6875,356.0469 260.0313,356.0469 Q260.6563,356.0469 261.25,355.7813 Q261.8438,355.5 262.4688,354.9219 L262.4688,357.6406 Z "/><text fill="#000000" font-family="sans-serif" font-size="12" lengthAdjust="spacingAndGlyphs" textLength="117" x="273.5" y="356.1543">DataModelRegistry</text></a><!--class QtNodes.NodeDataModel--><a target="_top" xlink:actuate="onRequest" xlink:href="https://github.com/paceholder/nodeeditor/blob/master/include/nodes/internal/NodeDataModel.hpp" xlink:show="new" xlink:title="https://github.com/paceholder/nodeeditor/blob/master/include/nodes/internal/NodeDataModel.hpp" xlink:type="simple"><rect fill="#FEFECE" filter="url(#ffjhnyp3rrbj1)" height="32" id="QtNodes.NodeDataModel" style="stroke: #A80036; stroke-width: 1.5;" width="132" x="142" y="696"/><ellipse cx="157" cy="712" fill="#ADD1B2" rx="11" ry="11" style="stroke: #A80036; stroke-width: 1.0;"/><path d="M159.9688,717.6406 Q159.3906,717.9375 158.75,718.0781 Q158.1094,718.2344 157.4063,718.2344 Q154.9063,718.2344 153.5781,716.5938 Q152.2656,714.9375 152.2656,711.8125 Q152.2656,708.6875 153.5781,707.0313 Q154.9063,705.375 157.4063,705.375 Q158.1094,705.375 158.75,705.5313 Q159.4063,705.6875 159.9688,705.9844 L159.9688,708.7031 Q159.3438,708.125 158.75,707.8594 Q158.1563,707.5781 157.5313,707.5781 Q156.1875,707.5781 155.5,708.6563 Q154.8125,709.7188 154.8125,711.8125 Q154.8125,713.9063 155.5,714.9844 Q156.1875,716.0469 157.5313,716.0469 Q158.1563,716.0469 158.75,715.7813 Q159.3438,715.5 159.9688,714.9219 L159.9688,717.6406 Z "/><text fill="#000000" font-family="sans-serif" font-size="12" lengthAdjust="spacingAndGlyphs" textLength="100" x="171" y="716.1543">NodeDataModel</text></a><!--class Qt.QOpenGLWidget--><a target="_top" xlink:actuate="onRequest" xlink:href="https://doc.qt.io/qt-5/qopenglwidget.html" xlink:show="new" xlink:title="https://doc.qt.io/qt-5/qopenglwidget.html" xlink:type="simple"><rect fill="#FEFECE" filter="url(#ffjhnyp3rrbj1)" height="32" id="Qt.QOpenGLWidget" style="stroke: #A80036; stroke-width: 1.5;" width="132" x="1225" y="43"/><ellipse cx="1240" cy="59" fill="#ADD1B2" rx="11" ry="11" style="stroke: #A80036; stroke-width: 1.0;"/><path d="M1242.9688,64.6406 Q1242.3906,64.9375 1241.75,65.0781 Q1241.1094,65.2344 1240.4063,65.2344 Q1237.9063,65.2344 1236.5781,63.5938 Q1235.2656,61.9375 1235.2656,58.8125 Q1235.2656,55.6875 1236.5781,54.0313 Q1237.9063,52.375 1240.4063,52.375 Q1241.1094,52.375 1241.75,52.5313 Q1242.4063,52.6875 1242.9688,52.9844 L1242.9688,55.7031 Q1242.3438,55.125 1241.75,54.8594 Q1241.1563,54.5781 1240.5313,54.5781 Q1239.1875,54.5781 1238.5,55.6563 Q1237.8125,56.7188 1237.8125,58.8125 Q1237.8125,60.9063 1238.5,61.9844 Q1239.1875,63.0469 1240.5313,63.0469 Q1241.1563,63.0469 1241.75,62.7813 Q1242.3438,62.5 1242.9688,61.9219 L1242.9688,64.6406 Z "/><text fill="#000000" font-family="sans-serif" font-size="12" lengthAdjust="spacingAndGlyphs" textLength="100" x="1254" y="63.1543">QOpenGLWidget</text></a><!--class Qt.QMainWindow--><a target="_top" xlink:actuate="onRequest" xlink:href="https://doc.qt.io/qt-5/qmainwindow.html" xlink:show="new" xlink:title="https://doc.qt.io/qt-5/qmainwindow.html" xlink:type="simple"><rect fill="#FEFECE" filter="url(#ffjhnyp3rrbj1)" height="32" id="Qt.QMainWindow" style="stroke: #A80036; stroke-width: 1.5;" width="117" x="1072.5" y="43"/><ellipse cx="1087.5" cy="59" fill="#ADD1B2" rx="11" ry="11" style="stroke: #A80036; stroke-width: 1.0;"/><path d="M1090.4688,64.6406 Q1089.8906,64.9375 1089.25,65.0781 Q1088.6094,65.2344 1087.9063,65.2344 Q1085.4063,65.2344 1084.0781,63.5938 Q1082.7656,61.9375 1082.7656,58.8125 Q1082.7656,55.6875 1084.0781,54.0313 Q1085.4063,52.375 1087.9063,52.375 Q1088.6094,52.375 1089.25,52.5313 Q1089.9063,52.6875 1090.4688,52.9844 L1090.4688,55.7031 Q1089.8438,55.125 1089.25,54.8594 Q1088.6563,54.5781 1088.0313,54.5781 Q1086.6875,54.5781 1086,55.6563 Q1085.3125,56.7188 1085.3125,58.8125 Q1085.3125,60.9063 1086,61.9844 Q1086.6875,63.0469 1088.0313,63.0469 Q1088.6563,63.0469 1089.25,62.7813 Q1089.8438,62.5 1090.4688,61.9219 L1090.4688,64.6406 Z "/><text fill="#000000" font-family="sans-serif" font-size="12" lengthAdjust="spacingAndGlyphs" textLength="85" x="1101.5" y="63.1543">QMainWindow</text></a><!--class Qt.QObject--><a target="_top" xlink:actuate="onRequest" xlink:href="https://doc.qt.io/qt-5/qobject.html" xlink:show="new" xlink:title="https://doc.qt.io/qt-5/qobject.html" xlink:type="simple"><rect fill="#FEFECE" filter="url(#ffjhnyp3rrbj1)" height="32" id="Qt.QObject" style="stroke: #A80036; stroke-width: 1.5;" width="81" x="1392.5" y="43"/><ellipse cx="1407.5" cy="59" fill="#ADD1B2" rx="11" ry="11" style="stroke: #A80036; stroke-width: 1.0;"/><path d="M1410.4688,64.6406 Q1409.8906,64.9375 1409.25,65.0781 Q1408.6094,65.2344 1407.9063,65.2344 Q1405.4063,65.2344 1404.0781,63.5938 Q1402.7656,61.9375 1402.7656,58.8125 Q1402.7656,55.6875 1404.0781,54.0313 Q1405.4063,52.375 1407.9063,52.375 Q1408.6094,52.375 1409.25,52.5313 Q1409.9063,52.6875 1410.4688,52.9844 L1410.4688,55.7031 Q1409.8438,55.125 1409.25,54.8594 Q1408.6563,54.5781 1408.0313,54.5781 Q1406.6875,54.5781 1406,55.6563 Q1405.3125,56.7188 1405.3125,58.8125 Q1405.3125,60.9063 1406,61.9844 Q1406.6875,63.0469 1408.0313,63.0469 Q1408.6563,63.0469 1409.25,62.7813 Q1409.8438,62.5 1410.4688,61.9219 L1410.4688,64.6406 Z "/><text fill="#000000" font-family="sans-serif" font-size="12" lengthAdjust="spacingAndGlyphs" textLength="49" x="1421.5" y="63.1543">QObject</text></a><!--class Qt.QGraphicsView--><a target="_top" xlink:actuate="onRequest" xlink:href="https://doc.qt.io/qt-5/qgraphicsview.html" xlink:show="new" xlink:title="https://doc.qt.io/qt-5/qgraphicsview.html" xlink:type="simple"><rect fill="#FEFECE" filter="url(#ffjhnyp3rrbj1)" height="32" id="Qt.QGraphicsView" style="stroke: #A80036; stroke-width: 1.5;" width="124" x="913" y="43"/><ellipse cx="928" cy="59" fill="#ADD1B2" rx="11" ry="11" style="stroke: #A80036; stroke-width: 1.0;"/><path d="M930.9688,64.6406 Q930.3906,64.9375 929.75,65.0781 Q929.1094,65.2344 928.4063,65.2344 Q925.9063,65.2344 924.5781,63.5938 Q923.2656,61.9375 923.2656,58.8125 Q923.2656,55.6875 924.5781,54.0313 Q925.9063,52.375 928.4063,52.375 Q929.1094,52.375 929.75,52.5313 Q930.4063,52.6875 930.9688,52.9844 L930.9688,55.7031 Q930.3438,55.125 929.75,54.8594 Q929.1563,54.5781 928.5313,54.5781 Q927.1875,54.5781 926.5,55.6563 Q925.8125,56.7188 925.8125,58.8125 Q925.8125,60.9063 926.5,61.9844 Q927.1875,63.0469 928.5313,63.0469 Q929.1563,63.0469 929.75,62.7813 Q930.3438,62.5 930.9688,61.9219 L930.9688,64.6406 Z "/><text fill="#000000" font-family="sans-serif" font-size="12" lengthAdjust="spacingAndGlyphs" textLength="92" x="942" y="63.1543">QGraphicsView</text></a><!--class Qt.QGraphicsScene--><a target="_top" xlink:actuate="onRequest" xlink:href="https://doc.qt.io/qt-5/qgraphicsscene.html" xlink:show="new" xlink:title="https://doc.qt.io/qt-5/qgraphicsscene.html" xlink:type="simple"><rect fill="#FEFECE" filter="url(#ffjhnyp3rrbj1)" height="32" id="Qt.QGraphicsScene" style="stroke: #A80036; stroke-width: 1.5;" width="135" x="742.5" y="43"/><ellipse cx="757.5" cy="59" fill="#ADD1B2" rx="11" ry="11" style="stroke: #A80036; stroke-width: 1.0;"/><path d="M760.4688,64.6406 Q759.8906,64.9375 759.25,65.0781 Q758.6094,65.2344 757.9063,65.2344 Q755.4063,65.2344 754.0781,63.5938 Q752.7656,61.9375 752.7656,58.8125 Q752.7656,55.6875 754.0781,54.0313 Q755.4063,52.375 757.9063,52.375 Q758.6094,52.375 759.25,52.5313 Q759.9063,52.6875 760.4688,52.9844 L760.4688,55.7031 Q759.8438,55.125 759.25,54.8594 Q758.6563,54.5781 758.0313,54.5781 Q756.6875,54.5781 756,55.6563 Q755.3125,56.7188 755.3125,58.8125 Q755.3125,60.9063 756,61.9844 Q756.6875,63.0469 758.0313,63.0469 Q758.6563,63.0469 759.25,62.7813 Q759.8438,62.5 760.4688,61.9219 L760.4688,64.6406 Z "/><text fill="#000000" font-family="sans-serif" font-size="12" lengthAdjust="spacingAndGlyphs" textLength="103" x="771.5" y="63.1543">QGraphicsScene</text></a><!--class DrawingDialogue--><rect fill="#FEFECE" filter="url(#ffjhnyp3rrbj1)" height="37.9375" id="DrawingDialogue" style="stroke: #A80036; stroke-width: 1.5;" width="137" x="940.5" y="229"/><ellipse cx="955.5" cy="247.9688" fill="#FF6600" rx="11" ry="11" style="stroke: #A80036; stroke-width: 1.0;"/><path d="M958.7188,243.4688 L958.7188,245.5938 Q958.0469,245.1563 957.3125,244.9375 Q956.5938,244.7188 955.875,244.7188 Q955.0625,244.7188 954.6406,244.9531 Q954.2344,245.1875 954.2344,245.6563 Q954.2344,246.3125 956,246.7344 L956.0938,246.75 L956.7969,246.9219 Q958.125,247.2344 958.7344,247.9375 Q959.3594,248.6406 959.3594,249.8438 Q959.3594,251.2656 958.4063,251.9844 Q957.4688,252.7031 955.5781,252.7031 Q954.7344,252.7031 953.8594,252.5625 Q952.9844,252.4219 952.0781,252.125 L952.0781,250 Q952.875,250.4531 953.7031,250.7031 Q954.5469,250.9375 955.3281,250.9375 Q956.1875,250.9375 956.625,250.6875 Q957.0625,250.4375 957.0625,249.9688 Q957.0625,249.5 956.75,249.25 Q956.4375,249 955.2656,248.7188 L954.5938,248.5781 Q953.2031,248.2656 952.5625,247.5938 Q951.9219,246.9219 951.9219,245.7813 Q951.9219,244.4375 952.8906,243.7031 Q953.875,242.9531 955.625,242.9531 Q956.4219,242.9531 957.2031,243.0781 Q957.9844,243.2031 958.7188,243.4688 Z "/><text fill="#000000" font-family="sans-serif" font-size="12" font-style="italic" lengthAdjust="spacingAndGlyphs" textLength="73" x="985.5" y="245.1387">«Singleton»</text><text fill="#000000" font-family="sans-serif" font-size="12" lengthAdjust="spacingAndGlyphs" textLength="105" x="969.5" y="259.1074">DrawingDialogue</text><!--class StencilList--><rect fill="#FEFECE" filter="url(#ffjhnyp3rrbj1)" height="37.9375" id="StencilList" style="stroke: #A80036; stroke-width: 1.5;" width="101" x="657.5" y="333"/><ellipse cx="672.5" cy="351.9688" fill="#FF6600" rx="11" ry="11" style="stroke: #A80036; stroke-width: 1.0;"/><path d="M675.7188,347.4688 L675.7188,349.5938 Q675.0469,349.1563 674.3125,348.9375 Q673.5938,348.7188 672.875,348.7188 Q672.0625,348.7188 671.6406,348.9531 Q671.2344,349.1875 671.2344,349.6563 Q671.2344,350.3125 673,350.7344 L673.0938,350.75 L673.7969,350.9219 Q675.125,351.2344 675.7344,351.9375 Q676.3594,352.6406 676.3594,353.8438 Q676.3594,355.2656 675.4063,355.9844 Q674.4688,356.7031 672.5781,356.7031 Q671.7344,356.7031 670.8594,356.5625 Q669.9844,356.4219 669.0781,356.125 L669.0781,354 Q669.875,354.4531 670.7031,354.7031 Q671.5469,354.9375 672.3281,354.9375 Q673.1875,354.9375 673.625,354.6875 Q674.0625,354.4375 674.0625,353.9688 Q674.0625,353.5 673.75,353.25 Q673.4375,353 672.2656,352.7188 L671.5938,352.5781 Q670.2031,352.2656 669.5625,351.5938 Q668.9219,350.9219 668.9219,349.7813 Q668.9219,348.4375 669.8906,347.7031 Q670.875,346.9531 672.625,346.9531 Q673.4219,346.9531 674.2031,347.0781 Q674.9844,347.2031 675.7188,347.4688 Z "/><text fill="#000000" font-family="sans-serif" font-size="12" font-style="italic" lengthAdjust="spacingAndGlyphs" textLength="73" x="684.5" y="349.1387">«Singleton»</text><text fill="#000000" font-family="sans-serif" font-size="12" lengthAdjust="spacingAndGlyphs" textLength="63" x="689.5" y="363.1074">StencilList</text><!--class TextureList--><rect fill="#FEFECE" filter="url(#ffjhnyp3rrbj1)" height="37.9375" id="TextureList" style="stroke: #A80036; stroke-width: 1.5;" width="101" x="957.5" y="333"/><ellipse cx="972.5" cy="351.9688" fill="#FF6600" rx="11" ry="11" style="stroke: #A80036; stroke-width: 1.0;"/><path d="M975.7188,347.4688 L975.7188,349.5938 Q975.0469,349.1563 974.3125,348.9375 Q973.5938,348.7188 972.875,348.7188 Q972.0625,348.7188 971.6406,348.9531 Q971.2344,349.1875 971.2344,349.6563 Q971.2344,350.3125 973,350.7344 L973.0938,350.75 L973.7969,350.9219 Q975.125,351.2344 975.7344,351.9375 Q976.3594,352.6406 976.3594,353.8438 Q976.3594,355.2656 975.4063,355.9844 Q974.4688,356.7031 972.5781,356.7031 Q971.7344,356.7031 970.8594,356.5625 Q969.9844,356.4219 969.0781,356.125 L969.0781,354 Q969.875,354.4531 970.7031,354.7031 Q971.5469,354.9375 972.3281,354.9375 Q973.1875,354.9375 973.625,354.6875 Q974.0625,354.4375 974.0625,353.9688 Q974.0625,353.5 973.75,353.25 Q973.4375,353 972.2656,352.7188 L971.5938,352.5781 Q970.2031,352.2656 969.5625,351.5938 Q968.9219,350.9219 968.9219,349.7813 Q968.9219,348.4375 969.8906,347.7031 Q970.875,346.9531 972.625,346.9531 Q973.4219,346.9531 974.2031,347.0781 Q974.9844,347.2031 975.7188,347.4688 Z "/><text fill="#000000" font-family="sans-serif" font-size="12" font-style="italic" lengthAdjust="spacingAndGlyphs" textLength="73" x="984.5" y="349.1387">«Singleton»</text><text fill="#000000" font-family="sans-serif" font-size="12" lengthAdjust="spacingAndGlyphs" textLength="68" x="987" y="363.1074">TextureList</text><!--class Settings--><rect fill="#FEFECE" filter="url(#ffjhnyp3rrbj1)" height="37.9375" id="Settings" style="stroke: #A80036; stroke-width: 1.5;" width="101" x="804.5" y="229"/><ellipse cx="819.5" cy="247.9688" fill="#FF6600" rx="11" ry="11" style="stroke: #A80036; stroke-width: 1.0;"/><path d="M822.7188,243.4688 L822.7188,245.5938 Q822.0469,245.1563 821.3125,244.9375 Q820.5938,244.7188 819.875,244.7188 Q819.0625,244.7188 818.6406,244.9531 Q818.2344,245.1875 818.2344,245.6563 Q818.2344,246.3125 820,246.7344 L820.0938,246.75 L820.7969,246.9219 Q822.125,247.2344 822.7344,247.9375 Q823.3594,248.6406 823.3594,249.8438 Q823.3594,251.2656 822.4063,251.9844 Q821.4688,252.7031 819.5781,252.7031 Q818.7344,252.7031 817.8594,252.5625 Q816.9844,252.4219 816.0781,252.125 L816.0781,250 Q816.875,250.4531 817.7031,250.7031 Q818.5469,250.9375 819.3281,250.9375 Q820.1875,250.9375 820.625,250.6875 Q821.0625,250.4375 821.0625,249.9688 Q821.0625,249.5 820.75,249.25 Q820.4375,249 819.2656,248.7188 L818.5938,248.5781 Q817.2031,248.2656 816.5625,247.5938 Q815.9219,246.9219 815.9219,245.7813 Q815.9219,244.4375 816.8906,243.7031 Q817.875,242.9531 819.625,242.9531 Q820.4219,242.9531 821.2031,243.0781 Q821.9844,243.2031 822.7188,243.4688 Z "/><text fill="#000000" font-family="sans-serif" font-size="12" font-style="italic" lengthAdjust="spacingAndGlyphs" textLength="73" x="831.5" y="245.1387">«Singleton»</text><text fill="#000000" font-family="sans-serif" font-size="12" lengthAdjust="spacingAndGlyphs" textLength="52" x="842" y="259.1074">Settings</text><!--class MainWindow--><rect fill="#FEFECE" filter="url(#ffjhnyp3rrbj1)" height="32" id="MainWindow" style="stroke: #A80036; stroke-width: 1.5;" width="108" x="1077" y="136"/><ellipse cx="1092" cy="152" fill="#ADD1B2" rx="11" ry="11" style="stroke: #A80036; stroke-width: 1.0;"/><path d="M1094.9688,157.6406 Q1094.3906,157.9375 1093.75,158.0781 Q1093.1094,158.2344 1092.4063,158.2344 Q1089.9063,158.2344 1088.5781,156.5938 Q1087.2656,154.9375 1087.2656,151.8125 Q1087.2656,148.6875 1088.5781,147.0313 Q1089.9063,145.375 1092.4063,145.375 Q1093.1094,145.375 1093.75,145.5313 Q1094.4063,145.6875 1094.9688,145.9844 L1094.9688,148.7031 Q1094.3438,148.125 1093.75,147.8594 Q1093.1563,147.5781 1092.5313,147.5781 Q1091.1875,147.5781 1090.5,148.6563 Q1089.8125,149.7188 1089.8125,151.8125 Q1089.8125,153.9063 1090.5,154.9844 Q1091.1875,156.0469 1092.5313,156.0469 Q1093.1563,156.0469 1093.75,155.7813 Q1094.3438,155.5 1094.9688,154.9219 L1094.9688,157.6406 Z "/><text fill="#000000" font-family="sans-serif" font-size="12" lengthAdjust="spacingAndGlyphs" textLength="76" x="1106" y="156.1543">MainWindow</text><!--class NodeEditor--><rect fill="#FEFECE" filter="url(#ffjhnyp3rrbj1)" height="32" id="NodeEditor" style="stroke: #A80036; stroke-width: 1.5;" width="102" x="205" y="232"/><ellipse cx="220" cy="248" fill="#ADD1B2" rx="11" ry="11" style="stroke: #A80036; stroke-width: 1.0;"/><path d="M222.9688,253.6406 Q222.3906,253.9375 221.75,254.0781 Q221.1094,254.2344 220.4063,254.2344 Q217.9063,254.2344 216.5781,252.5938 Q215.2656,250.9375 215.2656,247.8125 Q215.2656,244.6875 216.5781,243.0313 Q217.9063,241.375 220.4063,241.375 Q221.1094,241.375 221.75,241.5313 Q222.4063,241.6875 222.9688,241.9844 L222.9688,244.7031 Q222.3438,244.125 221.75,243.8594 Q221.1563,243.5781 220.5313,243.5781 Q219.1875,243.5781 218.5,244.6563 Q217.8125,245.7188 217.8125,247.8125 Q217.8125,249.9063 218.5,250.9844 Q219.1875,252.0469 220.5313,252.0469 Q221.1563,252.0469 221.75,251.7813 Q222.3438,251.5 222.9688,250.9219 L222.9688,253.6406 Z "/><text fill="#000000" font-family="sans-serif" font-size="12" lengthAdjust="spacingAndGlyphs" textLength="70" x="234" y="252.1543">NodeEditor</text><!--class OpenGL--><rect fill="#FEFECE" filter="url(#ffjhnyp3rrbj1)" height="32" id="OpenGL" style="stroke: #A80036; stroke-width: 1.5;" width="80" x="2020" y="232"/><ellipse cx="2035" cy="248" fill="#ADD1B2" rx="11" ry="11" style="stroke: #A80036; stroke-width: 1.0;"/><path d="M2037.9688,253.6406 Q2037.3906,253.9375 2036.75,254.0781 Q2036.1094,254.2344 2035.4063,254.2344 Q2032.9063,254.2344 2031.5781,252.5938 Q2030.2656,250.9375 2030.2656,247.8125 Q2030.2656,244.6875 2031.5781,243.0313 Q2032.9063,241.375 2035.4063,241.375 Q2036.1094,241.375 2036.75,241.5313 Q2037.4063,241.6875 2037.9688,241.9844 L2037.9688,244.7031 Q2037.3438,244.125 2036.75,243.8594 Q2036.1563,243.5781 2035.5313,243.5781 Q2034.1875,243.5781 2033.5,244.6563 Q2032.8125,245.7188 2032.8125,247.8125 Q2032.8125,249.9063 2033.5,250.9844 Q2034.1875,252.0469 2035.5313,252.0469 Q2036.1563,252.0469 2036.75,251.7813 Q2037.3438,251.5 2037.9688,250.9219 L2037.9688,253.6406 Z "/><text fill="#000000" font-family="sans-serif" font-size="12" lengthAdjust="spacingAndGlyphs" textLength="48" x="2049" y="252.1543">OpenGL</text><!--class Node--><a target="_top" xlink:actuate="onRequest" xlink:href="Classes_Node.svg" xlink:show="new" xlink:title="Classes_Node.svg" xlink:type="simple"><rect fill="#FEFECE" filter="url(#ffjhnyp3rrbj1)" height="32" id="Node" style="stroke: #A80036; stroke-width: 1.5;" width="65" x="289.5" y="789"/><ellipse cx="304.5" cy="805" fill="#ADD1B2" rx="11" ry="11" style="stroke: #A80036; stroke-width: 1.0;"/><path d="M307.4688,810.6406 Q306.8906,810.9375 306.25,811.0781 Q305.6094,811.2344 304.9063,811.2344 Q302.4063,811.2344 301.0781,809.5938 Q299.7656,807.9375 299.7656,804.8125 Q299.7656,801.6875 301.0781,800.0313 Q302.4063,798.375 304.9063,798.375 Q305.6094,798.375 306.25,798.5313 Q306.9063,798.6875 307.4688,798.9844 L307.4688,801.7031 Q306.8438,801.125 306.25,800.8594 Q305.6563,800.5781 305.0313,800.5781 Q303.6875,800.5781 303,801.6563 Q302.3125,802.7188 302.3125,804.8125 Q302.3125,806.9063 303,807.9844 Q303.6875,809.0469 305.0313,809.0469 Q305.6563,809.0469 306.25,808.7813 Q306.8438,808.5 307.4688,807.9219 L307.4688,810.6406 Z "/><text fill="#000000" font-family="sans-serif" font-size="12" lengthAdjust="spacingAndGlyphs" textLength="33" x="318.5" y="809.1543">Node</text></a><!--class OutputNode--><rect fill="#FEFECE" filter="url(#ffjhnyp3rrbj1)" height="32" id="OutputNode" style="stroke: #A80036; stroke-width: 1.5;" width="108" x="349" y="882"/><ellipse cx="364" cy="898" fill="#ADD1B2" rx="11" ry="11" style="stroke: #A80036; stroke-width: 1.0;"/><path d="M366.9688,903.6406 Q366.3906,903.9375 365.75,904.0781 Q365.1094,904.2344 364.4063,904.2344 Q361.9063,904.2344 360.5781,902.5938 Q359.2656,900.9375 359.2656,897.8125 Q359.2656,894.6875 360.5781,893.0313 Q361.9063,891.375 364.4063,891.375 Q365.1094,891.375 365.75,891.5313 Q366.4063,891.6875 366.9688,891.9844 L366.9688,894.7031 Q366.3438,894.125 365.75,893.8594 Q365.1563,893.5781 364.5313,893.5781 Q363.1875,893.5781 362.5,894.6563 Q361.8125,895.7188 361.8125,897.8125 Q361.8125,899.9063 362.5,900.9844 Q363.1875,902.0469 364.5313,902.0469 Q365.1563,902.0469 365.75,901.7813 Q366.3438,901.5 366.9688,900.9219 L366.9688,903.6406 Z "/><text fill="#000000" font-family="sans-serif" font-size="12" lengthAdjust="spacingAndGlyphs" textLength="76" x="378" y="902.1543">OutputNode</text><!--class Camera--><rect fill="#FEFECE" filter="url(#ffjhnyp3rrbj1)" height="32" id="Camera" style="stroke: #A80036; stroke-width: 1.5;" width="80" x="2299" y="336"/><ellipse cx="2314" cy="352" fill="#ADD1B2" rx="11" ry="11" style="stroke: #A80036; stroke-width: 1.0;"/><path d="M2316.9688,357.6406 Q2316.3906,357.9375 2315.75,358.0781 Q2315.1094,358.2344 2314.4063,358.2344 Q2311.9063,358.2344 2310.5781,356.5938 Q2309.2656,354.9375 2309.2656,351.8125 Q2309.2656,348.6875 2310.5781,347.0313 Q2311.9063,345.375 2314.4063,345.375 Q2315.1094,345.375 2315.75,345.5313 Q2316.4063,345.6875 2316.9688,345.9844 L2316.9688,348.7031 Q2316.3438,348.125 2315.75,347.8594 Q2315.1563,347.5781 2314.5313,347.5781 Q2313.1875,347.5781 2312.5,348.6563 Q2311.8125,349.7188 2311.8125,351.8125 Q2311.8125,353.9063 2312.5,354.9844 Q2313.1875,356.0469 2314.5313,356.0469 Q2315.1563,356.0469 2315.75,355.7813 Q2316.3438,355.5 2316.9688,354.9219 L2316.9688,357.6406 Z "/><text fill="#000000" font-family="sans-serif" font-size="12" lengthAdjust="spacingAndGlyphs" textLength="48" x="2328" y="356.1543">Camera</text><!--class Terrain--><rect fill="#FEFECE" filter="url(#ffjhnyp3rrbj1)" height="32" id="Terrain" style="stroke: #A80036; stroke-width: 1.5;" width="76" x="2091" y="336"/><ellipse cx="2106" cy="352" fill="#ADD1B2" rx="11" ry="11" style="stroke: #A80036; stroke-width: 1.0;"/><path d="M2108.9688,357.6406 Q2108.3906,357.9375 2107.75,358.0781 Q2107.1094,358.2344 2106.4063,358.2344 Q2103.9063,358.2344 2102.5781,356.5938 Q2101.2656,354.9375 2101.2656,351.8125 Q2101.2656,348.6875 2102.5781,347.0313 Q2103.9063,345.375 2106.4063,345.375 Q2107.1094,345.375 2107.75,345.5313 Q2108.4063,345.6875 2108.9688,345.9844 L2108.9688,348.7031 Q2108.3438,348.125 2107.75,347.8594 Q2107.1563,347.5781 2106.5313,347.5781 Q2105.1875,347.5781 2104.5,348.6563 Q2103.8125,349.7188 2103.8125,351.8125 Q2103.8125,353.9063 2104.5,354.9844 Q2105.1875,356.0469 2106.5313,356.0469 Q2107.1563,356.0469 2107.75,355.7813 Q2108.3438,355.5 2108.9688,354.9219 L2108.9688,357.6406 Z "/><text fill="#000000" font-family="sans-serif" font-size="12" lengthAdjust="spacingAndGlyphs" textLength="44" x="2120" y="356.1543">Terrain</text><!--class Light--><rect fill="#FEFECE" filter="url(#ffjhnyp3rrbj1)" height="32" id="Light" style="stroke: #A80036; stroke-width: 1.5;" width="62" x="2202" y="336"/><ellipse cx="2217" cy="352" fill="#ADD1B2" rx="11" ry="11" style="stroke: #A80036; stroke-width: 1.0;"/><path d="M2219.9688,357.6406 Q2219.3906,357.9375 2218.75,358.0781 Q2218.1094,358.2344 2217.4063,358.2344 Q2214.9063,358.2344 2213.5781,356.5938 Q2212.2656,354.9375 2212.2656,351.8125 Q2212.2656,348.6875 2213.5781,347.0313 Q2214.9063,345.375 2217.4063,345.375 Q2218.1094,345.375 2218.75,345.5313 Q2219.4063,345.6875 2219.9688,345.9844 L2219.9688,348.7031 Q2219.3438,348.125 2218.75,347.8594 Q2218.1563,347.5781 2217.5313,347.5781 Q2216.1875,347.5781 2215.5,348.6563 Q2214.8125,349.7188 2214.8125,351.8125 Q2214.8125,353.9063 2215.5,354.9844 Q2216.1875,356.0469 2217.5313,356.0469 Q2218.1563,356.0469 2218.75,355.7813 Q2219.3438,355.5 2219.9688,354.9219 L2219.9688,357.6406 Z "/><text fill="#000000" font-family="sans-serif" font-size="12" lengthAdjust="spacingAndGlyphs" textLength="30" x="2231" y="356.1543">Light</text><!--class Stencil--><rect fill="#FEFECE" filter="url(#ffjhnyp3rrbj1)" height="32" id="Stencil" style="stroke: #A80036; stroke-width: 1.5;" width="74" x="552" y="432"/><ellipse cx="567" cy="448" fill="#ADD1B2" rx="11" ry="11" style="stroke: #A80036; stroke-width: 1.0;"/><path d="M569.9688,453.6406 Q569.3906,453.9375 568.75,454.0781 Q568.1094,454.2344 567.4063,454.2344 Q564.9063,454.2344 563.5781,452.5938 Q562.2656,450.9375 562.2656,447.8125 Q562.2656,444.6875 563.5781,443.0313 Q564.9063,441.375 567.4063,441.375 Q568.1094,441.375 568.75,441.5313 Q569.4063,441.6875 569.9688,441.9844 L569.9688,444.7031 Q569.3438,444.125 568.75,443.8594 Q568.1563,443.5781 567.5313,443.5781 Q566.1875,443.5781 565.5,444.6563 Q564.8125,445.7188 564.8125,447.8125 Q564.8125,449.9063 565.5,450.9844 Q566.1875,452.0469 567.5313,452.0469 Q568.1563,452.0469 568.75,451.7813 Q569.3438,451.5 569.9688,450.9219 L569.9688,453.6406 Z "/><text fill="#000000" font-family="sans-serif" font-size="12" lengthAdjust="spacingAndGlyphs" textLength="42" x="581" y="452.1543">Stencil</text><!--class Texture--><rect fill="#FEFECE" filter="url(#ffjhnyp3rrbj1)" height="32" id="Texture" style="stroke: #A80036; stroke-width: 1.5;" width="79" x="844.5" y="432"/><ellipse cx="859.5" cy="448" fill="#ADD1B2" rx="11" ry="11" style="stroke: #A80036; stroke-width: 1.0;"/><path d="M862.4688,453.6406 Q861.8906,453.9375 861.25,454.0781 Q860.6094,454.2344 859.9063,454.2344 Q857.4063,454.2344 856.0781,452.5938 Q854.7656,450.9375 854.7656,447.8125 Q854.7656,444.6875 856.0781,443.0313 Q857.4063,441.375 859.9063,441.375 Q860.6094,441.375 861.25,441.5313 Q861.9063,441.6875 862.4688,441.9844 L862.4688,444.7031 Q861.8438,444.125 861.25,443.8594 Q860.6563,443.5781 860.0313,443.5781 Q858.6875,443.5781 858,444.6563 Q857.3125,445.7188 857.3125,447.8125 Q857.3125,449.9063 858,450.9844 Q858.6875,452.0469 860.0313,452.0469 Q860.6563,452.0469 861.25,451.7813 Q861.8438,451.5 862.4688,450.9219 L862.4688,453.6406 Z "/><text fill="#000000" font-family="sans-serif" font-size="12" lengthAdjust="spacingAndGlyphs" textLength="47" x="873.5" y="452.1543">Texture</text><!--link Qt.QMainWindow to MainWindow--><path d="M1131,95.1994 C1131,95.1994 1131,135.9863 1131,135.9863 " fill="none" id="Qt.QMainWindow-MainWindow" style="stroke: #A80036; stroke-width: 1.0;"/><polygon fill="none" points="1124.0001,95.1994,1131,75.1994,1138.0001,95.1993,1124.0001,95.1994" style="stroke: #A80036; stroke-width: 1.0;"/><!--link MainWindow to NodeEditor--><path d="M1063.9252,144 C1063.9252,144 256,144 256,144 C256,144 256,202.5 256,231.75 " fill="none" id="MainWindow-NodeEditor" style="stroke: #A80036; stroke-width: 1.0;"/><polygon fill="#A80036" points="1076.9252,144,1070.9252,140,1064.9252,144,1070.9252,148,1076.9252,144" style="stroke: #A80036; stroke-width: 1.0;"/><!--link MainWindow to OpenGL--><path d="M1198.3032,143 C1198.3032,143 2060,143 2060,143 C2060,143 2060,202.0625 2060,231.5937 " fill="none" id="MainWindow-OpenGL" style="stroke: #A80036; stroke-width: 1.0;"/><polygon fill="#A80036" points="1185.3032,143,1191.3032,147,1197.3032,143,1191.3032,139,1185.3032,143" style="stroke: #A80036; stroke-width: 1.0;"/><!--link MainWindow to Settings--><path d="M1063.9529,160 C1063.9529,160 891.5,160 891.5,160 C891.5,160 891.5,203.0238 891.5,228.9053 " fill="none" id="MainWindow-Settings" style="stroke: #A80036; stroke-width: 1.0; stroke-dasharray: 7.0,7.0;"/><polygon fill="#FFFFFF" points="1076.9529,160,1070.9529,156,1064.9529,160,1070.9529,164,1076.9529,160" style="stroke: #A80036; stroke-width: 1.0;"/><!--link MainWindow to DrawingDialogue--><path d="M1082.8333,181.2851 C1082.8333,181.2851 1082.8333,248 1082.8333,248 C1082.8333,248 1080.846,248 1077.5234,248 " fill="none" id="MainWindow-DrawingDialogue" style="stroke: #A80036; stroke-width: 1.0; stroke-dasharray: 7.0,7.0;"/><polygon fill="#FFFFFF" points="1082.8333,168.2851,1078.8333,174.2851,1082.8333,180.2851,1086.8333,174.2851,1082.8333,168.2851" style="stroke: #A80036; stroke-width: 1.0;"/><!--link MainWindow to StencilList--><path d="M1063.8877,152 C1063.8877,152 750.5,152 750.5,152 C750.5,152 750.5,282.7648 750.5,332.8232 " fill="none" id="MainWindow-StencilList" style="stroke: #A80036; stroke-width: 1.0; stroke-dasharray: 7.0,7.0;"/><polygon fill="#FFFFFF" points="1076.8877,152,1070.8877,148,1064.8877,152,1070.8877,156,1076.8877,152" style="stroke: #A80036; stroke-width: 1.0;"/><!--link MainWindow to TextureList--><path d="M1088.1667,181.2067 C1088.1667,181.2067 1088.1667,346 1088.1667,346 C1088.1667,346 1074.6804,346 1058.7708,346 " fill="none" id="MainWindow-TextureList" style="stroke: #A80036; stroke-width: 1.0; stroke-dasharray: 7.0,7.0;"/><polygon fill="#FFFFFF" points="1088.1667,168.2067,1084.1667,174.2067,1088.1667,180.2067,1092.1667,174.2067,1088.1667,168.2067" style="stroke: #A80036; stroke-width: 1.0;"/><!--link MainWindow to Ui.MainWindow--><path d="M1185.1979,162 C1303.2246,162 1573,162 1573,162 C1573,162 1573,327.7362 1573,327.7362 " fill="none" id="MainWindow-Ui.MainWindow" style="stroke: #A80036; stroke-width: 1.0; stroke-dasharray: 7.0,7.0;"/><polygon fill="#A80036" points="1573,332.7362,1577,323.7362,1573,327.7362,1569,323.7362,1573,332.7362" style="stroke: #A80036; stroke-width: 1.0;"/><!--link MainWindow to Ui.SaveAsDialogue--><path d="M1185.0118,149 C1347.8728,149 1823,149 1823,149 C1823,149 1823,327.9023 1823,327.9023 " fill="none" id="MainWindow-Ui.SaveAsDialogue" style="stroke: #A80036; stroke-width: 1.0; stroke-dasharray: 7.0,7.0;"/><polygon fill="#A80036" points="1823,332.9023,1827,323.9023,1823,327.9023,1819,323.9023,1823,332.9023" style="stroke: #A80036; stroke-width: 1.0;"/><!--link MainWindow to Ui.Help--><path d="M1185.0457,156 C1325.6477,156 1692,156 1692,156 C1692,156 1692,327.8498 1692,327.8498 " fill="none" id="MainWindow-Ui.Help" style="stroke: #A80036; stroke-width: 1.0; stroke-dasharray: 7.0,7.0;"/><polygon fill="#A80036" points="1692,332.8498,1696,323.8498,1692,327.8498,1688,323.8498,1692,332.8498" style="stroke: #A80036; stroke-width: 1.0;"/><!--link NodeEditor to QtNodes.FlowView--><path d="M191.9235,243 C191.9235,243 51.5,243 51.5,243 C51.5,243 51.5,305.5965 51.5,335.9167 " fill="none" id="NodeEditor-QtNodes.FlowView" style="stroke: #A80036; stroke-width: 1.0;"/><polygon fill="#A80036" points="204.9235,243,198.9235,239,192.9235,243,198.9235,247,204.9235,243" style="stroke: #A80036; stroke-width: 1.0;"/><!--link NodeEditor to QtNodes.FlowScene--><path d="M191.8475,254 C191.8475,254 116.5,254 116.5,254 C116.5,254 116.5,464.0343 116.5,524.7473 " fill="none" id="NodeEditor-QtNodes.FlowScene" style="stroke: #A80036; stroke-width: 1.0;"/><polygon fill="#A80036" points="204.8475,254,198.8475,250,192.8475,254,198.8475,258,204.8475,254" style="stroke: #A80036; stroke-width: 1.0;"/><!--link NodeEditor to QtNodes.DataModelRegistry--><path d="M275.75,264.25 C275.75,264.25 275.75,330.8641 275.75,330.8641 " fill="none" id="NodeEditor-QtNodes.DataModelRegistry" style="stroke: #A80036; stroke-width: 1.0;"/><polygon fill="#A80036" points="275.75,335.8641,279.75,326.8641,275.75,330.8641,271.75,326.8641,275.75,335.8641" style="stroke: #A80036; stroke-width: 1.0;"/><!--link NodeEditor to QtNodes.Node--><path d="M227,264.25 C227,293.5 227,352 227,352 C227,352 214.5124,352 214.5124,352 " fill="none" id="NodeEditor-QtNodes.Node" style="stroke: #A80036; stroke-width: 1.0; stroke-dasharray: 7.0,7.0;"/><polygon fill="#A80036" points="209.5124,352,218.5124,356,214.5124,352,218.5124,348,209.5124,352" style="stroke: #A80036; stroke-width: 1.0;"/><!--link Qt.QGraphicsView to QtNodes.FlowView--><path d="M916.5,95.1732 C916.5,95.1732 916.5,289 916.5,289 C916.5,289 80.5,289 80.5,289 C80.5,289 80.5,317.1095 80.5,335.7759 " fill="none" id="Qt.QGraphicsView-QtNodes.FlowView" style="stroke: #A80036; stroke-width: 1.0;"/><polygon fill="none" points="909.5001,95.1732,916.5,75.1732,923.5001,95.1731,909.5001,95.1732" style="stroke: #A80036; stroke-width: 1.0;"/><!--link Qt.QGraphicsScene to QtNodes.FlowScene--><path d="M722.2178,59 C722.2178,59 113,59 113,59 C113,59 113,441.3286 113,524.963 " fill="none" id="Qt.QGraphicsScene-QtNodes.FlowScene" style="stroke: #A80036; stroke-width: 1.0;"/><polygon fill="none" points="722.2179,51.9999,742.2178,59,722.2178,65.9999,722.2179,51.9999" style="stroke: #A80036; stroke-width: 1.0;"/><!--link QtNodes.FlowView to QtNodes.FlowScene--><path d="M66,368.114 C66,368.114 66,519.9268 66,519.9268 " fill="none" id="QtNodes.FlowView-QtNodes.FlowScene" style="stroke: #A80036; stroke-width: 1.0; stroke-dasharray: 7.0,7.0;"/><polygon fill="#A80036" points="66,524.9268,70,515.9268,66,519.9268,62,515.9268,66,524.9268" style="stroke: #A80036; stroke-width: 1.0;"/><!--link QtNodes.FlowScene to QtNodes.NodeDataModel--><path d="M120.2762,541 C147.9574,541 177,541 177,541 C177,541 177,690.9127 177,690.9127 " fill="none" id="QtNodes.FlowScene-QtNodes.NodeDataModel" style="stroke: #A80036; stroke-width: 1.0; stroke-dasharray: 7.0,7.0;"/><polygon fill="#A80036" points="177,695.9127,181,686.9127,177,690.9127,173,686.9127,177,695.9127" style="stroke: #A80036; stroke-width: 1.0;"/><!--link QtNodes.NodeDataModel to Node--><path d="M294.3143,712 C294.3143,712 322,712 322,712 C322,712 322,762.1555 322,788.8006 " fill="none" id="QtNodes.NodeDataModel-Node" style="stroke: #A80036; stroke-width: 1.0;"/><polygon fill="none" points="294.3143,718.9999,274.3143,712,294.3142,704.9999,294.3143,718.9999" style="stroke: #A80036; stroke-width: 1.0;"/><!--link Node to OutputNode--><path d="M372.0637,805 C372.0637,805 374,805 374,805 C374,805 374,855.1555 374,881.8006 " fill="none" id="Node-OutputNode" style="stroke: #A80036; stroke-width: 1.0;"/><polygon fill="none" points="374.6372,811.9999,354.6371,805,374.6371,797.9999,374.6372,811.9999" style="stroke: #A80036; stroke-width: 1.0;"/><!--link NodeEditor to OutputNode--><path d="M307.2399,248 C357.0545,248 425.25,248 425.25,248 C425.25,248 425.25,876.9325 425.25,876.9325 " fill="none" id="NodeEditor-OutputNode" style="stroke: #A80036; stroke-width: 1.0; stroke-dasharray: 7.0,7.0;"/><polygon fill="#A80036" points="425.25,881.9325,429.25,872.9325,425.25,876.9325,421.25,872.9325,425.25,881.9325" style="stroke: #A80036; stroke-width: 1.0;"/><text fill="#000000" font-family="sans-serif" font-size="13" lengthAdjust="spacingAndGlyphs" textLength="87" x="447" y="600.0669">Active Output</text><!--link Qt.QOpenGLWidget to OpenGL--><path d="M1324,95.0625 C1324,95.0625 1324,240 1324,240 C1324,240 1866.32,240 2019.9068,240 " fill="none" id="Qt.QOpenGLWidget-OpenGL" style="stroke: #A80036; stroke-width: 1.0;"/><polygon fill="none" points="1317.0001,95.0626,1324,75.0625,1331.0001,95.0625,1317.0001,95.0626" style="stroke: #A80036; stroke-width: 1.0;"/><!--link Qt.QObject to Camera--><path d="M1493.6888,59 C1493.6888,59 2352.3333,59 2352.3333,59 C2352.3333,59 2352.3333,274.4055 2352.3333,335.8297 " fill="none" id="Qt.QObject-Camera" style="stroke: #A80036; stroke-width: 1.0;"/><polygon fill="none" points="1493.6889,65.9999,1473.6888,59,1493.6888,51.9999,1493.6889,65.9999" style="stroke: #A80036; stroke-width: 1.0;"/><!--link OpenGL to Camera--><path d="M2113.0606,243 C2113.0606,243 2325.6667,243 2325.6667,243 C2325.6667,243 2325.6667,305.5965 2325.6667,335.9167 " fill="none" id="OpenGL-Camera" style="stroke: #A80036; stroke-width: 1.0;"/><polygon fill="#A80036" points="2100.0606,243,2106.0606,247,2112.0606,243,2106.0606,239,2100.0606,243" style="stroke: #A80036; stroke-width: 1.0;"/><!--link OpenGL to Terrain--><path d="M2095.5,277.25 C2095.5,277.25 2095.5,335.8641 2095.5,335.8641 " fill="none" id="OpenGL-Terrain" style="stroke: #A80036; stroke-width: 1.0;"/><polygon fill="#A80036" points="2095.5,264.25,2091.5,270.25,2095.5,276.25,2099.5,270.25,2095.5,264.25" style="stroke: #A80036; stroke-width: 1.0;"/><!--link OpenGL to Light--><path d="M2113.1245,254 C2113.1245,254 2233,254 2233,254 C2233,254 2233,307.9825 2233,335.8173 " fill="none" id="OpenGL-Light" style="stroke: #A80036; stroke-width: 1.0;"/><polygon fill="#A80036" points="2100.1245,254,2106.1245,258,2112.1245,254,2106.1245,250,2100.1245,254" style="stroke: #A80036; stroke-width: 1.0;"/><!--link OpenGL to Ui.OpenGLControls--><path d="M2038,264.25 C2038,264.25 2038,327.6821 2038,327.6821 " fill="none" id="OpenGL-Ui.OpenGLControls" style="stroke: #A80036; stroke-width: 1.0; stroke-dasharray: 7.0,7.0;"/><polygon fill="#A80036" points="2038,332.6821,2042,323.6821,2038,327.6821,2034,323.6821,2038,332.6821" style="stroke: #A80036; stroke-width: 1.0;"/><!--link DrawingDialogue to StencilList--><path d="M949,280.3616 C949,280.3616 949,346 949,346 C949,346 829.1904,346 758.5215,346 " fill="none" id="DrawingDialogue-StencilList" style="stroke: #A80036; stroke-width: 1.0; stroke-dasharray: 7.0,7.0;"/><polygon fill="#FFFFFF" points="949,267.3616,945,273.3616,949,279.3616,953,273.3616,949,267.3616" style="stroke: #A80036; stroke-width: 1.0;"/><!--link DrawingDialogue to TextureList--><path d="M1008,280.0752 C1008,280.0752 1008,332.6935 1008,332.6935 " fill="none" id="DrawingDialogue-TextureList" style="stroke: #A80036; stroke-width: 1.0; stroke-dasharray: 7.0,7.0;"/><polygon fill="#FFFFFF" points="1008,267.0752,1004,273.0752,1008,279.0752,1012,273.0752,1008,267.0752" style="stroke: #A80036; stroke-width: 1.0;"/><!--link DrawingDialogue to Stencil--><path d="M944.75,267.2444 C944.75,285.7715 944.75,311 944.75,311 C944.75,311 576.6667,311 576.6667,311 C576.6667,311 576.6667,426.7463 576.6667,426.7463 " fill="none" id="DrawingDialogue-Stencil" style="stroke: #A80036; stroke-width: 1.0; stroke-dasharray: 7.0,7.0;"/><polygon fill="#A80036" points="576.6667,431.7463,580.6667,422.7463,576.6667,426.7463,572.6667,422.7463,576.6667,431.7463" style="stroke: #A80036; stroke-width: 1.0;"/><text fill="#000000" font-family="sans-serif" font-size="13" lengthAdjust="spacingAndGlyphs" textLength="86" x="535" y="356.5669">Active Stencil</text><!--link DrawingDialogue to Texture--><path d="M953.25,267.1768 C953.25,317.2352 953.25,448 953.25,448 C953.25,448 928.8818,448 928.8818,448 " fill="none" id="DrawingDialogue-Texture" style="stroke: #A80036; stroke-width: 1.0; stroke-dasharray: 7.0,7.0;"/><polygon fill="#A80036" points="923.8818,448,932.8818,452,928.8818,448,932.8818,444,923.8818,448" style="stroke: #A80036; stroke-width: 1.0;"/><text fill="#000000" font-family="sans-serif" font-size="13" lengthAdjust="spacingAndGlyphs" textLength="91" x="830" y="356.5669">Active Texture</text><!--link DrawingDialogue to Ui.TextureDrawing--><path d="M1068,267.0816 C1068,298.8181 1068,359 1068,359 C1068,359 1088.07,359 1088.07,359 " fill="none" id="DrawingDialogue-Ui.TextureDrawing" style="stroke: #A80036; stroke-width: 1.0; stroke-dasharray: 7.0,7.0;"/><polygon fill="#A80036" points="1093.07,359,1084.07,355,1088.07,359,1084.07,363,1093.07,359" style="stroke: #A80036; stroke-width: 1.0;"/><!--link DrawingDialogue to Ui.TextureDrawingCancelDialogue--><path d="M1077.6244,256 C1161.0971,256 1291,256 1291,256 C1291,256 1291,327.573 1291,327.573 " fill="none" id="DrawingDialogue-Ui.TextureDrawingCancelDialogue" style="stroke: #A80036; stroke-width: 1.0; stroke-dasharray: 7.0,7.0;"/><polygon fill="#A80036" points="1291,332.573,1295,323.573,1291,327.573,1287,323.573,1291,332.573" style="stroke: #A80036; stroke-width: 1.0;"/><!--link StencilList to Stencil--><path d="M644.478,352 C644.478,352 601.3333,352 601.3333,352 C601.3333,352 601.3333,404.3257 601.3333,431.7149 " fill="none" id="StencilList-Stencil" style="stroke: #A80036; stroke-width: 1.0;"/><polygon fill="#A80036" points="657.478,352,651.478,348,645.478,352,651.478,356,657.478,352" style="stroke: #A80036; stroke-width: 1.0;"/><text fill="#000000" font-family="sans-serif" font-size="13" lengthAdjust="spacingAndGlyphs" textLength="23" x="578.6093" y="420.925">1..*</text><!--link TextureList to Texture--><path d="M944.3199,359 C944.3199,359 920,359 920,359 C920,359 920,405.9825 920,431.676 " fill="none" id="TextureList-Texture" style="stroke: #A80036; stroke-width: 1.0;"/><polygon fill="#A80036" points="957.3199,359,951.3199,355,945.3199,359,951.3199,363,957.3199,359" style="stroke: #A80036; stroke-width: 1.0;"/><text fill="#000000" font-family="sans-serif" font-size="13" lengthAdjust="spacingAndGlyphs" textLength="23" x="905.1156" y="420.8732">1..*</text><!--
@startuml
skinparam linetype ortho

class DrawingDialogue << (s,#FF6600) Singleton >>
class StencilList << (s,#FF6600) Singleton >>
class TextureList << (s,#FF6600) Singleton >>
class Settings << (s,#FF6600) Singleton >>

namespace Ui {
    class MainWindow << (U,#27940B) UI >>
    class SaveAsDialogue << (U,#27940B) UI >>
    class Help << (U,#27940B) UI >>
    class OpenGLControls << (U,#27940B) UI >>
    class SaveAsDialogue << (U,#27940B) UI >>
    class TextureDrawing << (U,#27940B) UI >>
    class TextureDrawingCancelDialogue << (U,#27940B) UI >>
}

namespace QtNodes {
    class FlowView [[https://github.com/paceholder/nodeeditor/blob/master/include/nodes/internal/FlowView.hpp]]
    class FlowScene [[https://github.com/paceholder/nodeeditor/blob/master/include/nodes/internal/FlowScene.hpp]]
    class Node [[https://github.com/paceholder/nodeeditor/blob/master/include/nodes/internal/Node.hpp]]
    class DataModelRegistry [[https://github.com/paceholder/nodeeditor/blob/master/include/nodes/internal/DataModelRegistry.hpp]]
    class NodeDataModel [[https://github.com/paceholder/nodeeditor/blob/master/include/nodes/internal/NodeDataModel.hpp]]
}

namespace Qt {
    class QOpenGLWidget [[https://doc.qt.io/qt-5/qopenglwidget.html]]
    class QMainWindow [[https://doc.qt.io/qt-5/qmainwindow.html]]
    class QObject [[https://doc.qt.io/qt-5/qobject.html]]
    class QGraphicsView [[https://doc.qt.io/qt-5/qgraphicsview.html]]
    class QGraphicsScene [[https://doc.qt.io/qt-5/qgraphicsscene.html]]
}

' MainWindow
Qt.QMainWindow <|- - MainWindow
MainWindow *- - NodeEditor
MainWindow *- - OpenGL
MainWindow o.. Settings
MainWindow o.. DrawingDialogue
MainWindow o.. StencilList
MainWindow o.. TextureList
MainWindow ..> Ui.MainWindow
MainWindow ..> Ui.SaveAsDialogue
MainWindow ..> Ui.Help

' Nodeeditor
NodeEditor *- - QtNodes.FlowView
NodeEditor *- - QtNodes.FlowScene
NodeEditor - -> QtNodes.DataModelRegistry
NodeEditor ..> QtNodes.Node

Qt.QGraphicsView <|- - QtNodes.FlowView
Qt.QGraphicsScene <|- - QtNodes.FlowScene

QtNodes.FlowView ..> QtNodes.FlowScene
QtNodes.FlowScene ..> QtNodes.NodeDataModel

class Node [[Classes_Node.svg]]

QtNodes.NodeDataModel <|- - Node

Node <|- - OutputNode

NodeEditor ..> OutputNode : Active Output

' OpenGL
Qt.QOpenGLWidget <|- - OpenGL
Qt.QObject <|- - Camera
OpenGL *- - Camera
OpenGL *- - Terrain
OpenGL *- - Light
OpenGL ..> Ui.OpenGLControls

' DrawingDialogue
DrawingDialogue o.. StencilList
DrawingDialogue o.. TextureList
DrawingDialogue ..> Stencil : Active Stencil
DrawingDialogue ..> Texture : Active Texture

DrawingDialogue ..> Ui.TextureDrawing
DrawingDialogue ..> Ui.TextureDrawingCancelDialogue

' StencilList
StencilList *- - "1..*" Stencil

' TextureList
TextureList *- - "1..*" Texture

hide members
@enduml

PlantUML version 1.2017.15(Mon Jul 03 16:45:34 UTC 2017)
(GPL source distribution)
Java Runtime: OpenJDK Runtime Environment
JVM: OpenJDK 64-Bit Server VM
Java Version: 1.8.0_252-b09
Operating System: Linux
OS Version: 5.3.0-1031-azure
Default Encoding: UTF-8
Language: en
Country: null
--></g></svg>