<?xml version="1.0" encoding="UTF-8" standalone="no"?><svg xmlns="http://www.w3.org/2000/svg" xmlns:xlink="http://www.w3.org/1999/xlink" contentScriptType="application/ecmascript" contentStyleType="text/css" height="773px" preserveAspectRatio="none" style="width:1739px;height:773px;" version="1.1" viewBox="0 0 1739 773" width="1739px" zoomAndPan="magnify"><defs><filter height="300%" id="f10fuwhox6wqx" width="300%" x="-1" y="-1"><feGaussianBlur result="blurOut" stdDeviation="2.0"/><feColorMatrix in="blurOut" result="blurOut2" type="matrix" values="0 0 0 0 0 0 0 0 0 0 0 0 0 0 0 0 0 0 .4 0"/><feOffset dx="4.0" dy="4.0" in="blurOut2" result="blurOut3"/><feBlend in="SourceGraphic" in2="blurOut3" mode="normal"/></filter></defs><g><ellipse cx="860.5" cy="20" fill="#000000" filter="url(#f10fuwhox6wqx)" rx="10" ry="10" style="stroke: none; stroke-width: 1.0;"/><rect fill="#FEFECE" filter="url(#f10fuwhox6wqx)" height="33.9688" rx="12.5" ry="12.5" style="stroke: #A80036; stroke-width: 1.5;" width="123" x="799" y="50"/><text fill="#000000" font-family="sans-serif" font-size="12" lengthAdjust="spacingAndGlyphs" textLength="103" x="809" y="71.1387">Load Application</text><a target="_top" xlink:actuate="onRequest" xlink:href="Load_Sequence.svg" xlink:show="new" xlink:title="Load_Sequence.svg" xlink:type="simple"><rect fill="#FEFECE" filter="url(#f10fuwhox6wqx)" height="33.9688" rx="12.5" ry="12.5" style="stroke: #A80036; stroke-width: 1.5;" width="137" x="792" y="152.3711"/><text fill="#000000" font-family="sans-serif" font-size="12" lengthAdjust="spacingAndGlyphs" textLength="117" x="802" y="173.5098">MainWindow.load()</text></a><polygon fill="#FEFECE" filter="url(#f10fuwhox6wqx)" points="820.5,103.9688,900.5,103.9688,912.5,115.9688,900.5,127.9688,820.5,127.9688,808.5,115.9688,820.5,103.9688" style="stroke: #A80036; stroke-width: 1.5;"/><text fill="#000000" font-family="sans-serif" font-size="11" lengthAdjust="spacingAndGlyphs" textLength="20" x="864.5" y="138.1792">yes</text><text fill="#000000" font-family="sans-serif" font-size="11" lengthAdjust="spacingAndGlyphs" textLength="80" x="820.5" y="119.7769">Load Save file</text><polygon fill="#FEFECE" filter="url(#f10fuwhox6wqx)" points="860.5,206.3398,872.5,218.3398,860.5,230.3398,848.5,218.3398,860.5,206.3398" style="stroke: #A80036; stroke-width: 1.5;"/><polygon fill="#FEFECE" filter="url(#f10fuwhox6wqx)" points="32,294.3398,130,294.3398,142,306.3398,130,318.3398,32,318.3398,20,306.3398,32,294.3398" style="stroke: #A80036; stroke-width: 1.5;"/><text fill="#000000" font-family="sans-serif" font-size="11" lengthAdjust="spacingAndGlyphs" textLength="20" x="85" y="328.5503">yes</text><text fill="#000000" font-family="sans-serif" font-size="11" lengthAdjust="spacingAndGlyphs" textLength="98" x="32" y="310.1479">user create node</text><rect fill="#FEFECE" filter="url(#f10fuwhox6wqx)" height="33.9688" rx="12.5" ry="12.5" style="stroke: #A80036; stroke-width: 1.5;" width="98" x="32" y="350.0503"/><text fill="#000000" font-family="sans-serif" font-size="12" lengthAdjust="spacingAndGlyphs" textLength="78" x="42" y="371.189">Create node</text><polygon fill="#FEFECE" filter="url(#f10fuwhox6wqx)" points="311.5,294.3398,417.5,294.3398,429.5,306.3398,417.5,318.3398,311.5,318.3398,299.5,306.3398,311.5,294.3398" style="stroke: #A80036; stroke-width: 1.5;"/><text fill="#000000" font-family="sans-serif" font-size="11" lengthAdjust="spacingAndGlyphs" textLength="20" x="368.5" y="328.5503">yes</text><text fill="#000000" font-family="sans-serif" font-size="11" lengthAdjust="spacingAndGlyphs" textLength="106" x="311.5" y="310.1479">user connect node</text><rect fill="#FEFECE" filter="url(#f10fuwhox6wqx)" height="33.9688" rx="12.5" ry="12.5" style="stroke: #A80036; stroke-width: 1.5;" width="115" x="307" y="350.0503"/><text fill="#000000" font-family="sans-serif" font-size="12" lengthAdjust="spacingAndGlyphs" textLength="95" x="317" y="371.189">Connect nodes</text><rect fill="#000000" filter="url(#f10fuwhox6wqx)" height="6" rx="2.5" ry="2.5" style="stroke: #000000; stroke-width: 1.0;" width="388" x="170.5" y="404.019"/><polygon fill="#FBFB77" filter="url(#f10fuwhox6wqx)" points="184.5,420.019,184.5,475.4175,376.5,475.4175,376.5,430.019,366.5,420.019,184.5,420.019" style="stroke: #A80036; stroke-width: 1.0;"/><polygon fill="#FBFB77" points="184.5,420.019,184.5,475.4175,376.5,475.4175,376.5,451.7183,396.5,447.7183,376.5,443.7183,376.5,430.019,366.5,420.019,184.5,420.019" style="stroke: #A80036; stroke-width: 1.0;"/><line style="stroke: #A80036; stroke-width: 1.0;" x1="366.5" x2="366.5" y1="420.019" y2="430.019"/><line style="stroke: #A80036; stroke-width: 1.0;" x1="376.5" x2="366.5" y1="430.019" y2="430.019"/><text fill="#000000" font-family="sans-serif" font-size="13" lengthAdjust="spacingAndGlyphs" textLength="171" x="190.5" y="437.0859">If generation is to be done.</text><text fill="#000000" font-family="sans-serif" font-size="13" lengthAdjust="spacingAndGlyphs" textLength="165" x="190.5" y="452.2188">Runs in processing thread</text><text fill="#000000" font-family="sans-serif" font-size="13" lengthAdjust="spacingAndGlyphs" textLength="166" x="190.5" y="467.3516">does not block gui thread.</text><rect fill="#FEFECE" filter="url(#f10fuwhox6wqx)" height="33.9688" rx="12.5" ry="12.5" style="stroke: #A80036; stroke-width: 1.5;" width="148" x="396.5" y="430.7339"/><text fill="#000000" font-family="sans-serif" font-size="12" lengthAdjust="spacingAndGlyphs" textLength="128" x="406.5" y="451.8726">Generate node data</text><rect fill="#000000" filter="url(#f10fuwhox6wqx)" height="6" rx="2.5" ry="2.5" style="stroke: #000000; stroke-width: 1.0;" width="388" x="170.5" y="495.4175"/><line style="stroke: #A80036; stroke-width: 1.5;" x1="440.5" x2="553" y1="530.3003" y2="530.3003"/><polygon fill="#FBFB77" filter="url(#f10fuwhox6wqx)" points="176,554.7183,176,579.8511,336,579.8511,336,564.7183,326,554.7183,176,554.7183" style="stroke: #A80036; stroke-width: 1.0;"/><polygon fill="#FBFB77" points="176,554.7183,176,579.8511,336,579.8511,336,572.7183,356,567.2847,336,564.7183,336,564.7183,326,554.7183,176,554.7183" style="stroke: #A80036; stroke-width: 1.0;"/><line style="stroke: #A80036; stroke-width: 1.0;" x1="326" x2="326" y1="554.7183" y2="564.7183"/><line style="stroke: #A80036; stroke-width: 1.0;" x1="336" x2="326" y1="564.7183" y2="564.7183"/><text fill="#000000" font-family="sans-serif" font-size="13" lengthAdjust="spacingAndGlyphs" textLength="139" x="182" y="571.7852">If node is OutputNode</text><polygon fill="#FEFECE" filter="url(#f10fuwhox6wqx)" points="356,550.3003,525,550.3003,535,567.2847,525,584.269,356,584.269" style="stroke: #A80036; stroke-width: 1.5;"/><text fill="#000000" font-family="sans-serif" font-size="12" lengthAdjust="spacingAndGlyphs" textLength="149" x="366" y="571.439">emit computingFinished</text><polygon fill="#FEFECE" filter="url(#f10fuwhox6wqx)" points="382.5,604.269,508.5,604.269,498.5,621.2534,508.5,638.2378,382.5,638.2378" style="stroke: #A80036; stroke-width: 1.5;"/><text fill="#000000" font-family="sans-serif" font-size="12" lengthAdjust="spacingAndGlyphs" textLength="96" x="392.5" y="625.4077">update preview</text><line style="stroke: #A80036; stroke-width: 1.5;" x1="176" x2="553" y1="658.2378" y2="658.2378"/><polygon fill="#FEFECE" filter="url(#f10fuwhox6wqx)" points="748,294.3398,831,294.3398,843,306.3398,831,318.3398,748,318.3398,736,306.3398,748,294.3398" style="stroke: #A80036; stroke-width: 1.5;"/><text fill="#000000" font-family="sans-serif" font-size="11" lengthAdjust="spacingAndGlyphs" textLength="20" x="793.5" y="328.5503">yes</text><text fill="#000000" font-family="sans-serif" font-size="11" lengthAdjust="spacingAndGlyphs" textLength="83" x="748" y="310.1479">user edit node</text><rect fill="#FEFECE" filter="url(#f10fuwhox6wqx)" height="33.9688" rx="12.5" ry="12.5" style="stroke: #A80036; stroke-width: 1.5;" width="80" x="749.5" y="350.0503"/><text fill="#000000" font-family="sans-serif" font-size="12" lengthAdjust="spacingAndGlyphs" textLength="60" x="759.5" y="371.189">Edit node</text><rect fill="#000000" filter="url(#f10fuwhox6wqx)" height="6" rx="2.5" ry="2.5" style="stroke: #000000; stroke-width: 1.0;" width="388" x="595.5" y="404.019"/><polygon fill="#FBFB77" filter="url(#f10fuwhox6wqx)" points="777.5,420.019,777.5,475.4175,969.5,475.4175,969.5,430.019,959.5,420.019,777.5,420.019" style="stroke: #A80036; stroke-width: 1.0;"/><polygon fill="#FBFB77" points="777.5,420.019,777.5,443.7183,757.5,447.7183,777.5,451.7183,777.5,475.4175,969.5,475.4175,969.5,430.019,959.5,420.019,777.5,420.019" style="stroke: #A80036; stroke-width: 1.0;"/><line style="stroke: #A80036; stroke-width: 1.0;" x1="959.5" x2="959.5" y1="420.019" y2="430.019"/><line style="stroke: #A80036; stroke-width: 1.0;" x1="969.5" x2="959.5" y1="430.019" y2="430.019"/><text fill="#000000" font-family="sans-serif" font-size="13" lengthAdjust="spacingAndGlyphs" textLength="171" x="783.5" y="437.0859">If generation is to be done.</text><text fill="#000000" font-family="sans-serif" font-size="13" lengthAdjust="spacingAndGlyphs" textLength="165" x="783.5" y="452.2188">Runs in processing thread</text><text fill="#000000" font-family="sans-serif" font-size="13" lengthAdjust="spacingAndGlyphs" textLength="166" x="783.5" y="467.3516">does not block gui thread.</text><rect fill="#FEFECE" filter="url(#f10fuwhox6wqx)" height="33.9688" rx="12.5" ry="12.5" style="stroke: #A80036; stroke-width: 1.5;" width="148" x="609.5" y="430.7339"/><text fill="#000000" font-family="sans-serif" font-size="12" lengthAdjust="spacingAndGlyphs" textLength="128" x="619.5" y="451.8726">Generate node data</text><rect fill="#000000" filter="url(#f10fuwhox6wqx)" height="6" rx="2.5" ry="2.5" style="stroke: #000000; stroke-width: 1.0;" width="388" x="595.5" y="495.4175"/><line style="stroke: #A80036; stroke-width: 1.5;" x1="865.5" x2="978" y1="530.3003" y2="530.3003"/><polygon fill="#FBFB77" filter="url(#f10fuwhox6wqx)" points="601,554.7183,601,579.8511,761,579.8511,761,564.7183,751,554.7183,601,554.7183" style="stroke: #A80036; stroke-width: 1.0;"/><polygon fill="#FBFB77" points="601,554.7183,601,579.8511,761,579.8511,761,572.7183,781,567.2847,761,564.7183,761,564.7183,751,554.7183,601,554.7183" style="stroke: #A80036; stroke-width: 1.0;"/><line style="stroke: #A80036; stroke-width: 1.0;" x1="751" x2="751" y1="554.7183" y2="564.7183"/><line style="stroke: #A80036; stroke-width: 1.0;" x1="761" x2="751" y1="564.7183" y2="564.7183"/><text fill="#000000" font-family="sans-serif" font-size="13" lengthAdjust="spacingAndGlyphs" textLength="139" x="607" y="571.7852">If node is OutputNode</text><polygon fill="#FEFECE" filter="url(#f10fuwhox6wqx)" points="781,550.3003,950,550.3003,960,567.2847,950,584.269,781,584.269" style="stroke: #A80036; stroke-width: 1.5;"/><text fill="#000000" font-family="sans-serif" font-size="12" lengthAdjust="spacingAndGlyphs" textLength="149" x="791" y="571.439">emit computingFinished</text><polygon fill="#FEFECE" filter="url(#f10fuwhox6wqx)" points="807.5,604.269,933.5,604.269,923.5,621.2534,933.5,638.2378,807.5,638.2378" style="stroke: #A80036; stroke-width: 1.5;"/><text fill="#000000" font-family="sans-serif" font-size="12" lengthAdjust="spacingAndGlyphs" textLength="96" x="817.5" y="625.4077">update preview</text><line style="stroke: #A80036; stroke-width: 1.5;" x1="601" x2="978" y1="658.2378" y2="658.2378"/><polygon fill="#FEFECE" filter="url(#f10fuwhox6wqx)" points="1037,294.3398,1126,294.3398,1138,306.3398,1126,318.3398,1037,318.3398,1025,306.3398,1037,294.3398" style="stroke: #A80036; stroke-width: 1.5;"/><text fill="#000000" font-family="sans-serif" font-size="11" lengthAdjust="spacingAndGlyphs" textLength="20" x="1085.5" y="328.5503">yes</text><text fill="#000000" font-family="sans-serif" font-size="11" lengthAdjust="spacingAndGlyphs" textLength="89" x="1037" y="310.1479">user hits saves</text><a target="_top" xlink:actuate="onRequest" xlink:href="Save_Sequence.svg" xlink:show="new" xlink:title="Save_Sequence.svg" xlink:type="simple"><rect fill="#FEFECE" filter="url(#f10fuwhox6wqx)" height="33.9688" rx="12.5" ry="12.5" style="stroke: #A80036; stroke-width: 1.5;" width="139" x="1012" y="350.0503"/><text fill="#000000" font-family="sans-serif" font-size="12" lengthAdjust="spacingAndGlyphs" textLength="119" x="1022" y="371.189">MainWindow.save()</text></a><polygon fill="#FEFECE" filter="url(#f10fuwhox6wqx)" points="1200.5,294.3398,1293.5,294.3398,1305.5,306.3398,1293.5,318.3398,1200.5,318.3398,1188.5,306.3398,1200.5,294.3398" style="stroke: #A80036; stroke-width: 1.5;"/><text fill="#000000" font-family="sans-serif" font-size="11" lengthAdjust="spacingAndGlyphs" textLength="20" x="1251" y="328.5503">yes</text><text fill="#000000" font-family="sans-serif" font-size="11" lengthAdjust="spacingAndGlyphs" textLength="93" x="1200.5" y="310.1479">user hits render</text><a target="_top" xlink:actuate="onRequest" xlink:href="Render_Sequence.svg" xlink:show="new" xlink:title="Render_Sequence.svg" xlink:type="simple"><rect fill="#FEFECE" filter="url(#f10fuwhox6wqx)" height="33.9688" rx="12.5" ry="12.5" style="stroke: #A80036; stroke-width: 1.5;" width="152" x="1171" y="350.0503"/><text fill="#000000" font-family="sans-serif" font-size="12" lengthAdjust="spacingAndGlyphs" textLength="132" x="1181" y="371.189">MainWindow.render()</text></a><polygon fill="#FEFECE" filter="url(#f10fuwhox6wqx)" points="1355,294.3398,1510,294.3398,1522,306.3398,1510,318.3398,1355,318.3398,1343,306.3398,1355,294.3398" style="stroke: #A80036; stroke-width: 1.5;"/><text fill="#000000" font-family="sans-serif" font-size="11" lengthAdjust="spacingAndGlyphs" textLength="20" x="1436.5" y="328.5503">yes</text><text fill="#000000" font-family="sans-serif" font-size="11" lengthAdjust="spacingAndGlyphs" textLength="155" x="1355" y="310.1479">user interacts with preview</text><rect fill="#FEFECE" filter="url(#f10fuwhox6wqx)" height="33.9688" rx="12.5" ry="12.5" style="stroke: #A80036; stroke-width: 1.5;" width="117" x="1374" y="350.0503"/><text fill="#000000" font-family="sans-serif" font-size="12" lengthAdjust="spacingAndGlyphs" textLength="97" x="1384" y="371.189">Update preview</text><polygon fill="#FEFECE" filter="url(#f10fuwhox6wqx)" points="1554,294.3398,1639,294.3398,1651,306.3398,1639,318.3398,1554,318.3398,1542,306.3398,1554,294.3398" style="stroke: #A80036; stroke-width: 1.5;"/><text fill="#000000" font-family="sans-serif" font-size="11" lengthAdjust="spacingAndGlyphs" textLength="20" x="1600.5" y="328.5503">yes</text><text fill="#000000" font-family="sans-serif" font-size="11" lengthAdjust="spacingAndGlyphs" textLength="85" x="1554" y="310.1479">user hits close</text><ellipse cx="1596.5" cy="360.0503" fill="none" filter="url(#f10fuwhox6wqx)" rx="10" ry="10" style="stroke: #000000; stroke-width: 1.0;"/><ellipse cx="1597" cy="360.5503" fill="#000000" filter="url(#f10fuwhox6wqx)" rx="6" ry="6" style="stroke: none; stroke-width: 1.0;"/><polygon fill="#FEFECE" filter="url(#f10fuwhox6wqx)" points="860.5,250.3398,872.5,262.3398,860.5,274.3398,848.5,262.3398,860.5,250.3398" style="stroke: #A80036; stroke-width: 1.5;"/><polygon fill="#FEFECE" filter="url(#f10fuwhox6wqx)" points="814,698.2378,907,698.2378,919,710.2378,907,722.2378,814,722.2378,802,710.2378,814,698.2378" style="stroke: #A80036; stroke-width: 1.5;"/><text fill="#000000" font-family="sans-serif" font-size="11" lengthAdjust="spacingAndGlyphs" textLength="93" x="814" y="714.0459">application open</text><text fill="#000000" font-family="sans-serif" font-size="11" lengthAdjust="spacingAndGlyphs" textLength="20" x="919" y="707.6436">yes</text><ellipse cx="860.5" cy="752.2378" fill="none" filter="url(#f10fuwhox6wqx)" rx="10" ry="10" style="stroke: #000000; stroke-width: 1.0;"/><ellipse cx="861" cy="752.7378" fill="#000000" filter="url(#f10fuwhox6wqx)" rx="6" ry="6" style="stroke: none; stroke-width: 1.0;"/><line style="stroke: #A80036; stroke-width: 1.5;" x1="860.5" x2="860.5" y1="30" y2="50"/><polygon fill="#A80036" points="856.5,40,860.5,50,864.5,40,860.5,44" style="stroke: #A80036; stroke-width: 1.0;"/><line style="stroke: #A80036; stroke-width: 1.5;" x1="860.5" x2="860.5" y1="127.9688" y2="152.3711"/><polygon fill="#A80036" points="856.5,142.3711,860.5,152.3711,864.5,142.3711,860.5,146.3711" style="stroke: #A80036; stroke-width: 1.0;"/><line style="stroke: #A80036; stroke-width: 1.5;" x1="912.5" x2="939" y1="115.9688" y2="115.9688"/><polygon fill="#A80036" points="935,159.3555,939,169.3555,943,159.3555,939,163.3555" style="stroke: #A80036; stroke-width: 1.5;"/><line style="stroke: #A80036; stroke-width: 1.5;" x1="939" x2="939" y1="115.9688" y2="218.3398"/><line style="stroke: #A80036; stroke-width: 1.5;" x1="939" x2="872.5" y1="218.3398" y2="218.3398"/><polygon fill="#A80036" points="882.5,214.3398,872.5,218.3398,882.5,222.3398,878.5,218.3398" style="stroke: #A80036; stroke-width: 1.0;"/><line style="stroke: #A80036; stroke-width: 1.5;" x1="860.5" x2="860.5" y1="186.3398" y2="206.3398"/><polygon fill="#A80036" points="856.5,196.3398,860.5,206.3398,864.5,196.3398,860.5,200.3398" style="stroke: #A80036; stroke-width: 1.0;"/><line style="stroke: #A80036; stroke-width: 1.5;" x1="860.5" x2="860.5" y1="83.9688" y2="103.9688"/><polygon fill="#A80036" points="856.5,93.9688,860.5,103.9688,864.5,93.9688,860.5,97.9688" style="stroke: #A80036; stroke-width: 1.0;"/><line style="stroke: #A80036; stroke-width: 1.5;" x1="470.5" x2="470.5" y1="410.019" y2="430.7339"/><polygon fill="#A80036" points="466.5,420.7339,470.5,430.7339,474.5,420.7339,470.5,424.7339" style="stroke: #A80036; stroke-width: 1.0;"/><line style="stroke: #A80036; stroke-width: 1.5;" x1="470.5" x2="470.5" y1="464.7026" y2="495.4175"/><polygon fill="#A80036" points="466.5,485.4175,470.5,495.4175,474.5,485.4175,470.5,489.4175" style="stroke: #A80036; stroke-width: 1.0;"/><line style="stroke: #A80036; stroke-width: 1.5;" x1="364.5" x2="364.5" y1="384.019" y2="404.019"/><polygon fill="#A80036" points="360.5,394.019,364.5,404.019,368.5,394.019,364.5,398.019" style="stroke: #A80036; stroke-width: 1.0;"/><line style="stroke: #A80036; stroke-width: 1.5;" x1="440.5" x2="440.5" y1="584.269" y2="604.269"/><polygon fill="#A80036" points="436.5,594.269,440.5,604.269,444.5,594.269,440.5,598.269" style="stroke: #A80036; stroke-width: 1.0;"/><line style="stroke: #A80036; stroke-width: 1.5;" x1="440.5" x2="440.5" y1="531.8003" y2="550.3003"/><polygon fill="#A80036" points="436.5,540.3003,440.5,550.3003,444.5,540.3003,440.5,544.3003" style="stroke: #A80036; stroke-width: 1.0;"/><line style="stroke: #A80036; stroke-width: 1.5;" x1="553" x2="553" y1="531.8003" y2="658.2378"/><polygon fill="#A80036" points="549,648.2378,553,658.2378,557,648.2378,553,652.2378" style="stroke: #A80036; stroke-width: 1.0;"/><line style="stroke: #A80036; stroke-width: 1.5;" x1="364.5" x2="364.5" y1="501.4175" y2="530.3003"/><polygon fill="#A80036" points="360.5,520.3003,364.5,530.3003,368.5,520.3003,364.5,524.3003" style="stroke: #A80036; stroke-width: 1.0;"/><line style="stroke: #A80036; stroke-width: 1.5;" x1="683.5" x2="683.5" y1="410.019" y2="430.7339"/><polygon fill="#A80036" points="679.5,420.7339,683.5,430.7339,687.5,420.7339,683.5,424.7339" style="stroke: #A80036; stroke-width: 1.0;"/><line style="stroke: #A80036; stroke-width: 1.5;" x1="683.5" x2="683.5" y1="464.7026" y2="495.4175"/><polygon fill="#A80036" points="679.5,485.4175,683.5,495.4175,687.5,485.4175,683.5,489.4175" style="stroke: #A80036; stroke-width: 1.0;"/><line style="stroke: #A80036; stroke-width: 1.5;" x1="789.5" x2="789.5" y1="384.019" y2="404.019"/><polygon fill="#A80036" points="785.5,394.019,789.5,404.019,793.5,394.019,789.5,398.019" style="stroke: #A80036; stroke-width: 1.0;"/><line style="stroke: #A80036; stroke-width: 1.5;" x1="865.5" x2="865.5" y1="584.269" y2="604.269"/><polygon fill="#A80036" points="861.5,594.269,865.5,604.269,869.5,594.269,865.5,598.269" style="stroke: #A80036; stroke-width: 1.0;"/><line style="stroke: #A80036; stroke-width: 1.5;" x1="865.5" x2="865.5" y1="531.8003" y2="550.3003"/><polygon fill="#A80036" points="861.5,540.3003,865.5,550.3003,869.5,540.3003,865.5,544.3003" style="stroke: #A80036; stroke-width: 1.0;"/><line style="stroke: #A80036; stroke-width: 1.5;" x1="978" x2="978" y1="531.8003" y2="658.2378"/><polygon fill="#A80036" points="974,648.2378,978,658.2378,982,648.2378,978,652.2378" style="stroke: #A80036; stroke-width: 1.0;"/><line style="stroke: #A80036; stroke-width: 1.5;" x1="789.5" x2="789.5" y1="501.4175" y2="530.3003"/><polygon fill="#A80036" points="785.5,520.3003,789.5,530.3003,793.5,520.3003,789.5,524.3003" style="stroke: #A80036; stroke-width: 1.0;"/><line style="stroke: #A80036; stroke-width: 1.5;" x1="81" x2="81" y1="318.3398" y2="350.0503"/><polygon fill="#A80036" points="77,340.0503,81,350.0503,85,340.0503,81,344.0503" style="stroke: #A80036; stroke-width: 1.0;"/><line style="stroke: #A80036; stroke-width: 1.5;" x1="81" x2="81" y1="384.019" y2="678.2378"/><polygon fill="#A80036" points="77,668.2378,81,678.2378,85,668.2378,81,672.2378" style="stroke: #A80036; stroke-width: 1.0;"/><line style="stroke: #A80036; stroke-width: 1.5;" x1="364.5" x2="364.5" y1="318.3398" y2="350.0503"/><polygon fill="#A80036" points="360.5,340.0503,364.5,350.0503,368.5,340.0503,364.5,344.0503" style="stroke: #A80036; stroke-width: 1.0;"/><line style="stroke: #A80036; stroke-width: 1.5;" x1="364.5" x2="364.5" y1="659.7378" y2="678.2378"/><polygon fill="#A80036" points="360.5,668.2378,364.5,678.2378,368.5,668.2378,364.5,672.2378" style="stroke: #A80036; stroke-width: 1.0;"/><line style="stroke: #A80036; stroke-width: 1.5;" x1="789.5" x2="789.5" y1="318.3398" y2="350.0503"/><polygon fill="#A80036" points="785.5,340.0503,789.5,350.0503,793.5,340.0503,789.5,344.0503" style="stroke: #A80036; stroke-width: 1.0;"/><line style="stroke: #A80036; stroke-width: 1.5;" x1="789.5" x2="789.5" y1="659.7378" y2="678.2378"/><polygon fill="#A80036" points="785.5,668.2378,789.5,678.2378,793.5,668.2378,789.5,672.2378" style="stroke: #A80036; stroke-width: 1.0;"/><line style="stroke: #A80036; stroke-width: 1.5;" x1="1081.5" x2="1081.5" y1="318.3398" y2="350.0503"/><polygon fill="#A80036" points="1077.5,340.0503,1081.5,350.0503,1085.5,340.0503,1081.5,344.0503" style="stroke: #A80036; stroke-width: 1.0;"/><line style="stroke: #A80036; stroke-width: 1.5;" x1="1081.5" x2="1081.5" y1="384.019" y2="678.2378"/><polygon fill="#A80036" points="1077.5,668.2378,1081.5,678.2378,1085.5,668.2378,1081.5,672.2378" style="stroke: #A80036; stroke-width: 1.0;"/><line style="stroke: #A80036; stroke-width: 1.5;" x1="1247" x2="1247" y1="318.3398" y2="350.0503"/><polygon fill="#A80036" points="1243,340.0503,1247,350.0503,1251,340.0503,1247,344.0503" style="stroke: #A80036; stroke-width: 1.0;"/><line style="stroke: #A80036; stroke-width: 1.5;" x1="1247" x2="1247" y1="384.019" y2="678.2378"/><polygon fill="#A80036" points="1243,668.2378,1247,678.2378,1251,668.2378,1247,672.2378" style="stroke: #A80036; stroke-width: 1.0;"/><line style="stroke: #A80036; stroke-width: 1.5;" x1="1432.5" x2="1432.5" y1="318.3398" y2="350.0503"/><polygon fill="#A80036" points="1428.5,340.0503,1432.5,350.0503,1436.5,340.0503,1432.5,344.0503" style="stroke: #A80036; stroke-width: 1.0;"/><line style="stroke: #A80036; stroke-width: 1.5;" x1="1432.5" x2="1432.5" y1="384.019" y2="678.2378"/><polygon fill="#A80036" points="1428.5,668.2378,1432.5,678.2378,1436.5,668.2378,1432.5,672.2378" style="stroke: #A80036; stroke-width: 1.0;"/><line style="stroke: #A80036; stroke-width: 1.5;" x1="1596.5" x2="1596.5" y1="318.3398" y2="350.0503"/><polygon fill="#A80036" points="1592.5,340.0503,1596.5,350.0503,1600.5,340.0503,1596.5,344.0503" style="stroke: #A80036; stroke-width: 1.0;"/><line style="stroke: #A80036; stroke-width: 1.5;" x1="142" x2="299.5" y1="306.3398" y2="306.3398"/><polygon fill="#A80036" points="289.5,302.3398,299.5,306.3398,289.5,310.3398,293.5,306.3398" style="stroke: #A80036; stroke-width: 1.0;"/><line style="stroke: #A80036; stroke-width: 1.5;" x1="429.5" x2="736" y1="306.3398" y2="306.3398"/><polygon fill="#A80036" points="726,302.3398,736,306.3398,726,310.3398,730,306.3398" style="stroke: #A80036; stroke-width: 1.0;"/><line style="stroke: #A80036; stroke-width: 1.5;" x1="843" x2="1025" y1="306.3398" y2="306.3398"/><polygon fill="#A80036" points="1015,302.3398,1025,306.3398,1015,310.3398,1019,306.3398" style="stroke: #A80036; stroke-width: 1.0;"/><line style="stroke: #A80036; stroke-width: 1.5;" x1="1138" x2="1188.5" y1="306.3398" y2="306.3398"/><polygon fill="#A80036" points="1178.5,302.3398,1188.5,306.3398,1178.5,310.3398,1182.5,306.3398" style="stroke: #A80036; stroke-width: 1.0;"/><line style="stroke: #A80036; stroke-width: 1.5;" x1="1305.5" x2="1343" y1="306.3398" y2="306.3398"/><polygon fill="#A80036" points="1333,302.3398,1343,306.3398,1333,310.3398,1337,306.3398" style="stroke: #A80036; stroke-width: 1.0;"/><line style="stroke: #A80036; stroke-width: 1.5;" x1="1522" x2="1542" y1="306.3398" y2="306.3398"/><polygon fill="#A80036" points="1532,302.3398,1542,306.3398,1532,310.3398,1536,306.3398" style="stroke: #A80036; stroke-width: 1.0;"/><line style="stroke: #A80036; stroke-width: 1.5;" x1="860.5" x2="860.5" y1="274.3398" y2="279.3398"/><line style="stroke: #A80036; stroke-width: 1.5;" x1="860.5" x2="81" y1="279.3398" y2="279.3398"/><line style="stroke: #A80036; stroke-width: 1.5;" x1="81" x2="81" y1="279.3398" y2="294.3398"/><polygon fill="#A80036" points="77,284.3398,81,294.3398,85,284.3398,81,288.3398" style="stroke: #A80036; stroke-width: 1.0;"/><line style="stroke: #A80036; stroke-width: 1.5;" x1="1651" x2="1686" y1="306.3398" y2="306.3398"/><line style="stroke: #A80036; stroke-width: 1.5;" x1="1686" x2="1686" y1="306.3398" y2="678.2378"/><polygon fill="#A80036" points="1682,668.2378,1686,678.2378,1690,668.2378,1686,672.2378" style="stroke: #A80036; stroke-width: 1.0;"/><line style="stroke: #A80036; stroke-width: 1.5;" x1="81" x2="1686" y1="678.2378" y2="678.2378"/><line style="stroke: #A80036; stroke-width: 1.5;" x1="919" x2="1713" y1="710.2378" y2="710.2378"/><polygon fill="#A80036" points="1709,510.3003,1713,500.3003,1717,510.3003,1713,506.3003" style="stroke: #A80036; stroke-width: 1.5;"/><line style="stroke: #A80036; stroke-width: 1.5;" x1="1713" x2="1713" y1="262.3398" y2="710.2378"/><line style="stroke: #A80036; stroke-width: 1.5;" x1="1713" x2="872.5" y1="262.3398" y2="262.3398"/><polygon fill="#A80036" points="882.5,258.3398,872.5,262.3398,882.5,266.3398,878.5,262.3398" style="stroke: #A80036; stroke-width: 1.0;"/><line style="stroke: #A80036; stroke-width: 1.5;" x1="860.5" x2="860.5" y1="678.2378" y2="698.2378"/><polygon fill="#A80036" points="856.5,688.2378,860.5,698.2378,864.5,688.2378,860.5,692.2378" style="stroke: #A80036; stroke-width: 1.0;"/><line style="stroke: #A80036; stroke-width: 1.5;" x1="860.5" x2="860.5" y1="230.3398" y2="250.3398"/><polygon fill="#A80036" points="856.5,240.3398,860.5,250.3398,864.5,240.3398,860.5,244.3398" style="stroke: #A80036; stroke-width: 1.0;"/><line style="stroke: #A80036; stroke-width: 1.5;" x1="860.5" x2="860.5" y1="722.2378" y2="742.2378"/><polygon fill="#A80036" points="856.5,732.2378,860.5,742.2378,864.5,732.2378,860.5,736.2378" style="stroke: #A80036; stroke-width: 1.0;"/><!--
@startuml
start
:Load Application;
if (Load Save file) then (yes)
    [[Load_Sequence.svg]]:MainWindow.load();
endif
repeat
    if (user create node) then (yes)
        :Create node;
    elseif (user connect node) then (yes)
        :Connect nodes;
        fork
            :Generate node data;
            note left
            If generation is to be done.
            Runs in processing thread
            does not block gui thread.
            end note
        end fork
        split
            :emit computingFinished>
            note left: If node is OutputNode
            :update preview<
            detach
        split again
        end split
    elseif (user edit node) then (yes)
        :Edit node;
        fork
            :Generate node data;
            note right
            If generation is to be done.
            Runs in processing thread
            does not block gui thread.
            end note
        end fork
        split
            :emit computingFinished>
            note left: If node is OutputNode
            :update preview<
            detach
        split again
        end split
    elseif (user hits saves) then (yes)
        [[Save_Sequence.svg]]:MainWindow.save();
    elseif (user hits render) then (yes)
        [[Render_Sequence.svg]]:MainWindow.render();
    elseif (user interacts with preview) then (yes)
        :Update preview;
    elseif (user hits close) then (yes)
        stop
    endif
repeat while (application open) is (yes)
stop
@enduml

PlantUML version 1.2017.15(Mon Jul 03 16:45:34 UTC 2017)
(GPL source distribution)
Java Runtime: OpenJDK Runtime Environment
JVM: OpenJDK 64-Bit Server VM
Java Version: 1.8.0_252-b14
Operating System: Linux
OS Version: 5.3.0-1028-azure
Default Encoding: UTF-8
Language: en
Country: null
--></g></svg>