<?xml version="1.0" encoding="UTF-8" standalone="no"?><svg xmlns="http://www.w3.org/2000/svg" xmlns:xlink="http://www.w3.org/1999/xlink" contentScriptType="application/ecmascript" contentStyleType="text/css" height="672px" preserveAspectRatio="none" style="width:913px;height:672px;" version="1.1" viewBox="0 0 913 672" width="913px" zoomAndPan="magnify"><defs><filter height="300%" id="foo9g04sv534o" width="300%" x="-1" y="-1"><feGaussianBlur result="blurOut" stdDeviation="2.0"/><feColorMatrix in="blurOut" result="blurOut2" type="matrix" values="0 0 0 0 0 0 0 0 0 0 0 0 0 0 0 0 0 0 .4 0"/><feOffset dx="4.0" dy="4.0" in="blurOut2" result="blurOut3"/><feBlend in="SourceGraphic" in2="blurOut3" mode="normal"/></filter></defs><g><rect fill="#FFFFFF" filter="url(#foo9g04sv534o)" height="537.2578" style="stroke: #A80036; stroke-width: 1.0;" width="10" x="80" y="77.2969"/><rect fill="#FFFFFF" filter="url(#foo9g04sv534o)" height="29.1328" style="stroke: #A80036; stroke-width: 1.0;" width="10" x="398.5" y="329.2266"/><rect fill="#FFFFFF" filter="url(#foo9g04sv534o)" height="222.0625" style="stroke: #A80036; stroke-width: 1.0;" width="10" x="493.5" y="392.4922"/><rect fill="#FFFFFF" filter="url(#foo9g04sv534o)" height="158.7969" style="stroke: #A80036; stroke-width: 1.0;" width="10" x="633" y="426.625"/><rect fill="#FFFFFF" filter="url(#foo9g04sv534o)" height="119.5313" style="stroke: #000000; stroke-width: 2.0;" width="363" x="13" y="139.5625"/><rect fill="#FFFFFF" filter="url(#foo9g04sv534o)" height="88.3984" style="stroke: #000000; stroke-width: 2.0;" width="343" x="23" y="163.6953"/><rect fill="#FFFFFF" filter="url(#foo9g04sv534o)" height="115.6641" style="stroke: #000000; stroke-width: 2.0;" width="356" x="546" y="441.7578"/><line style="stroke: #A80036; stroke-width: 1.0; stroke-dasharray: 5.0,5.0;" x1="85" x2="85" y1="38.2969" y2="632.6875"/><line style="stroke: #A80036; stroke-width: 1.0; stroke-dasharray: 5.0,5.0;" x1="309" x2="309" y1="38.2969" y2="632.6875"/><line style="stroke: #A80036; stroke-width: 1.0; stroke-dasharray: 5.0,5.0;" x1="403" x2="403" y1="38.2969" y2="632.6875"/><line style="stroke: #A80036; stroke-width: 1.0; stroke-dasharray: 5.0,5.0;" x1="498" x2="498" y1="38.2969" y2="632.6875"/><line style="stroke: #A80036; stroke-width: 1.0; stroke-dasharray: 5.0,5.0;" x1="638" x2="638" y1="38.2969" y2="632.6875"/><line style="stroke: #A80036; stroke-width: 1.0; stroke-dasharray: 5.0,5.0;" x1="787.5" x2="787.5" y1="38.2969" y2="632.6875"/><rect fill="#FEFECE" filter="url(#foo9g04sv534o)" height="30.2969" style="stroke: #A80036; stroke-width: 1.5;" width="100" x="33" y="3"/><text fill="#000000" font-family="sans-serif" font-size="14" lengthAdjust="spacingAndGlyphs" textLength="86" x="40" y="22.9951">MainWindow</text><rect fill="#FEFECE" filter="url(#foo9g04sv534o)" height="30.2969" style="stroke: #A80036; stroke-width: 1.5;" width="100" x="33" y="631.6875"/><text fill="#000000" font-family="sans-serif" font-size="14" lengthAdjust="spacingAndGlyphs" textLength="86" x="40" y="651.6826">MainWindow</text><rect fill="#FEFECE" filter="url(#foo9g04sv534o)" height="30.2969" style="stroke: #A80036; stroke-width: 1.5;" width="90" x="262" y="3"/><text fill="#000000" font-family="sans-serif" font-size="14" lengthAdjust="spacingAndGlyphs" textLength="76" x="269" y="22.9951">TextureList</text><rect fill="#FEFECE" filter="url(#foo9g04sv534o)" height="30.2969" style="stroke: #A80036; stroke-width: 1.5;" width="90" x="262" y="631.6875"/><text fill="#000000" font-family="sans-serif" font-size="14" lengthAdjust="spacingAndGlyphs" textLength="76" x="269" y="651.6826">TextureList</text><rect fill="#FEFECE" filter="url(#foo9g04sv534o)" height="30.2969" style="stroke: #A80036; stroke-width: 1.5;" width="71" x="366" y="3"/><text fill="#000000" font-family="sans-serif" font-size="14" lengthAdjust="spacingAndGlyphs" textLength="57" x="373" y="22.9951">Settings</text><rect fill="#FEFECE" filter="url(#foo9g04sv534o)" height="30.2969" style="stroke: #A80036; stroke-width: 1.5;" width="71" x="366" y="631.6875"/><text fill="#000000" font-family="sans-serif" font-size="14" lengthAdjust="spacingAndGlyphs" textLength="57" x="373" y="651.6826">Settings</text><rect fill="#FEFECE" filter="url(#foo9g04sv534o)" height="30.2969" style="stroke: #A80036; stroke-width: 1.5;" width="91" x="451" y="3"/><text fill="#000000" font-family="sans-serif" font-size="14" lengthAdjust="spacingAndGlyphs" textLength="77" x="458" y="22.9951">Nodeeditor</text><rect fill="#FEFECE" filter="url(#foo9g04sv534o)" height="30.2969" style="stroke: #A80036; stroke-width: 1.5;" width="91" x="451" y="631.6875"/><text fill="#000000" font-family="sans-serif" font-size="14" lengthAdjust="spacingAndGlyphs" textLength="77" x="458" y="651.6826">Nodeeditor</text><rect fill="#FEFECE" filter="url(#foo9g04sv534o)" height="30.2969" style="stroke: #A80036; stroke-width: 1.5;" width="160" x="556" y="3"/><text fill="#000000" font-family="sans-serif" font-size="14" lengthAdjust="spacingAndGlyphs" textLength="146" x="563" y="22.9951">QtNodes::FlowScene</text><rect fill="#FEFECE" filter="url(#foo9g04sv534o)" height="30.2969" style="stroke: #A80036; stroke-width: 1.5;" width="160" x="556" y="631.6875"/><text fill="#000000" font-family="sans-serif" font-size="14" lengthAdjust="spacingAndGlyphs" textLength="146" x="563" y="651.6826">QtNodes::FlowScene</text><rect fill="#FEFECE" filter="url(#foo9g04sv534o)" height="30.2969" style="stroke: #A80036; stroke-width: 1.5;" width="51" x="760.5" y="3"/><text fill="#000000" font-family="sans-serif" font-size="14" lengthAdjust="spacingAndGlyphs" textLength="37" x="767.5" y="22.9951">Node</text><rect fill="#FEFECE" filter="url(#foo9g04sv534o)" height="30.2969" style="stroke: #A80036; stroke-width: 1.5;" width="51" x="760.5" y="631.6875"/><text fill="#000000" font-family="sans-serif" font-size="14" lengthAdjust="spacingAndGlyphs" textLength="37" x="767.5" y="651.6826">Node</text><rect fill="#FFFFFF" filter="url(#foo9g04sv534o)" height="537.2578" style="stroke: #A80036; stroke-width: 1.0;" width="10" x="80" y="77.2969"/><rect fill="#FFFFFF" filter="url(#foo9g04sv534o)" height="29.1328" style="stroke: #A80036; stroke-width: 1.0;" width="10" x="398.5" y="329.2266"/><rect fill="#FFFFFF" filter="url(#foo9g04sv534o)" height="222.0625" style="stroke: #A80036; stroke-width: 1.0;" width="10" x="493.5" y="392.4922"/><rect fill="#FFFFFF" filter="url(#foo9g04sv534o)" height="158.7969" style="stroke: #A80036; stroke-width: 1.0;" width="10" x="633" y="426.625"/><line style="stroke: #A80036; stroke-width: 1.0;" x1="85" x2="132" y1="64.4297" y2="64.4297"/><line style="stroke: #A80036; stroke-width: 1.0;" x1="132" x2="132" y1="64.4297" y2="77.4297"/><line style="stroke: #A80036; stroke-width: 1.0;" x1="91" x2="132" y1="77.4297" y2="77.4297"/><polygon fill="#A80036" points="101,73.4297,91,77.4297,101,81.4297,97,77.4297" style="stroke: #A80036; stroke-width: 1.0;"/><text fill="#000000" font-family="sans-serif" font-size="13" lengthAdjust="spacingAndGlyphs" textLength="37" x="97" y="59.3638">load()</text><polygon fill="#FBFB77" filter="url(#foo9g04sv534o)" points="146,54.7969,146,79.7969,316,79.7969,316,64.7969,306,54.7969,146,54.7969" style="stroke: #A80036; stroke-width: 1.0;"/><line style="stroke: #A80036; stroke-width: 1.0;" x1="306" x2="306" y1="54.7969" y2="64.7969"/><line style="stroke: #A80036; stroke-width: 1.0;" x1="316" x2="306" y1="64.7969" y2="64.7969"/><text fill="#000000" font-family="sans-serif" font-size="13" lengthAdjust="spacingAndGlyphs" textLength="149" x="152" y="71.8638">User selects project file</text><line style="stroke: #A80036; stroke-width: 1.0;" x1="90" x2="132" y1="111.5625" y2="111.5625"/><line style="stroke: #A80036; stroke-width: 1.0;" x1="132" x2="132" y1="111.5625" y2="124.5625"/><line style="stroke: #A80036; stroke-width: 1.0;" x1="91" x2="132" y1="124.5625" y2="124.5625"/><polygon fill="#A80036" points="101,120.5625,91,124.5625,101,128.5625,97,124.5625" style="stroke: #A80036; stroke-width: 1.0;"/><text fill="#000000" font-family="sans-serif" font-size="13" lengthAdjust="spacingAndGlyphs" textLength="108" x="97" y="106.4966">Extract data.json</text><rect fill="none" height="119.5313" style="stroke: #000000; stroke-width: 2.0;" width="363" x="13" y="139.5625"/><polygon fill="#EEEEEE" points="13,139.5625,90,139.5625,90,146.5625,80,156.5625,13,156.5625,13,139.5625" style="stroke: #000000; stroke-width: 2.0;"/><text fill="#000000" font-family="sans-serif" font-size="13" font-weight="bold" lengthAdjust="spacingAndGlyphs" textLength="32" x="28" y="152.6294">loop</text><text fill="#000000" font-family="sans-serif" font-size="11" font-weight="bold" lengthAdjust="spacingAndGlyphs" textLength="131" x="105" y="151.7729">[over files in ZIPfile]</text><rect fill="none" height="88.3984" style="stroke: #000000; stroke-width: 2.0;" width="343" x="23" y="163.6953"/><polygon fill="#EEEEEE" points="23,163.6953,87,163.6953,87,170.6953,77,180.6953,23,180.6953,23,163.6953" style="stroke: #000000; stroke-width: 2.0;"/><text fill="#000000" font-family="sans-serif" font-size="13" font-weight="bold" lengthAdjust="spacingAndGlyphs" textLength="19" x="38" y="176.7622">alt</text><text fill="#000000" font-family="sans-serif" font-size="11" font-weight="bold" lengthAdjust="spacingAndGlyphs" textLength="89" x="102" y="175.9058">[file is image]</text><line style="stroke: #A80036; stroke-width: 1.0;" x1="90" x2="132" y1="201.9609" y2="201.9609"/><line style="stroke: #A80036; stroke-width: 1.0;" x1="132" x2="132" y1="201.9609" y2="214.9609"/><line style="stroke: #A80036; stroke-width: 1.0;" x1="91" x2="132" y1="214.9609" y2="214.9609"/><polygon fill="#A80036" points="101,210.9609,91,214.9609,101,218.9609,97,214.9609" style="stroke: #A80036; stroke-width: 1.0;"/><text fill="#000000" font-family="sans-serif" font-size="13" lengthAdjust="spacingAndGlyphs" textLength="200" x="97" y="196.895">Extract image to /tmp directory</text><polygon fill="#A80036" points="297,239.9609,307,243.9609,297,247.9609,301,243.9609" style="stroke: #A80036; stroke-width: 1.0;"/><line style="stroke: #A80036; stroke-width: 1.0;" x1="90" x2="303" y1="243.9609" y2="243.9609"/><text fill="#000000" font-family="sans-serif" font-size="13" lengthAdjust="spacingAndGlyphs" textLength="75" x="97" y="239.0278">Add texture</text><line style="stroke: #A80036; stroke-width: 1.0;" x1="90" x2="132" y1="287.2266" y2="287.2266"/><line style="stroke: #A80036; stroke-width: 1.0;" x1="132" x2="132" y1="287.2266" y2="300.2266"/><line style="stroke: #A80036; stroke-width: 1.0;" x1="91" x2="132" y1="300.2266" y2="300.2266"/><polygon fill="#A80036" points="101,296.2266,91,300.2266,101,304.2266,97,300.2266" style="stroke: #A80036; stroke-width: 1.0;"/><text fill="#000000" font-family="sans-serif" font-size="13" lengthAdjust="spacingAndGlyphs" textLength="197" x="97" y="282.1606">Extract settings from data.json</text><polygon fill="#A80036" points="386.5,325.2266,396.5,329.2266,386.5,333.2266,390.5,329.2266" style="stroke: #A80036; stroke-width: 1.0;"/><line style="stroke: #A80036; stroke-width: 1.0;" x1="90" x2="392.5" y1="329.2266" y2="329.2266"/><text fill="#000000" font-family="sans-serif" font-size="13" lengthAdjust="spacingAndGlyphs" textLength="107" x="97" y="324.2935">restore(settings)</text><polygon fill="#A80036" points="101,354.3594,91,358.3594,101,362.3594,97,358.3594" style="stroke: #A80036; stroke-width: 1.0;"/><line style="stroke: #A80036; stroke-width: 1.0;" x1="95" x2="402.5" y1="358.3594" y2="358.3594"/><text fill="#000000" font-family="sans-serif" font-size="13" lengthAdjust="spacingAndGlyphs" textLength="34" x="107" y="353.4263">Done</text><polygon fill="#A80036" points="481.5,388.4922,491.5,392.4922,481.5,396.4922,485.5,392.4922" style="stroke: #A80036; stroke-width: 1.0;"/><line style="stroke: #A80036; stroke-width: 1.0;" x1="90" x2="487.5" y1="392.4922" y2="392.4922"/><text fill="#000000" font-family="sans-serif" font-size="13" lengthAdjust="spacingAndGlyphs" textLength="85" x="97" y="387.5591">restore(data)</text><polygon fill="#FBFB77" filter="url(#foo9g04sv534o)" points="508,371.4922,508,396.4922,744,396.4922,744,381.4922,734,371.4922,508,371.4922" style="stroke: #A80036; stroke-width: 1.0;"/><line style="stroke: #A80036; stroke-width: 1.0;" x1="734" x2="734" y1="371.4922" y2="381.4922"/><line style="stroke: #A80036; stroke-width: 1.0;" x1="744" x2="734" y1="381.4922" y2="381.4922"/><text fill="#000000" font-family="sans-serif" font-size="13" lengthAdjust="spacingAndGlyphs" textLength="215" x="514" y="388.5591">Restore node data from data.json</text><polygon fill="#A80036" points="621,422.625,631,426.625,621,430.625,625,426.625" style="stroke: #A80036; stroke-width: 1.0;"/><line style="stroke: #A80036; stroke-width: 1.0;" x1="503.5" x2="627" y1="426.625" y2="426.625"/><text fill="#000000" font-family="sans-serif" font-size="13" lengthAdjust="spacingAndGlyphs" textLength="85" x="510.5" y="421.6919">restore(data)</text><rect fill="none" height="115.6641" style="stroke: #000000; stroke-width: 2.0;" width="356" x="546" y="441.7578"/><polygon fill="#EEEEEE" points="546,441.7578,623,441.7578,623,448.7578,613,458.7578,546,458.7578,546,441.7578" style="stroke: #000000; stroke-width: 2.0;"/><text fill="#000000" font-family="sans-serif" font-size="13" font-weight="bold" lengthAdjust="spacingAndGlyphs" textLength="32" x="561" y="454.8247">loop</text><text fill="#000000" font-family="sans-serif" font-size="11" font-weight="bold" lengthAdjust="spacingAndGlyphs" textLength="108" x="638" y="453.9683">[over Node data]</text><polygon fill="#A80036" points="776,496.0234,786,500.0234,776,504.0234,780,500.0234" style="stroke: #A80036; stroke-width: 1.0;"/><line style="stroke: #A80036; stroke-width: 1.0;" x1="643" x2="782" y1="500.0234" y2="500.0234"/><text fill="#000000" font-family="sans-serif" font-size="13" lengthAdjust="spacingAndGlyphs" textLength="79" x="650" y="495.0903">Create node</text><polygon fill="#FBFB77" filter="url(#foo9g04sv534o)" points="793,463.8906,793,518.8906,883,518.8906,883,473.8906,873,463.8906,793,463.8906" style="stroke: #A80036; stroke-width: 1.0;"/><line style="stroke: #A80036; stroke-width: 1.0;" x1="873" x2="873" y1="463.8906" y2="473.8906"/><line style="stroke: #A80036; stroke-width: 1.0;" x1="883" x2="873" y1="473.8906" y2="473.8906"/><text fill="#000000" font-family="sans-serif" font-size="13" lengthAdjust="spacingAndGlyphs" textLength="66" x="799" y="480.9575">Nodes run</text><text fill="#000000" font-family="sans-serif" font-size="13" lengthAdjust="spacingAndGlyphs" textLength="69" x="799" y="496.0903">generation</text><text fill="#000000" font-family="sans-serif" font-size="13" lengthAdjust="spacingAndGlyphs" textLength="67" x="799" y="511.2231">as needed</text><polygon fill="#A80036" points="776,545.2891,786,549.2891,776,553.2891,780,549.2891" style="stroke: #A80036; stroke-width: 1.0;"/><line style="stroke: #A80036; stroke-width: 1.0;" x1="643" x2="782" y1="549.2891" y2="549.2891"/><text fill="#000000" font-family="sans-serif" font-size="13" lengthAdjust="spacingAndGlyphs" textLength="121" x="650" y="544.356">restore(node data)</text><polygon fill="#A80036" points="514.5,581.4219,504.5,585.4219,514.5,589.4219,510.5,585.4219" style="stroke: #A80036; stroke-width: 1.0;"/><line style="stroke: #A80036; stroke-width: 1.0;" x1="508.5" x2="637" y1="585.4219" y2="585.4219"/><text fill="#000000" font-family="sans-serif" font-size="13" lengthAdjust="spacingAndGlyphs" textLength="34" x="520.5" y="580.4888">Done</text><polygon fill="#A80036" points="96,610.5547,86,614.5547,96,618.5547,92,614.5547" style="stroke: #A80036; stroke-width: 1.0;"/><line style="stroke: #A80036; stroke-width: 1.0;" x1="90" x2="497.5" y1="614.5547" y2="614.5547"/><text fill="#000000" font-family="sans-serif" font-size="13" lengthAdjust="spacingAndGlyphs" textLength="34" x="102" y="609.6216">Done</text><!--
@startuml
MainWindow -> MainWindow : load()
activate MainWindow
note right: User selects project file
MainWindow -> MainWindow : Extract data.json
loop over files in ZIPfile
    alt file is image
        MainWindow -> MainWindow : Extract image to /tmp directory
        MainWindow -> TextureList : Add texture
    end
end
MainWindow -> MainWindow : Extract settings from data.json
MainWindow -> Settings : restore(settings)
activate Settings
Settings -> MainWindow : Done
deactivate Settings
MainWindow -> Nodeeditor : restore(data)
note right: Restore node data from data.json 
activate Nodeeditor
Nodeeditor -> "QtNodes::FlowScene" : restore(data)
activate "QtNodes::FlowScene"
loop over Node data
    "QtNodes::FlowScene" -> Node : Create node
    note right: Nodes run\ngeneration\nas needed
    "QtNodes::FlowScene" -> Node : restore(node data)
end
"QtNodes::FlowScene" -> Nodeeditor : Done
deactivate "QtNodes::FlowScene"
Nodeeditor -> MainWindow : Done
deactivate Nodeeditor
deactivate MainWindow
@enduml

PlantUML version 1.2017.15(Mon Jul 03 16:45:34 UTC 2017)
(GPL source distribution)
Java Runtime: OpenJDK Runtime Environment
JVM: OpenJDK 64-Bit Server VM
Java Version: 1.8.0_252-b14
Operating System: Linux
OS Version: 5.3.0-1028-azure
Default Encoding: UTF-8
Language: en
Country: null
--></g></svg>