<?xml version="1.0" encoding="UTF-8" standalone="no"?><svg xmlns="http://www.w3.org/2000/svg" xmlns:xlink="http://www.w3.org/1999/xlink" contentScriptType="application/ecmascript" contentStyleType="text/css" height="743px" preserveAspectRatio="none" style="width:986px;height:743px;" version="1.1" viewBox="0 0 986 743" width="986px" zoomAndPan="magnify"><defs><filter height="300%" id="f9am4o6dmillq" width="300%" x="-1" y="-1"><feGaussianBlur result="blurOut" stdDeviation="2.0"/><feColorMatrix in="blurOut" result="blurOut2" type="matrix" values="0 0 0 0 0 0 0 0 0 0 0 0 0 0 0 0 0 0 .4 0"/><feOffset dx="4.0" dy="4.0" in="blurOut2" result="blurOut3"/><feBlend in="SourceGraphic" in2="blurOut3" mode="normal"/></filter></defs><g><rect fill="#FFFFFF" filter="url(#f9am4o6dmillq)" height="600.3906" style="stroke: #A80036; stroke-width: 1.0;" width="10" x="55" y="77.2969"/><rect fill="#FFFFFF" filter="url(#f9am4o6dmillq)" height="29.1328" style="stroke: #A80036; stroke-width: 1.0;" width="10" x="274" y="153.5625"/><rect fill="#FFFFFF" filter="url(#f9am4o6dmillq)" height="172.2305" style="stroke: #A80036; stroke-width: 1.0;" width="10" x="420" y="182.6953"/><rect fill="#FFFFFF" filter="url(#f9am4o6dmillq)" height="287.6289" style="stroke: #A80036; stroke-width: 1.0;" width="10" x="612" y="354.9258"/><rect fill="#FFFFFF" filter="url(#f9am4o6dmillq)" height="101.3984" style="stroke: #000000; stroke-width: 2.0;" width="214.5" x="387.5" y="197.8281"/><rect fill="#FFFFFF" filter="url(#f9am4o6dmillq)" height="59.2656" style="stroke: #000000; stroke-width: 2.0;" width="260" x="559.5" y="482.0234"/><rect fill="#FFFFFF" filter="url(#f9am4o6dmillq)" height="59.2656" style="stroke: #000000; stroke-width: 2.0;" width="271" x="559.5" y="555.2891"/><line style="stroke: #A80036; stroke-width: 1.0; stroke-dasharray: 5.0,5.0;" x1="60" x2="60" y1="38.2969" y2="702.8203"/><line style="stroke: #A80036; stroke-width: 1.0; stroke-dasharray: 5.0,5.0;" x1="278.5" x2="278.5" y1="38.2969" y2="702.8203"/><line style="stroke: #A80036; stroke-width: 1.0; stroke-dasharray: 5.0,5.0;" x1="424.5" x2="424.5" y1="38.2969" y2="702.8203"/><line style="stroke: #A80036; stroke-width: 1.0; stroke-dasharray: 5.0,5.0;" x1="616.5" x2="616.5" y1="38.2969" y2="702.8203"/><rect fill="#FEFECE" filter="url(#f9am4o6dmillq)" height="30.2969" style="stroke: #A80036; stroke-width: 1.5;" width="100" x="8" y="3"/><text fill="#000000" font-family="sans-serif" font-size="14" lengthAdjust="spacingAndGlyphs" textLength="86" x="15" y="22.9951">MainWindow</text><rect fill="#FEFECE" filter="url(#f9am4o6dmillq)" height="30.2969" style="stroke: #A80036; stroke-width: 1.5;" width="100" x="8" y="701.8203"/><text fill="#000000" font-family="sans-serif" font-size="14" lengthAdjust="spacingAndGlyphs" textLength="86" x="15" y="721.8154">MainWindow</text><rect fill="#FEFECE" filter="url(#f9am4o6dmillq)" height="30.2969" style="stroke: #A80036; stroke-width: 1.5;" width="71" x="241.5" y="3"/><text fill="#000000" font-family="sans-serif" font-size="14" lengthAdjust="spacingAndGlyphs" textLength="57" x="248.5" y="22.9951">Settings</text><rect fill="#FEFECE" filter="url(#f9am4o6dmillq)" height="30.2969" style="stroke: #A80036; stroke-width: 1.5;" width="71" x="241.5" y="701.8203"/><text fill="#000000" font-family="sans-serif" font-size="14" lengthAdjust="spacingAndGlyphs" textLength="57" x="248.5" y="721.8154">Settings</text><rect fill="#FEFECE" filter="url(#f9am4o6dmillq)" height="30.2969" style="stroke: #A80036; stroke-width: 1.5;" width="51" x="397.5" y="3"/><text fill="#000000" font-family="sans-serif" font-size="14" lengthAdjust="spacingAndGlyphs" textLength="37" x="404.5" y="22.9951">Node</text><rect fill="#FEFECE" filter="url(#f9am4o6dmillq)" height="30.2969" style="stroke: #A80036; stroke-width: 1.5;" width="51" x="397.5" y="701.8203"/><text fill="#000000" font-family="sans-serif" font-size="14" lengthAdjust="spacingAndGlyphs" textLength="37" x="404.5" y="721.8154">Node</text><rect fill="#FEFECE" filter="url(#f9am4o6dmillq)" height="30.2969" style="stroke: #A80036; stroke-width: 1.5;" width="91" x="569.5" y="3"/><text fill="#000000" font-family="sans-serif" font-size="14" lengthAdjust="spacingAndGlyphs" textLength="77" x="576.5" y="22.9951">Nodeeditor</text><rect fill="#FEFECE" filter="url(#f9am4o6dmillq)" height="30.2969" style="stroke: #A80036; stroke-width: 1.5;" width="91" x="569.5" y="701.8203"/><text fill="#000000" font-family="sans-serif" font-size="14" lengthAdjust="spacingAndGlyphs" textLength="77" x="576.5" y="721.8154">Nodeeditor</text><rect fill="#FFFFFF" filter="url(#f9am4o6dmillq)" height="600.3906" style="stroke: #A80036; stroke-width: 1.0;" width="10" x="55" y="77.2969"/><rect fill="#FFFFFF" filter="url(#f9am4o6dmillq)" height="29.1328" style="stroke: #A80036; stroke-width: 1.0;" width="10" x="274" y="153.5625"/><rect fill="#FFFFFF" filter="url(#f9am4o6dmillq)" height="172.2305" style="stroke: #A80036; stroke-width: 1.0;" width="10" x="420" y="182.6953"/><rect fill="#FFFFFF" filter="url(#f9am4o6dmillq)" height="287.6289" style="stroke: #A80036; stroke-width: 1.0;" width="10" x="612" y="354.9258"/><line style="stroke: #A80036; stroke-width: 1.0;" x1="60" x2="107" y1="64.4297" y2="64.4297"/><line style="stroke: #A80036; stroke-width: 1.0;" x1="107" x2="107" y1="64.4297" y2="77.4297"/><line style="stroke: #A80036; stroke-width: 1.0;" x1="66" x2="107" y1="77.4297" y2="77.4297"/><polygon fill="#A80036" points="76,73.4297,66,77.4297,76,81.4297,72,77.4297" style="stroke: #A80036; stroke-width: 1.0;"/><text fill="#000000" font-family="sans-serif" font-size="13" lengthAdjust="spacingAndGlyphs" textLength="45" x="72" y="59.3638">Render</text><polygon fill="#FBFB77" filter="url(#f9am4o6dmillq)" points="129,54.7969,129,79.7969,335,79.7969,335,64.7969,325,54.7969,129,54.7969" style="stroke: #A80036; stroke-width: 1.0;"/><line style="stroke: #A80036; stroke-width: 1.0;" x1="325" x2="325" y1="54.7969" y2="64.7969"/><line style="stroke: #A80036; stroke-width: 1.0;" x1="335" x2="325" y1="64.7969" y2="64.7969"/><text fill="#000000" font-family="sans-serif" font-size="13" lengthAdjust="spacingAndGlyphs" textLength="185" x="135" y="71.8638">User selects output directory</text><line style="stroke: #A80036; stroke-width: 1.0;" x1="65" x2="107" y1="111.5625" y2="111.5625"/><line style="stroke: #A80036; stroke-width: 1.0;" x1="107" x2="107" y1="111.5625" y2="124.5625"/><line style="stroke: #A80036; stroke-width: 1.0;" x1="66" x2="107" y1="124.5625" y2="124.5625"/><polygon fill="#A80036" points="76,120.5625,66,124.5625,76,128.5625,72,124.5625" style="stroke: #A80036; stroke-width: 1.0;"/><text fill="#000000" font-family="sans-serif" font-size="13" lengthAdjust="spacingAndGlyphs" textLength="195" x="72" y="106.4966">Create output render directory</text><polygon fill="#A80036" points="262,149.5625,272,153.5625,262,157.5625,266,153.5625" style="stroke: #A80036; stroke-width: 1.0;"/><line style="stroke: #A80036; stroke-width: 1.0;" x1="65" x2="268" y1="153.5625" y2="153.5625"/><text fill="#000000" font-family="sans-serif" font-size="13" lengthAdjust="spacingAndGlyphs" textLength="52" x="72" y="148.6294">render()</text><polygon fill="#A80036" points="408,178.6953,418,182.6953,408,186.6953,412,182.6953" style="stroke: #A80036; stroke-width: 1.0;"/><line style="stroke: #A80036; stroke-width: 1.0; stroke-dasharray: 2.0,2.0;" x1="279" x2="414" y1="182.6953" y2="182.6953"/><text fill="#000000" font-family="sans-serif" font-size="13" lengthAdjust="spacingAndGlyphs" textLength="117" x="286" y="177.7622">emit renderStart()</text><rect fill="none" height="101.3984" style="stroke: #000000; stroke-width: 2.0;" width="214.5" x="387.5" y="197.8281"/><polygon fill="#EEEEEE" points="387.5,197.8281,464.5,197.8281,464.5,204.8281,454.5,214.8281,387.5,214.8281,387.5,197.8281" style="stroke: #000000; stroke-width: 2.0;"/><text fill="#000000" font-family="sans-serif" font-size="13" font-weight="bold" lengthAdjust="spacingAndGlyphs" textLength="32" x="402.5" y="210.895">loop</text><text fill="#000000" font-family="sans-serif" font-size="11" font-weight="bold" lengthAdjust="spacingAndGlyphs" textLength="78" x="479.5" y="210.0386">[each Node]</text><line style="stroke: #A80036; stroke-width: 1.0;" x1="430" x2="472" y1="236.0938" y2="236.0938"/><line style="stroke: #A80036; stroke-width: 1.0;" x1="472" x2="472" y1="236.0938" y2="249.0938"/><line style="stroke: #A80036; stroke-width: 1.0;" x1="431" x2="472" y1="249.0938" y2="249.0938"/><polygon fill="#A80036" points="441,245.0938,431,249.0938,441,253.0938,437,249.0938" style="stroke: #A80036; stroke-width: 1.0;"/><text fill="#000000" font-family="sans-serif" font-size="13" lengthAdjust="spacingAndGlyphs" textLength="58" x="437" y="231.0278">generate</text><line style="stroke: #A80036; stroke-width: 1.0; stroke-dasharray: 2.0,2.0;" x1="430" x2="472" y1="278.2266" y2="278.2266"/><line style="stroke: #A80036; stroke-width: 1.0; stroke-dasharray: 2.0,2.0;" x1="472" x2="472" y1="278.2266" y2="291.2266"/><line style="stroke: #A80036; stroke-width: 1.0; stroke-dasharray: 2.0,2.0;" x1="431" x2="472" y1="291.2266" y2="291.2266"/><polygon fill="#A80036" points="441,287.2266,431,291.2266,441,295.2266,437,291.2266" style="stroke: #A80036; stroke-width: 1.0;"/><text fill="#000000" font-family="sans-serif" font-size="13" lengthAdjust="spacingAndGlyphs" textLength="153" x="437" y="273.1606">emit dataUpdated(port)</text><polygon fill="#A80036" points="600,350.9258,610,354.9258,600,358.9258,604,354.9258" style="stroke: #A80036; stroke-width: 1.0;"/><line style="stroke: #A80036; stroke-width: 1.0; stroke-dasharray: 2.0,2.0;" x1="425" x2="606" y1="354.9258" y2="354.9258"/><text fill="#000000" font-family="sans-serif" font-size="13" lengthAdjust="spacingAndGlyphs" textLength="163" x="432" y="349.9927">emit computingFinished()</text><polygon fill="#FBFB77" filter="url(#f9am4o6dmillq)" points="627,311.2266,627,381.2266,974,381.2266,974,321.2266,964,311.2266,627,311.2266" style="stroke: #A80036; stroke-width: 1.0;"/><line style="stroke: #A80036; stroke-width: 1.0;" x1="964" x2="964" y1="311.2266" y2="321.2266"/><line style="stroke: #A80036; stroke-width: 1.0;" x1="974" x2="964" y1="321.2266" y2="321.2266"/><text fill="#000000" font-family="sans-serif" font-size="13" lengthAdjust="spacingAndGlyphs" textLength="118" x="633" y="328.2935">OutputNode emits</text><text fill="#000000" font-family="sans-serif" font-size="13" font-weight="bold" lengthAdjust="spacingAndGlyphs" textLength="153" x="755" y="328.2935">computingFinished()</text><text fill="#000000" font-family="sans-serif" font-size="13" lengthAdjust="spacingAndGlyphs" textLength="93" x="633" y="343.4263">whether or not</text><text fill="#000000" font-family="sans-serif" font-size="13" font-weight="bold" lengthAdjust="spacingAndGlyphs" textLength="174" x="730" y="343.4263">Settings-&gt;finalRender()</text><text fill="#000000" font-family="sans-serif" font-size="13" lengthAdjust="spacingAndGlyphs" textLength="44" x="908" y="343.4263">is true.</text><text fill="#000000" font-family="sans-serif" font-size="13" lengthAdjust="spacingAndGlyphs" textLength="167" x="633" y="358.5591">Nodeeditor runs this when</text><text fill="#000000" font-family="sans-serif" font-size="13" font-weight="bold" lengthAdjust="spacingAndGlyphs" textLength="97" x="804" y="358.5591">finalRender()</text><text fill="#000000" font-family="sans-serif" font-size="13" lengthAdjust="spacingAndGlyphs" textLength="10" x="905" y="358.5591">is</text><text fill="#000000" font-family="sans-serif" font-size="13" font-weight="bold" lengthAdjust="spacingAndGlyphs" textLength="30" x="919" y="358.5591">true</text><text fill="#000000" font-family="sans-serif" font-size="13" lengthAdjust="spacingAndGlyphs" textLength="4" x="949" y="358.5591">.</text><text fill="#000000" font-family="sans-serif" font-size="13" lengthAdjust="spacingAndGlyphs" textLength="326" x="633" y="373.6919">Otherwise Nodeeditor just updates preview window.</text><line style="stroke: #A80036; stroke-width: 1.0;" x1="622" x2="664" y1="411.8906" y2="411.8906"/><line style="stroke: #A80036; stroke-width: 1.0;" x1="664" x2="664" y1="411.8906" y2="424.8906"/><line style="stroke: #A80036; stroke-width: 1.0;" x1="623" x2="664" y1="424.8906" y2="424.8906"/><polygon fill="#A80036" points="633,420.8906,623,424.8906,633,428.8906,629,424.8906" style="stroke: #A80036; stroke-width: 1.0;"/><text fill="#000000" font-family="sans-serif" font-size="13" lengthAdjust="spacingAndGlyphs" textLength="109" x="629" y="406.8247">Save height map</text><line style="stroke: #A80036; stroke-width: 1.0;" x1="622" x2="664" y1="454.0234" y2="454.0234"/><line style="stroke: #A80036; stroke-width: 1.0;" x1="664" x2="664" y1="454.0234" y2="467.0234"/><line style="stroke: #A80036; stroke-width: 1.0;" x1="623" x2="664" y1="467.0234" y2="467.0234"/><polygon fill="#A80036" points="633,463.0234,623,467.0234,633,471.0234,629,467.0234" style="stroke: #A80036; stroke-width: 1.0;"/><text fill="#000000" font-family="sans-serif" font-size="13" lengthAdjust="spacingAndGlyphs" textLength="114" x="629" y="448.9575">Save normal map</text><rect fill="none" height="59.2656" style="stroke: #000000; stroke-width: 2.0;" width="260" x="559.5" y="482.0234"/><polygon fill="#EEEEEE" points="559.5,482.0234,623.5,482.0234,623.5,489.0234,613.5,499.0234,559.5,499.0234,559.5,482.0234" style="stroke: #000000; stroke-width: 2.0;"/><text fill="#000000" font-family="sans-serif" font-size="13" font-weight="bold" lengthAdjust="spacingAndGlyphs" textLength="19" x="574.5" y="495.0903">alt</text><text fill="#000000" font-family="sans-serif" font-size="11" font-weight="bold" lengthAdjust="spacingAndGlyphs" textLength="176" x="638.5" y="494.2339">[OutputNode-&gt;albedoSet()]</text><line style="stroke: #A80036; stroke-width: 1.0;" x1="622" x2="664" y1="520.2891" y2="520.2891"/><line style="stroke: #A80036; stroke-width: 1.0;" x1="664" x2="664" y1="520.2891" y2="533.2891"/><line style="stroke: #A80036; stroke-width: 1.0;" x1="623" x2="664" y1="533.2891" y2="533.2891"/><polygon fill="#A80036" points="633,529.2891,623,533.2891,633,537.2891,629,533.2891" style="stroke: #A80036; stroke-width: 1.0;"/><text fill="#000000" font-family="sans-serif" font-size="13" lengthAdjust="spacingAndGlyphs" textLength="112" x="629" y="515.2231">Save albedo map</text><rect fill="none" height="59.2656" style="stroke: #000000; stroke-width: 2.0;" width="271" x="559.5" y="555.2891"/><polygon fill="#EEEEEE" points="559.5,555.2891,623.5,555.2891,623.5,562.2891,613.5,572.2891,559.5,572.2891,559.5,555.2891" style="stroke: #000000; stroke-width: 2.0;"/><text fill="#000000" font-family="sans-serif" font-size="13" font-weight="bold" lengthAdjust="spacingAndGlyphs" textLength="19" x="574.5" y="568.356">alt</text><text fill="#000000" font-family="sans-serif" font-size="11" font-weight="bold" lengthAdjust="spacingAndGlyphs" textLength="187" x="638.5" y="567.4995">[OutputNode-&gt;specularSet()]</text><line style="stroke: #A80036; stroke-width: 1.0;" x1="622" x2="664" y1="593.5547" y2="593.5547"/><line style="stroke: #A80036; stroke-width: 1.0;" x1="664" x2="664" y1="593.5547" y2="606.5547"/><line style="stroke: #A80036; stroke-width: 1.0;" x1="623" x2="664" y1="606.5547" y2="606.5547"/><polygon fill="#A80036" points="633,602.5547,623,606.5547,633,610.5547,629,606.5547" style="stroke: #A80036; stroke-width: 1.0;"/><text fill="#000000" font-family="sans-serif" font-size="13" lengthAdjust="spacingAndGlyphs" textLength="123" x="629" y="588.4888">Save specular map</text><polygon fill="#A80036" points="76,638.5547,66,642.5547,76,646.5547,72,642.5547" style="stroke: #A80036; stroke-width: 1.0;"/><line style="stroke: #A80036; stroke-width: 1.0; stroke-dasharray: 2.0,2.0;" x1="70" x2="616" y1="642.5547" y2="642.5547"/><text fill="#000000" font-family="sans-serif" font-size="13" lengthAdjust="spacingAndGlyphs" textLength="119" x="82" y="637.6216">emit renderDone()</text><line style="stroke: #A80036; stroke-width: 1.0;" x1="65" x2="107" y1="676.8203" y2="676.8203"/><line style="stroke: #A80036; stroke-width: 1.0;" x1="107" x2="107" y1="676.8203" y2="689.8203"/><line style="stroke: #A80036; stroke-width: 1.0;" x1="60" x2="107" y1="689.8203" y2="689.8203"/><polygon fill="#A80036" points="70,685.8203,60,689.8203,70,693.8203,66,689.8203" style="stroke: #A80036; stroke-width: 1.0;"/><text fill="#000000" font-family="sans-serif" font-size="13" lengthAdjust="spacingAndGlyphs" textLength="191" x="72" y="671.7544">Display render done message</text><!--
@startuml
MainWindow -> MainWindow : Render
activate MainWindow
note right: User selects output directory
MainWindow -> MainWindow : Create output render directory
MainWindow -> Settings : render()
activate Settings
Settings - -> Node : emit renderStart()
deactivate Settings
activate Node
loop each Node
    Node -> Node : generate
    Node - -> Node : emit dataUpdated(port)
end
Node - -> Nodeeditor : emit computingFinished()
deactivate Node
activate Nodeeditor
note right
OutputNode emits <b>computingFinished()</b>
whether or not <b>Settings->finalRender()</b> is true.
Nodeeditor runs this when <b>finalRender()</b> is <b>true</b>.
Otherwise Nodeeditor just updates preview window.
end note
Nodeeditor -> Nodeeditor : Save height map
Nodeeditor -> Nodeeditor : Save normal map
alt OutputNode->albedoSet()
    Nodeeditor -> Nodeeditor : Save albedo map
end
alt OutputNode->specularSet()
    Nodeeditor -> Nodeeditor : Save specular map
end
Nodeeditor - -> MainWindow : emit renderDone()
deactivate Nodeeditor
MainWindow -> MainWindow : Display render done message
deactivate MainWindow
@enduml

PlantUML version 1.2017.15(Mon Jul 03 16:45:34 UTC 2017)
(GPL source distribution)
Java Runtime: OpenJDK Runtime Environment
JVM: OpenJDK 64-Bit Server VM
Java Version: 1.8.0_252-b09
Operating System: Linux
OS Version: 5.3.0-1031-azure
Default Encoding: UTF-8
Language: en
Country: null
--></g></svg>