<?xml version="1.0" encoding="UTF-8" standalone="no"?><svg xmlns="http://www.w3.org/2000/svg" xmlns:xlink="http://www.w3.org/1999/xlink" contentScriptType="application/ecmascript" contentStyleType="text/css" height="607px" preserveAspectRatio="none" style="width:777px;height:607px;" version="1.1" viewBox="0 0 777 607" width="777px" zoomAndPan="magnify"><defs><filter height="300%" id="fy9s48qdwsae1" width="300%" x="-1" y="-1"><feGaussianBlur result="blurOut" stdDeviation="2.0"/><feColorMatrix in="blurOut" result="blurOut2" type="matrix" values="0 0 0 0 0 0 0 0 0 0 0 0 0 0 0 0 0 0 .4 0"/><feOffset dx="4.0" dy="4.0" in="blurOut2" result="blurOut3"/><feBlend in="SourceGraphic" in2="blurOut3" mode="normal"/></filter></defs><g><rect fill="#FFFFFF" filter="url(#fy9s48qdwsae1)" height="465.2578" style="stroke: #A80036; stroke-width: 1.0;" width="10" x="80" y="77.2969"/><rect fill="#FFFFFF" filter="url(#fy9s48qdwsae1)" height="29.1328" style="stroke: #A80036; stroke-width: 1.0;" width="10" x="279" y="159.6953"/><rect fill="#FFFFFF" filter="url(#fy9s48qdwsae1)" height="204.1953" style="stroke: #A80036; stroke-width: 1.0;" width="10" x="372" y="303.2266"/><rect fill="#FFFFFF" filter="url(#fy9s48qdwsae1)" height="71.9648" style="stroke: #A80036; stroke-width: 1.0;" width="10" x="457" y="399.3242"/><rect fill="#FFFFFF" filter="url(#fy9s48qdwsae1)" height="177.7969" style="stroke: #000000; stroke-width: 2.0;" width="371" x="13" y="97.4297"/><rect fill="#FFFFFF" filter="url(#fy9s48qdwsae1)" height="146.6641" style="stroke: #000000; stroke-width: 2.0;" width="351" x="23" y="121.5625"/><rect fill="#FFFFFF" filter="url(#fy9s48qdwsae1)" height="161.0625" style="stroke: #000000; stroke-width: 2.0;" width="444.5" x="319.5" y="318.3594"/><line style="stroke: #A80036; stroke-width: 1.0; stroke-dasharray: 5.0,5.0;" x1="85" x2="85" y1="38.2969" y2="567.6875"/><line style="stroke: #A80036; stroke-width: 1.0; stroke-dasharray: 5.0,5.0;" x1="283.5" x2="283.5" y1="38.2969" y2="567.6875"/><line style="stroke: #A80036; stroke-width: 1.0; stroke-dasharray: 5.0,5.0;" x1="376.5" x2="376.5" y1="38.2969" y2="567.6875"/><line style="stroke: #A80036; stroke-width: 1.0; stroke-dasharray: 5.0,5.0;" x1="461.5" x2="461.5" y1="38.2969" y2="567.6875"/><rect fill="#FEFECE" filter="url(#fy9s48qdwsae1)" height="30.2969" style="stroke: #A80036; stroke-width: 1.5;" width="100" x="33" y="3"/><text fill="#000000" font-family="sans-serif" font-size="14" lengthAdjust="spacingAndGlyphs" textLength="86" x="40" y="22.9951">MainWindow</text><rect fill="#FEFECE" filter="url(#fy9s48qdwsae1)" height="30.2969" style="stroke: #A80036; stroke-width: 1.5;" width="100" x="33" y="566.6875"/><text fill="#000000" font-family="sans-serif" font-size="14" lengthAdjust="spacingAndGlyphs" textLength="86" x="40" y="586.6826">MainWindow</text><rect fill="#FEFECE" filter="url(#fy9s48qdwsae1)" height="30.2969" style="stroke: #A80036; stroke-width: 1.5;" width="67" x="248.5" y="3"/><text fill="#000000" font-family="sans-serif" font-size="14" lengthAdjust="spacingAndGlyphs" textLength="53" x="255.5" y="22.9951">Texture</text><rect fill="#FEFECE" filter="url(#fy9s48qdwsae1)" height="30.2969" style="stroke: #A80036; stroke-width: 1.5;" width="67" x="248.5" y="566.6875"/><text fill="#000000" font-family="sans-serif" font-size="14" lengthAdjust="spacingAndGlyphs" textLength="53" x="255.5" y="586.6826">Texture</text><rect fill="#FEFECE" filter="url(#fy9s48qdwsae1)" height="30.2969" style="stroke: #A80036; stroke-width: 1.5;" width="91" x="329.5" y="3"/><text fill="#000000" font-family="sans-serif" font-size="14" lengthAdjust="spacingAndGlyphs" textLength="77" x="336.5" y="22.9951">Nodeeditor</text><rect fill="#FEFECE" filter="url(#fy9s48qdwsae1)" height="30.2969" style="stroke: #A80036; stroke-width: 1.5;" width="91" x="329.5" y="566.6875"/><text fill="#000000" font-family="sans-serif" font-size="14" lengthAdjust="spacingAndGlyphs" textLength="77" x="336.5" y="586.6826">Nodeeditor</text><rect fill="#FEFECE" filter="url(#fy9s48qdwsae1)" height="30.2969" style="stroke: #A80036; stroke-width: 1.5;" width="51" x="434.5" y="3"/><text fill="#000000" font-family="sans-serif" font-size="14" lengthAdjust="spacingAndGlyphs" textLength="37" x="441.5" y="22.9951">Node</text><rect fill="#FEFECE" filter="url(#fy9s48qdwsae1)" height="30.2969" style="stroke: #A80036; stroke-width: 1.5;" width="51" x="434.5" y="566.6875"/><text fill="#000000" font-family="sans-serif" font-size="14" lengthAdjust="spacingAndGlyphs" textLength="37" x="441.5" y="586.6826">Node</text><rect fill="#FFFFFF" filter="url(#fy9s48qdwsae1)" height="465.2578" style="stroke: #A80036; stroke-width: 1.0;" width="10" x="80" y="77.2969"/><rect fill="#FFFFFF" filter="url(#fy9s48qdwsae1)" height="29.1328" style="stroke: #A80036; stroke-width: 1.0;" width="10" x="279" y="159.6953"/><rect fill="#FFFFFF" filter="url(#fy9s48qdwsae1)" height="204.1953" style="stroke: #A80036; stroke-width: 1.0;" width="10" x="372" y="303.2266"/><rect fill="#FFFFFF" filter="url(#fy9s48qdwsae1)" height="71.9648" style="stroke: #A80036; stroke-width: 1.0;" width="10" x="457" y="399.3242"/><line style="stroke: #A80036; stroke-width: 1.0;" x1="85" x2="132" y1="64.4297" y2="64.4297"/><line style="stroke: #A80036; stroke-width: 1.0;" x1="132" x2="132" y1="64.4297" y2="77.4297"/><line style="stroke: #A80036; stroke-width: 1.0;" x1="91" x2="132" y1="77.4297" y2="77.4297"/><polygon fill="#A80036" points="101,73.4297,91,77.4297,101,81.4297,97,77.4297" style="stroke: #A80036; stroke-width: 1.0;"/><text fill="#000000" font-family="sans-serif" font-size="13" lengthAdjust="spacingAndGlyphs" textLength="40" x="97" y="59.3638">save()</text><rect fill="none" height="177.7969" style="stroke: #000000; stroke-width: 2.0;" width="371" x="13" y="97.4297"/><polygon fill="#EEEEEE" points="13,97.4297,90,97.4297,90,104.4297,80,114.4297,13,114.4297,13,97.4297" style="stroke: #000000; stroke-width: 2.0;"/><text fill="#000000" font-family="sans-serif" font-size="13" font-weight="bold" lengthAdjust="spacingAndGlyphs" textLength="32" x="28" y="110.4966">loop</text><text fill="#000000" font-family="sans-serif" font-size="11" font-weight="bold" lengthAdjust="spacingAndGlyphs" textLength="114" x="105" y="109.6401">[over TextureList]</text><rect fill="none" height="146.6641" style="stroke: #000000; stroke-width: 2.0;" width="351" x="23" y="121.5625"/><polygon fill="#EEEEEE" points="23,121.5625,87,121.5625,87,128.5625,77,138.5625,23,138.5625,23,121.5625" style="stroke: #000000; stroke-width: 2.0;"/><text fill="#000000" font-family="sans-serif" font-size="13" font-weight="bold" lengthAdjust="spacingAndGlyphs" textLength="19" x="38" y="134.6294">alt</text><text fill="#000000" font-family="sans-serif" font-size="11" font-weight="bold" lengthAdjust="spacingAndGlyphs" textLength="267" x="102" y="133.7729">[SETTINGS.packed OR Texture.generated]</text><polygon fill="#A80036" points="267,155.6953,277,159.6953,267,163.6953,271,159.6953" style="stroke: #A80036; stroke-width: 1.0;"/><line style="stroke: #A80036; stroke-width: 1.0;" x1="90" x2="273" y1="159.6953" y2="159.6953"/><text fill="#000000" font-family="sans-serif" font-size="13" lengthAdjust="spacingAndGlyphs" textLength="50" x="97" y="154.7622">image()</text><polygon fill="#A80036" points="101,184.8281,91,188.8281,101,192.8281,97,188.8281" style="stroke: #A80036; stroke-width: 1.0;"/><line style="stroke: #A80036; stroke-width: 1.0;" x1="95" x2="283" y1="188.8281" y2="188.8281"/><text fill="#000000" font-family="sans-serif" font-size="13" lengthAdjust="spacingAndGlyphs" textLength="40" x="107" y="183.895">image</text><line style="stroke: #A80036; stroke-width: 1.0;" x1="90" x2="132" y1="218.0938" y2="218.0938"/><line style="stroke: #A80036; stroke-width: 1.0;" x1="132" x2="132" y1="218.0938" y2="231.0938"/><line style="stroke: #A80036; stroke-width: 1.0;" x1="91" x2="132" y1="231.0938" y2="231.0938"/><polygon fill="#A80036" points="101,227.0938,91,231.0938,101,235.0938,97,231.0938" style="stroke: #A80036; stroke-width: 1.0;"/><text fill="#000000" font-family="sans-serif" font-size="13" lengthAdjust="spacingAndGlyphs" textLength="124" x="97" y="213.0278">pack image into zip</text><polygon fill="#A80036" points="272,256.0938,282,260.0938,272,264.0938,276,260.0938" style="stroke: #A80036; stroke-width: 1.0;"/><line style="stroke: #A80036; stroke-width: 1.0;" x1="90" x2="278" y1="260.0938" y2="260.0938"/><text fill="#000000" font-family="sans-serif" font-size="13" lengthAdjust="spacingAndGlyphs" textLength="134" x="97" y="255.1606">setPackedFilename()</text><polygon fill="#A80036" points="360,299.2266,370,303.2266,360,307.2266,364,303.2266" style="stroke: #A80036; stroke-width: 1.0;"/><line style="stroke: #A80036; stroke-width: 1.0;" x1="90" x2="366" y1="303.2266" y2="303.2266"/><text fill="#000000" font-family="sans-serif" font-size="13" lengthAdjust="spacingAndGlyphs" textLength="40" x="97" y="298.2935">save()</text><rect fill="none" height="161.0625" style="stroke: #000000; stroke-width: 2.0;" width="444.5" x="319.5" y="318.3594"/><polygon fill="#EEEEEE" points="319.5,318.3594,396.5,318.3594,396.5,325.3594,386.5,335.3594,319.5,335.3594,319.5,318.3594" style="stroke: #000000; stroke-width: 2.0;"/><text fill="#000000" font-family="sans-serif" font-size="13" font-weight="bold" lengthAdjust="spacingAndGlyphs" textLength="32" x="334.5" y="331.4263">loop</text><text fill="#000000" font-family="sans-serif" font-size="11" font-weight="bold" lengthAdjust="spacingAndGlyphs" textLength="82" x="411.5" y="330.5698">[over Nodes]</text><polygon fill="#A80036" points="445,395.3242,455,399.3242,445,403.3242,449,399.3242" style="stroke: #A80036; stroke-width: 1.0;"/><line style="stroke: #A80036; stroke-width: 1.0;" x1="382" x2="451" y1="399.3242" y2="399.3242"/><text fill="#000000" font-family="sans-serif" font-size="13" lengthAdjust="spacingAndGlyphs" textLength="40" x="389" y="394.3911">save()</text><polygon fill="#FBFB77" filter="url(#fy9s48qdwsae1)" points="472,340.4922,472,440.4922,755,440.4922,755,350.4922,745,340.4922,472,340.4922" style="stroke: #A80036; stroke-width: 1.0;"/><line style="stroke: #A80036; stroke-width: 1.0;" x1="745" x2="745" y1="340.4922" y2="350.4922"/><line style="stroke: #A80036; stroke-width: 1.0;" x1="755" x2="745" y1="350.4922" y2="350.4922"/><text fill="#000000" font-family="sans-serif" font-size="13" font-weight="bold" lengthAdjust="spacingAndGlyphs" textLength="132" x="478" y="357.5591">InputTextureNode</text><text fill="#000000" font-family="sans-serif" font-size="13" lengthAdjust="spacingAndGlyphs" textLength="63" x="610" y="357.5591">'s uses its</text><text fill="#000000" font-family="sans-serif" font-size="13" lengthAdjust="spacingAndGlyphs" textLength="262" x="478" y="372.6919">cooresponding texture saveAsFilename()</text><text fill="#000000" font-family="sans-serif" font-size="13" lengthAdjust="spacingAndGlyphs" textLength="242" x="478" y="387.8247">thus eliminating the need to manually</text><text fill="#000000" font-family="sans-serif" font-size="13" lengthAdjust="spacingAndGlyphs" textLength="138" x="478" y="402.9575">edit JSON within save.</text><text fill="#000000" font-family="sans-serif" font-size="13" font-style="italic" lengthAdjust="spacingAndGlyphs" textLength="38" x="478" y="418.0903">TODO</text><text fill="#000000" font-family="sans-serif" font-size="13" lengthAdjust="spacingAndGlyphs" textLength="194" x="516" y="418.0903">: Might be able to remove json</text><text fill="#000000" font-family="sans-serif" font-size="13" lengthAdjust="spacingAndGlyphs" textLength="39" x="478" y="433.2231">library</text><polygon fill="#A80036" points="393,467.2891,383,471.2891,393,475.2891,389,471.2891" style="stroke: #A80036; stroke-width: 1.0;"/><line style="stroke: #A80036; stroke-width: 1.0;" x1="387" x2="461" y1="471.2891" y2="471.2891"/><text fill="#000000" font-family="sans-serif" font-size="13" lengthAdjust="spacingAndGlyphs" textLength="29" x="399" y="466.356">data</text><polygon fill="#A80036" points="101,503.4219,91,507.4219,101,511.4219,97,507.4219" style="stroke: #A80036; stroke-width: 1.0;"/><line style="stroke: #A80036; stroke-width: 1.0;" x1="95" x2="376" y1="507.4219" y2="507.4219"/><text fill="#000000" font-family="sans-serif" font-size="13" lengthAdjust="spacingAndGlyphs" textLength="29" x="107" y="502.4888">data</text><line style="stroke: #A80036; stroke-width: 1.0;" x1="90" x2="132" y1="541.6875" y2="541.6875"/><line style="stroke: #A80036; stroke-width: 1.0;" x1="132" x2="132" y1="541.6875" y2="554.6875"/><line style="stroke: #A80036; stroke-width: 1.0;" x1="85" x2="132" y1="554.6875" y2="554.6875"/><polygon fill="#A80036" points="95,550.6875,85,554.6875,95,558.6875,91,554.6875" style="stroke: #A80036; stroke-width: 1.0;"/><text fill="#000000" font-family="sans-serif" font-size="13" lengthAdjust="spacingAndGlyphs" textLength="175" x="97" y="536.6216">pack data into zip and save</text><!--
@startuml
MainWindow -> MainWindow : save()
activate MainWindow
loop over TextureList
    alt SETTINGS.packed OR Texture.generated
        MainWindow -> Texture : image()
        activate Texture
        Texture -> MainWindow : image
        deactivate Texture

        MainWindow -> MainWindow : pack image into zip
        MainWindow -> Texture : setPackedFilename()
    end
end
MainWindow -> Nodeeditor : save()
activate Nodeeditor
loop over Nodes
    Nodeeditor -> Node : save()
    activate Node
    note right
        **InputTextureNode**'s uses its
        cooresponding texture saveAsFilename()
        thus eliminating the need to manually
        edit JSON within save.
        //TODO//: Might be able to remove json
        library
    end note
    Node -> Nodeeditor : data
    deactivate Node
end
Nodeeditor -> MainWindow : data
deactivate Nodeeditor
MainWindow -> MainWindow : pack data into zip and save
deactivate MainWindow
@enduml

PlantUML version 1.2017.15(Mon Jul 03 16:45:34 UTC 2017)
(GPL source distribution)
Java Runtime: OpenJDK Runtime Environment
JVM: OpenJDK 64-Bit Server VM
Java Version: 1.8.0_252-b14
Operating System: Linux
OS Version: 5.3.0-1028-azure
Default Encoding: UTF-8
Language: en
Country: null
--></g></svg>